<svg width="54" height="51" viewBox="0 0 54 51" fill="none" xmlns="http://www.w3.org/2000/svg">
<rect x="1" y="1" width="52" height="49" rx="5" fill="#19BF97" stroke="#F5F5F5" stroke-width="2"/>
<path d="M35.1667 10.9167H19.8333C18.7792 10.9167 17.9262 11.7792 17.9262 12.8333L17.9167 30.0833L21.75 26.25H35.1667C36.2208 26.25 37.0833 25.3875 37.0833 24.3333V12.8333C37.0833 11.7792 36.2208 10.9167 35.1667 10.9167ZM32.2917 22.4167H22.7083C22.1812 22.4167 21.75 21.9854 21.75 21.4583C21.75 20.9312 22.1812 20.5 22.7083 20.5H32.2917C32.8187 20.5 33.25 20.9312 33.25 21.4583C33.25 21.9854 32.8187 22.4167 32.2917 22.4167ZM32.2917 19.5417H22.7083C22.1812 19.5417 21.75 19.1104 21.75 18.5833C21.75 18.0562 22.1812 17.625 22.7083 17.625H32.2917C32.8187 17.625 33.25 18.0562 33.25 18.5833C33.25 19.1104 32.8187 19.5417 32.2917 19.5417ZM32.2917 16.6667H22.7083C22.1812 16.6667 21.75 16.2354 21.75 15.7083C21.75 15.1812 22.1812 14.75 22.7083 14.75H32.2917C32.8187 14.75 33.25 15.1812 33.25 15.7083C33.25 16.2354 32.8187 16.6667 32.2917 16.6667Z" fill="white"/>
<path d="M13.754 43V35H16.8165C17.3946 35 17.8751 35.0911 18.2579 35.2734C18.6433 35.4531 18.9311 35.6992 19.1212 36.0117C19.3139 36.3242 19.4102 36.6784 19.4102 37.0742C19.4102 37.3997 19.3477 37.6784 19.2227 37.9102C19.0977 38.1393 18.9298 38.3255 18.7188 38.4687C18.5079 38.612 18.2722 38.7148 18.0118 38.7773V38.8555C18.2957 38.8711 18.5678 38.9583 18.8282 39.1172C19.0912 39.2734 19.3061 39.4948 19.4727 39.7812C19.6394 40.0677 19.7227 40.4141 19.7227 40.8203C19.7227 41.2344 19.6225 41.6068 19.422 41.9375C19.2214 42.2656 18.9194 42.5247 18.5157 42.7148C18.1121 42.9049 17.6042 43 16.9923 43H13.754ZM15.2032 41.7891H16.7618C17.2878 41.7891 17.6667 41.6888 17.8985 41.4883C18.1329 41.2852 18.2501 41.0247 18.2501 40.707C18.2501 40.4701 18.1915 40.2565 18.0743 40.0664C17.9571 39.8737 17.7904 39.7227 17.5743 39.6133C17.3582 39.5013 17.1003 39.4453 16.8009 39.4453H15.2032V41.7891ZM15.2032 38.4023H16.6368C16.8868 38.4023 17.1121 38.3568 17.3126 38.2656C17.5131 38.1719 17.6707 38.0404 17.7852 37.8711C17.9024 37.6992 17.961 37.4961 17.961 37.2617C17.961 36.9518 17.8516 36.6966 17.6329 36.4961C17.4167 36.2956 17.0951 36.1953 16.6681 36.1953H15.2032V38.4023ZM21.927 35V43H20.513V35H21.927ZM25.5903 43.1172C25.0044 43.1172 24.4966 42.9883 24.0669 42.7305C23.6372 42.4727 23.3039 42.112 23.0669 41.6484C22.8325 41.1849 22.7153 40.6432 22.7153 40.0234C22.7153 39.4036 22.8325 38.8607 23.0669 38.3945C23.3039 37.9284 23.6372 37.5664 24.0669 37.3086C24.4966 37.0508 25.0044 36.9219 25.5903 36.9219C26.1763 36.9219 26.6841 37.0508 27.1138 37.3086C27.5435 37.5664 27.8755 37.9284 28.1099 38.3945C28.3468 38.8607 28.4653 39.4036 28.4653 40.0234C28.4653 40.6432 28.3468 41.1849 28.1099 41.6484C27.8755 42.112 27.5435 42.4727 27.1138 42.7305C26.6841 42.9883 26.1763 43.1172 25.5903 43.1172ZM25.5981 41.9844C25.9159 41.9844 26.1815 41.8971 26.395 41.7227C26.6086 41.5456 26.7674 41.3086 26.8716 41.0117C26.9784 40.7148 27.0317 40.3841 27.0317 40.0195C27.0317 39.6523 26.9784 39.3203 26.8716 39.0234C26.7674 38.724 26.6086 38.4857 26.395 38.3086C26.1815 38.1315 25.9159 38.043 25.5981 38.043C25.2726 38.043 25.0018 38.1315 24.7856 38.3086C24.5721 38.4857 24.4119 38.724 24.3052 39.0234C24.201 39.3203 24.1489 39.6523 24.1489 40.0195C24.1489 40.3841 24.201 40.7148 24.3052 41.0117C24.4119 41.3086 24.5721 41.5456 24.7856 41.7227C25.0018 41.8971 25.2726 41.9844 25.5981 41.9844ZM31.8669 45.375C31.3591 45.375 30.9229 45.306 30.5583 45.168C30.1937 45.0326 29.9008 44.8503 29.6794 44.6211C29.458 44.3919 29.3044 44.138 29.2185 43.8594L30.4919 43.5508C30.5492 43.668 30.6325 43.7839 30.7419 43.8984C30.8513 44.0156 30.9984 44.112 31.1833 44.1875C31.3708 44.2656 31.6065 44.3047 31.8903 44.3047C32.2914 44.3047 32.6234 44.207 32.8864 44.0117C33.1495 43.819 33.281 43.5013 33.281 43.0586V41.9219H33.2107C33.1377 42.0677 33.031 42.2174 32.8903 42.3711C32.7523 42.5247 32.5687 42.6536 32.3396 42.7578C32.113 42.862 31.8278 42.9141 31.4841 42.9141C31.0232 42.9141 30.6052 42.806 30.2302 42.5898C29.8578 42.3711 29.5609 42.0456 29.3396 41.6133C29.1208 41.1784 29.0114 40.6341 29.0114 39.9805C29.0114 39.3216 29.1208 38.7656 29.3396 38.3125C29.5609 37.8568 29.8591 37.5117 30.2341 37.2773C30.6091 37.0404 31.0271 36.9219 31.488 36.9219C31.8396 36.9219 32.1286 36.9818 32.3552 37.1016C32.5843 37.2187 32.7666 37.3607 32.9021 37.5273C33.0375 37.6914 33.1403 37.8464 33.2107 37.9922H33.2888V37H34.6833V43.0977C34.6833 43.6107 34.5609 44.0352 34.3161 44.3711C34.0713 44.707 33.7367 44.9583 33.3122 45.125C32.8877 45.2917 32.406 45.375 31.8669 45.375ZM31.8786 41.8047C32.1781 41.8047 32.4333 41.7318 32.6442 41.5859C32.8552 41.4401 33.0153 41.2305 33.1247 40.957C33.2341 40.6836 33.2888 40.3555 33.2888 39.9727C33.2888 39.5951 33.2341 39.2643 33.1247 38.9805C33.0179 38.6966 32.8591 38.4766 32.6482 38.3203C32.4398 38.1615 32.1833 38.082 31.8786 38.082C31.5635 38.082 31.3005 38.1641 31.0896 38.3281C30.8786 38.4922 30.7198 38.7174 30.613 39.0039C30.5062 39.2878 30.4528 39.6107 30.4528 39.9727C30.4528 40.3398 30.5062 40.6615 30.613 40.9375C30.7224 41.2109 30.8825 41.4245 31.0935 41.5781C31.307 41.7292 31.5687 41.8047 31.8786 41.8047ZM40.4667 38.5859L39.1777 38.7266C39.1412 38.5964 39.0774 38.474 38.9862 38.3594C38.8977 38.2448 38.7779 38.1523 38.6269 38.082C38.4758 38.0117 38.2909 37.9766 38.0722 37.9766C37.7779 37.9766 37.5305 38.0404 37.33 38.168C37.1321 38.2956 37.0344 38.4609 37.037 38.6641C37.0344 38.8385 37.0982 38.9805 37.2284 39.0898C37.3612 39.1992 37.58 39.2891 37.8847 39.3594L38.9081 39.5781C39.4758 39.7005 39.8977 39.8945 40.1737 40.1602C40.4524 40.4258 40.593 40.7734 40.5956 41.2031C40.593 41.5807 40.4823 41.9141 40.2636 42.2031C40.0474 42.4896 39.7467 42.7135 39.3612 42.875C38.9758 43.0365 38.5331 43.1172 38.0331 43.1172C37.2987 43.1172 36.7076 42.9635 36.2597 42.6562C35.8118 42.3464 35.5448 41.9154 35.4589 41.3633L36.8378 41.2305C36.9003 41.5013 37.0331 41.7057 37.2362 41.8437C37.4394 41.9818 37.7037 42.0508 38.0292 42.0508C38.3652 42.0508 38.6347 41.9818 38.8378 41.8437C39.0435 41.7057 39.1464 41.5352 39.1464 41.332C39.1464 41.1602 39.08 41.0182 38.9472 40.9062C38.817 40.7943 38.6138 40.7083 38.3378 40.6484L37.3144 40.4336C36.7388 40.3138 36.3131 40.112 36.037 39.8281C35.761 39.5417 35.6243 39.1797 35.6269 38.7422C35.6243 38.3724 35.7245 38.0521 35.9277 37.7812C36.1334 37.5078 36.4185 37.2969 36.7831 37.1484C37.1503 36.9974 37.5735 36.9219 38.0527 36.9219C38.7558 36.9219 39.3092 37.0716 39.7128 37.3711C40.1191 37.6706 40.3704 38.0755 40.4667 38.5859Z" fill="white"/>
</svg>
