<svg width="69" height="52" viewBox="0 0 69 52" fill="none" xmlns="http://www.w3.org/2000/svg">
<path d="M17.0431 42.5H15.8983C15.8306 42.1707 15.7121 41.8814 15.5428 41.6321C15.3766 41.3828 15.1735 41.1735 14.9334 41.0043C14.6964 40.8319 14.4333 40.7027 14.144 40.6165C13.8547 40.5303 13.5531 40.4872 13.2392 40.4872C12.6667 40.4872 12.1481 40.6319 11.6834 40.9212C11.2218 41.2105 10.854 41.6367 10.5801 42.1999C10.3092 42.7631 10.1738 43.4541 10.1738 44.2727C10.1738 45.0914 10.3092 45.7823 10.5801 46.3455C10.854 46.9087 11.2218 47.335 11.6834 47.6243C12.1481 47.9136 12.6667 48.0582 13.2392 48.0582C13.5531 48.0582 13.8547 48.0152 14.144 47.929C14.4333 47.8428 14.6964 47.7151 14.9334 47.5458C15.1735 47.3735 15.3766 47.1626 15.5428 46.9134C15.7121 46.661 15.8306 46.3717 15.8983 46.0455H17.0431C16.957 46.5286 16.8 46.9611 16.5723 47.3427C16.3445 47.7243 16.0614 48.049 15.7228 48.3168C15.3843 48.5814 15.0042 48.783 14.5826 48.9215C14.164 49.06 13.7162 49.1293 13.2392 49.1293C12.4328 49.1293 11.7157 48.9323 11.0879 48.5384C10.46 48.1444 9.96609 47.5843 9.606 46.858C9.24592 46.1316 9.06587 45.2699 9.06587 44.2727C9.06587 43.2756 9.24592 42.4138 9.606 41.6875C9.96609 40.9612 10.46 40.401 11.0879 40.0071C11.7157 39.6132 12.4328 39.4162 13.2392 39.4162C13.7162 39.4162 14.164 39.4854 14.5826 39.6239C15.0042 39.7624 15.3843 39.9656 15.7228 40.2333C16.0614 40.498 16.3445 40.8211 16.5723 41.2028C16.8 41.5813 16.957 42.0137 17.0431 42.5ZM20.4241 49.1662C19.9748 49.1662 19.567 49.0816 19.2008 48.9123C18.8345 48.7399 18.5437 48.4922 18.3282 48.169C18.1128 47.8428 18.0051 47.4489 18.0051 46.9872C18.0051 46.581 18.0851 46.2517 18.2451 45.9993C18.4052 45.7438 18.6191 45.5438 18.8868 45.3991C19.1546 45.2545 19.45 45.1468 19.7732 45.076C20.0994 45.0021 20.4272 44.9437 20.7565 44.9006C21.1874 44.8452 21.5367 44.8036 21.8044 44.7759C22.0753 44.7451 22.2722 44.6944 22.3954 44.6236C22.5215 44.5528 22.5846 44.4297 22.5846 44.2543V44.2173C22.5846 43.7618 22.46 43.4079 22.2107 43.1555C21.9645 42.9032 21.5905 42.777 21.0889 42.777C20.5688 42.777 20.161 42.8909 19.8655 43.1186C19.5701 43.3464 19.3623 43.5895 19.2423 43.848L18.2082 43.4787C18.3929 43.0478 18.6391 42.7124 18.9468 42.4723C19.2577 42.2292 19.5962 42.0599 19.9625 41.9645C20.3318 41.866 20.695 41.8168 21.052 41.8168C21.2797 41.8168 21.5413 41.8445 21.8368 41.8999C22.1353 41.9522 22.4231 42.0614 22.7 42.2276C22.9801 42.3938 23.2125 42.6446 23.3971 42.9801C23.5818 43.3156 23.6741 43.7649 23.6741 44.3281V49H22.5846V48.0398H22.5292C22.4554 48.1937 22.3323 48.3583 22.1599 48.5337C21.9876 48.7092 21.7583 48.8584 21.4721 48.9815C21.1858 49.1046 20.8365 49.1662 20.4241 49.1662ZM20.5903 48.1875C21.0212 48.1875 21.3843 48.1029 21.6798 47.9336C21.9783 47.7643 22.203 47.5458 22.3538 47.2781C22.5077 47.0103 22.5846 46.7287 22.5846 46.4332V45.4361C22.5385 45.4915 22.4369 45.5423 22.2799 45.5884C22.1261 45.6315 21.9476 45.67 21.7444 45.7038C21.5444 45.7346 21.349 45.7623 21.1581 45.7869C20.9704 45.8085 20.8181 45.8269 20.7011 45.8423C20.418 45.8793 20.1533 45.9393 19.9071 46.0224C19.6639 46.1024 19.467 46.224 19.3162 46.3871C19.1684 46.5471 19.0946 46.7656 19.0946 47.0426C19.0946 47.4212 19.2346 47.7074 19.5147 47.9013C19.7978 48.0921 20.1564 48.1875 20.5903 48.1875ZM26.3442 39.5455V49H25.2547V39.5455H26.3442ZM30.9046 49.1477C30.2214 49.1477 29.632 48.9969 29.1365 48.6953C28.6441 48.3906 28.264 47.9659 27.9963 47.4212C27.7316 46.8733 27.5992 46.2363 27.5992 45.5099C27.5992 44.7836 27.7316 44.1435 27.9963 43.5895C28.264 43.0324 28.6364 42.5985 29.1134 42.2876C29.5936 41.9737 30.1537 41.8168 30.7938 41.8168C31.1632 41.8168 31.5279 41.8783 31.8879 42.0014C32.248 42.1245 32.5758 42.3246 32.8713 42.6016C33.1667 42.8755 33.4022 43.2386 33.5776 43.6911C33.753 44.1435 33.8407 44.7005 33.8407 45.3622V45.8239H28.3748V44.8821H32.7328C32.7328 44.482 32.6527 44.125 32.4927 43.8111C32.3357 43.4972 32.1111 43.2494 31.8187 43.0678C31.5294 42.8862 31.1878 42.7955 30.7938 42.7955C30.3599 42.7955 29.9844 42.9032 29.6674 43.1186C29.3535 43.331 29.1119 43.608 28.9426 43.9496C28.7734 44.2912 28.6887 44.6574 28.6887 45.0483V45.6761C28.6887 46.2116 28.7811 46.6656 28.9657 47.038C29.1535 47.4073 29.4135 47.6889 29.7459 47.8828C30.0783 48.0736 30.4645 48.169 30.9046 48.169C31.1909 48.169 31.4494 48.129 31.6802 48.049C31.9141 47.9659 32.1157 47.8428 32.285 47.6797C32.4542 47.5135 32.585 47.3073 32.6774 47.0611L33.7299 47.3565C33.6191 47.7135 33.4329 48.0275 33.1713 48.2983C32.9097 48.5661 32.5866 48.7753 32.2019 48.9261C31.8172 49.0739 31.3848 49.1477 30.9046 49.1477ZM36.1795 44.7344V49H35.09V41.9091H36.1426V43.017H36.2349C36.4011 42.657 36.6535 42.3677 36.992 42.1491C37.3306 41.9276 37.7676 41.8168 38.3031 41.8168C38.7832 41.8168 39.2033 41.9152 39.5634 42.1122C39.9235 42.3061 40.2035 42.6016 40.4036 42.9986C40.6036 43.3925 40.7037 43.8911 40.7037 44.4943V49H39.6142V44.5682C39.6142 44.0111 39.4695 43.5772 39.1802 43.2663C38.8909 42.9524 38.4939 42.7955 37.9892 42.7955C37.6414 42.7955 37.3306 42.8709 37.0567 43.0217C36.7858 43.1725 36.5719 43.3925 36.415 43.6818C36.258 43.9711 36.1795 44.322 36.1795 44.7344ZM44.9641 49.1477C44.3732 49.1477 43.8515 48.9985 43.3991 48.6999C42.9467 48.3983 42.5928 47.9736 42.3373 47.4258C42.0819 46.8749 41.9541 46.224 41.9541 45.473C41.9541 44.7282 42.0819 44.0819 42.3373 43.5341C42.5928 42.9863 42.9482 42.5631 43.4037 42.2646C43.8592 41.966 44.3855 41.8168 44.9825 41.8168C45.4442 41.8168 45.8089 41.8937 46.0767 42.0476C46.3475 42.1984 46.5537 42.3707 46.6953 42.5646C46.8399 42.7554 46.9522 42.9124 47.0323 43.0355H47.1246V39.5455H48.2141V49H47.1615V47.9105H47.0323C46.9522 48.0398 46.8384 48.2029 46.6906 48.3999C46.5429 48.5937 46.3321 48.7676 46.0582 48.9215C45.7843 49.0723 45.4196 49.1477 44.9641 49.1477ZM45.1118 48.169C45.5488 48.169 45.9182 48.0552 46.2198 47.8274C46.5214 47.5966 46.7507 47.2781 46.9076 46.8718C47.0646 46.4625 47.1431 45.9901 47.1431 45.4545C47.1431 44.9252 47.0661 44.462 46.9122 44.065C46.7584 43.6649 46.5306 43.354 46.229 43.1325C45.9274 42.9078 45.555 42.7955 45.1118 42.7955C44.6502 42.7955 44.2655 42.9139 43.9577 43.1509C43.653 43.3848 43.4237 43.7034 43.2698 44.1065C43.119 44.5066 43.0436 44.956 43.0436 45.4545C43.0436 45.9593 43.1206 46.4179 43.2745 46.8303C43.4314 47.2396 43.6622 47.5658 43.9669 47.8089C44.2747 48.049 44.6563 48.169 45.1118 48.169ZM52.0394 49.1662C51.5901 49.1662 51.1823 49.0816 50.816 48.9123C50.4498 48.7399 50.159 48.4922 49.9435 48.169C49.7281 47.8428 49.6204 47.4489 49.6204 46.9872C49.6204 46.581 49.7004 46.2517 49.8604 45.9993C50.0205 45.7438 50.2344 45.5438 50.5021 45.3991C50.7699 45.2545 51.0653 45.1468 51.3885 45.076C51.7147 45.0021 52.0425 44.9437 52.3718 44.9006C52.8027 44.8452 53.152 44.8036 53.4197 44.7759C53.6906 44.7451 53.8875 44.6944 54.0106 44.6236C54.1368 44.5528 54.1999 44.4297 54.1999 44.2543V44.2173C54.1999 43.7618 54.0753 43.4079 53.826 43.1555C53.5798 42.9032 53.2058 42.777 52.7042 42.777C52.184 42.777 51.7763 42.8909 51.4808 43.1186C51.1853 43.3464 50.9776 43.5895 50.8576 43.848L49.8235 43.4787C50.0081 43.0478 50.2544 42.7124 50.5621 42.4723C50.873 42.2292 51.2115 42.0599 51.5777 41.9645C51.9471 41.866 52.3102 41.8168 52.6672 41.8168C52.895 41.8168 53.1566 41.8445 53.452 41.8999C53.7506 41.9522 54.0383 42.0614 54.3153 42.2276C54.5954 42.3938 54.8277 42.6446 55.0124 42.9801C55.1971 43.3156 55.2894 43.7649 55.2894 44.3281V49H54.1999V48.0398H54.1445C54.0706 48.1937 53.9475 48.3583 53.7752 48.5337C53.6028 48.7092 53.3736 48.8584 53.0873 48.9815C52.8011 49.1046 52.4518 49.1662 52.0394 49.1662ZM52.2056 48.1875C52.6365 48.1875 52.9996 48.1029 53.2951 47.9336C53.5936 47.7643 53.8183 47.5458 53.9691 47.2781C54.123 47.0103 54.1999 46.7287 54.1999 46.4332V45.4361C54.1537 45.4915 54.0522 45.5423 53.8952 45.5884C53.7413 45.6315 53.5628 45.67 53.3597 45.7038C53.1597 45.7346 52.9642 45.7623 52.7734 45.7869C52.5857 45.8085 52.4333 45.8269 52.3164 45.8423C52.0332 45.8793 51.7686 45.9393 51.5224 46.0224C51.2792 46.1024 51.0822 46.224 50.9314 46.3871C50.7837 46.5471 50.7099 46.7656 50.7099 47.0426C50.7099 47.4212 50.8499 47.7074 51.13 47.9013C51.4131 48.0921 51.7716 48.1875 52.2056 48.1875ZM56.8699 49V41.9091H57.9225V42.9801H57.9964C58.1256 42.6293 58.3595 42.3446 58.6981 42.1261C59.0366 41.9076 59.4182 41.7983 59.843 41.7983C59.923 41.7983 60.023 41.7998 60.143 41.8029C60.263 41.806 60.3538 41.8106 60.4154 41.8168V42.9247C60.3785 42.9155 60.2938 42.9016 60.1615 42.8832C60.0322 42.8616 59.8953 42.8509 59.7506 42.8509C59.4059 42.8509 59.0982 42.9232 58.8273 43.0678C58.5596 43.2094 58.3472 43.4064 58.1903 43.6587C58.0364 43.908 57.9594 44.1927 57.9594 44.5128V49H56.8699Z" fill="white"/>
<g clip-path="url(#clip0_247_7733)">
<path d="M34 22.1665C33.5278 22.1665 33.1322 22.0145 32.8133 21.7105C32.4933 21.4076 32.3333 21.0318 32.3333 20.5832C32.3333 20.1346 32.4933 19.7583 32.8133 19.4543C33.1322 19.1513 33.5278 18.9998 34 18.9998C34.4722 18.9998 34.8683 19.1513 35.1883 19.4543C35.5072 19.7583 35.6667 20.1346 35.6667 20.5832C35.6667 21.0318 35.5072 21.4076 35.1883 21.7105C34.8683 22.0145 34.4722 22.1665 34 22.1665ZM27.3333 22.1665C26.8611 22.1665 26.465 22.0145 26.145 21.7105C25.8261 21.4076 25.6667 21.0318 25.6667 20.5832C25.6667 20.1346 25.8261 19.7583 26.145 19.4543C26.465 19.1513 26.8611 18.9998 27.3333 18.9998C27.8056 18.9998 28.2017 19.1513 28.5217 19.4543C28.8406 19.7583 29 20.1346 29 20.5832C29 21.0318 28.8406 21.4076 28.5217 21.7105C28.2017 22.0145 27.8056 22.1665 27.3333 22.1665ZM40.6667 22.1665C40.1944 22.1665 39.7989 22.0145 39.48 21.7105C39.16 21.4076 39 21.0318 39 20.5832C39 20.1346 39.16 19.7583 39.48 19.4543C39.7989 19.1513 40.1944 18.9998 40.6667 18.9998C41.1389 18.9998 41.5344 19.1513 41.8533 19.4543C42.1733 19.7583 42.3333 20.1346 42.3333 20.5832C42.3333 21.0318 42.1733 21.4076 41.8533 21.7105C41.5344 22.0145 41.1389 22.1665 40.6667 22.1665ZM34 28.4998C33.5278 28.4998 33.1322 28.3478 32.8133 28.0438C32.4933 27.7409 32.3333 27.3651 32.3333 26.9165C32.3333 26.4679 32.4933 26.0921 32.8133 25.7892C33.1322 25.4852 33.5278 25.3332 34 25.3332C34.4722 25.3332 34.8683 25.4852 35.1883 25.7892C35.5072 26.0921 35.6667 26.4679 35.6667 26.9165C35.6667 27.3651 35.5072 27.7409 35.1883 28.0438C34.8683 28.3478 34.4722 28.4998 34 28.4998ZM27.3333 28.4998C26.8611 28.4998 26.465 28.3478 26.145 28.0438C25.8261 27.7409 25.6667 27.3651 25.6667 26.9165C25.6667 26.4679 25.8261 26.0921 26.145 25.7892C26.465 25.4852 26.8611 25.3332 27.3333 25.3332C27.8056 25.3332 28.2017 25.4852 28.5217 25.7892C28.8406 26.0921 29 26.4679 29 26.9165C29 27.3651 28.8406 27.7409 28.5217 28.0438C28.2017 28.3478 27.8056 28.4998 27.3333 28.4998ZM40.6667 28.4998C40.1944 28.4998 39.7989 28.3478 39.48 28.0438C39.16 27.7409 39 27.3651 39 26.9165C39 26.4679 39.16 26.0921 39.48 25.7892C39.7989 25.4852 40.1944 25.3332 40.6667 25.3332C41.1389 25.3332 41.5344 25.4852 41.8533 25.7892C42.1733 26.0921 42.3333 26.4679 42.3333 26.9165C42.3333 27.3651 42.1733 27.7409 41.8533 28.0438C41.5344 28.3478 41.1389 28.4998 40.6667 28.4998ZM22.3333 34.8332C21.4167 34.8332 20.6317 34.5234 19.9783 33.9038C19.3261 33.2831 19 32.5373 19 31.6665V9.49984C19 8.629 19.3261 7.88378 19.9783 7.26417C20.6317 6.6435 21.4167 6.33317 22.3333 6.33317H24V3.1665H27.3333V6.33317H40.6667V3.1665H44V6.33317H45.6667C46.5833 6.33317 47.3683 6.6435 48.0217 7.26417C48.6739 7.88378 49 8.629 49 9.49984V31.6665C49 32.5373 48.6739 33.2831 48.0217 33.9038C47.3683 34.5234 46.5833 34.8332 45.6667 34.8332H22.3333ZM22.3333 31.6665H45.6667V15.8332H22.3333V31.6665Z" fill="white"/>
</g>
<defs>
<clipPath id="clip0_247_7733">
<rect width="40" height="38" fill="white" transform="translate(14)"/>
</clipPath>
</defs>
</svg>
