<svg width="54" height="51" viewBox="0 0 54 51" fill="none" xmlns="http://www.w3.org/2000/svg">
<rect width="54" height="51" rx="6" fill="#FF8C2E"/>
<path d="M15.1449 37.6992H13.684C13.6423 37.4596 13.5655 37.2474 13.4535 37.0625C13.3415 36.875 13.2022 36.7161 13.0355 36.5859C12.8689 36.4557 12.6788 36.3581 12.4652 36.293C12.2543 36.2253 12.0264 36.1914 11.7816 36.1914C11.3467 36.1914 10.9613 36.3008 10.6254 36.5195C10.2894 36.7357 10.0264 37.0534 9.8363 37.4727C9.6462 37.8893 9.55115 38.3984 9.55115 39C9.55115 39.612 9.6462 40.1276 9.8363 40.5469C10.029 40.9635 10.292 41.2786 10.6254 41.4922C10.9613 41.7031 11.3454 41.8086 11.7777 41.8086C12.0173 41.8086 12.2413 41.7773 12.4496 41.7148C12.6605 41.6497 12.8493 41.5547 13.016 41.4297C13.1853 41.3047 13.3272 41.151 13.4418 40.9687C13.559 40.7865 13.6397 40.5781 13.684 40.3437L15.1449 40.3516C15.0902 40.7318 14.9717 41.0885 14.7894 41.4219C14.6097 41.7552 14.3741 42.0495 14.0824 42.3047C13.7907 42.5573 13.4496 42.7552 13.059 42.8984C12.6683 43.0391 12.2347 43.1094 11.7582 43.1094C11.0551 43.1094 10.4274 42.9466 9.87537 42.6211C9.32328 42.2956 8.88839 41.8255 8.57068 41.2109C8.25297 40.5964 8.09412 39.8594 8.09412 39C8.09412 38.138 8.25427 37.401 8.57458 36.7891C8.8949 36.1745 9.3311 35.7044 9.88318 35.3789C10.4353 35.0534 11.0603 34.8906 11.7582 34.8906C12.2035 34.8906 12.6176 34.9531 13.0004 35.0781C13.3832 35.2031 13.7243 35.3867 14.0238 35.6289C14.3233 35.8685 14.5694 36.1628 14.7621 36.5117C14.9574 36.8581 15.085 37.2539 15.1449 37.6992ZM18.6578 43.1172C18.0562 43.1172 17.5367 42.9922 17.0992 42.7422C16.6643 42.4896 16.3297 42.1328 16.0953 41.6719C15.8609 41.2083 15.7437 40.6628 15.7437 40.0352C15.7437 39.418 15.8609 38.8763 16.0953 38.4102C16.3323 37.9414 16.663 37.5768 17.0875 37.3164C17.512 37.0534 18.0107 36.9219 18.5836 36.9219C18.9534 36.9219 19.3023 36.9818 19.6305 37.1016C19.9612 37.2187 20.2528 37.401 20.5055 37.6484C20.7607 37.8958 20.9612 38.2109 21.107 38.5937C21.2528 38.974 21.3258 39.4271 21.3258 39.9531V40.3867H16.4078V39.4336H19.9703C19.9677 39.1628 19.9091 38.9219 19.7945 38.7109C19.6799 38.4974 19.5198 38.3294 19.314 38.207C19.1109 38.0846 18.8739 38.0234 18.6031 38.0234C18.314 38.0234 18.0601 38.0937 17.8414 38.2344C17.6226 38.3724 17.4521 38.5547 17.3297 38.7812C17.2099 39.0052 17.1487 39.2513 17.1461 39.5195V40.3516C17.1461 40.7005 17.2099 41 17.3375 41.25C17.4651 41.4974 17.6435 41.6875 17.8726 41.8203C18.1018 41.9505 18.37 42.0156 18.6773 42.0156C18.8831 42.0156 19.0693 41.987 19.2359 41.9297C19.4026 41.8698 19.5471 41.7826 19.6695 41.668C19.7919 41.5534 19.8844 41.4115 19.9469 41.2422L21.2672 41.3906C21.1838 41.7396 21.025 42.0443 20.7906 42.3047C20.5588 42.5625 20.262 42.763 19.9 42.9062C19.538 43.0469 19.1239 43.1172 18.6578 43.1172ZM23.5281 39.4844V43H22.1141V37H23.4656V38.0195H23.5359C23.6739 37.6836 23.894 37.4167 24.1961 37.2187C24.5008 37.0208 24.8771 36.9219 25.325 36.9219C25.7391 36.9219 26.0997 37.0104 26.407 37.1875C26.7169 37.3646 26.9565 37.6211 27.1258 37.957C27.2976 38.293 27.3823 38.7005 27.3797 39.1797V43H25.9656V39.3984C25.9656 38.9974 25.8614 38.6836 25.6531 38.457C25.4474 38.2305 25.1622 38.1172 24.7976 38.1172C24.5503 38.1172 24.3302 38.1719 24.1375 38.2812C23.9474 38.388 23.7976 38.543 23.6883 38.7461C23.5815 38.9492 23.5281 39.1953 23.5281 39.4844ZM31.4053 37V38.0937H27.9561V37H31.4053ZM28.8076 35.5625H30.2217V41.1953C30.2217 41.3854 30.2503 41.5313 30.3076 41.6328C30.3675 41.7318 30.4456 41.7995 30.542 41.8359C30.6383 41.8724 30.7451 41.8906 30.8623 41.8906C30.9508 41.8906 31.0316 41.8841 31.1045 41.8711C31.18 41.8581 31.2373 41.8464 31.2764 41.8359L31.5146 42.9414C31.4391 42.9674 31.3311 42.9961 31.1904 43.0273C31.0524 43.0586 30.8831 43.0768 30.6826 43.082C30.3285 43.0924 30.0094 43.0391 29.7256 42.9219C29.4417 42.8021 29.2165 42.6172 29.0498 42.3672C28.8857 42.1172 28.805 41.8047 28.8076 41.4297V35.5625ZM34.7717 43.1172C34.1701 43.1172 33.6506 42.9922 33.2131 42.7422C32.7782 42.4896 32.4436 42.1328 32.2092 41.6719C31.9748 41.2083 31.8576 40.6628 31.8576 40.0352C31.8576 39.418 31.9748 38.8763 32.2092 38.4102C32.4462 37.9414 32.7769 37.5768 33.2014 37.3164C33.6259 37.0534 34.1246 36.9219 34.6975 36.9219C35.0673 36.9219 35.4162 36.9818 35.7443 37.1016C36.0751 37.2187 36.3667 37.401 36.6193 37.6484C36.8746 37.8958 37.0751 38.2109 37.2209 38.5937C37.3667 38.974 37.4397 39.4271 37.4397 39.9531V40.3867H32.5217V39.4336H36.0842C36.0816 39.1628 36.023 38.9219 35.9084 38.7109C35.7938 38.4974 35.6337 38.3294 35.4279 38.207C35.2248 38.0846 34.9878 38.0234 34.717 38.0234C34.4279 38.0234 34.174 38.0937 33.9553 38.2344C33.7365 38.3724 33.566 38.5547 33.4436 38.7812C33.3238 39.0052 33.2626 39.2513 33.26 39.5195V40.3516C33.26 40.7005 33.3238 41 33.4514 41.25C33.579 41.4974 33.7574 41.6875 33.9865 41.8203C34.2157 41.9505 34.4839 42.0156 34.7912 42.0156C34.9969 42.0156 35.1831 41.987 35.3498 41.9297C35.5165 41.8698 35.661 41.7826 35.7834 41.668C35.9058 41.5534 35.9982 41.4115 36.0607 41.2422L37.3811 41.3906C37.2977 41.7396 37.1389 42.0443 36.9045 42.3047C36.6727 42.5625 36.3759 42.763 36.0139 42.9062C35.6519 43.0469 35.2378 43.1172 34.7717 43.1172ZM38.2279 43V37H39.599V38H39.6615C39.7709 37.6536 39.9584 37.3867 40.224 37.1992C40.4923 37.0091 40.7983 36.9141 41.142 36.9141C41.2201 36.9141 41.3074 36.918 41.4037 36.9258C41.5027 36.931 41.5847 36.9401 41.6498 36.9531V38.2539C41.5899 38.2331 41.4949 38.2148 41.3647 38.1992C41.2371 38.181 41.1134 38.1719 40.9936 38.1719C40.7358 38.1719 40.504 38.2279 40.2983 38.3398C40.0951 38.4492 39.935 38.6016 39.8178 38.7969C39.7006 38.9922 39.642 39.2174 39.642 39.4727V43H38.2279ZM46.9235 38.5859L45.6344 38.7266C45.5979 38.5964 45.5341 38.474 45.443 38.3594C45.3545 38.2448 45.2347 38.1523 45.0836 38.082C44.9326 38.0117 44.7477 37.9766 44.5289 37.9766C44.2347 37.9766 43.9873 38.0404 43.7867 38.168C43.5888 38.2956 43.4912 38.4609 43.4938 38.6641C43.4912 38.8385 43.555 38.9805 43.6852 39.0898C43.818 39.1992 44.0367 39.2891 44.3414 39.3594L45.3649 39.5781C45.9326 39.7005 46.3545 39.8945 46.6305 40.1602C46.9091 40.4258 47.0498 40.7734 47.0524 41.2031C47.0498 41.5807 46.9391 41.9141 46.7203 42.2031C46.5042 42.4896 46.2034 42.7135 45.818 42.875C45.4326 43.0365 44.9899 43.1172 44.4899 43.1172C43.7555 43.1172 43.1643 42.9635 42.7164 42.6562C42.2685 42.3464 42.0016 41.9154 41.9156 41.3633L43.2946 41.2305C43.3571 41.5013 43.4899 41.7057 43.693 41.8437C43.8961 41.9818 44.1604 42.0508 44.486 42.0508C44.8219 42.0508 45.0914 41.9818 45.2946 41.8437C45.5003 41.7057 45.6031 41.5352 45.6031 41.332C45.6031 41.1602 45.5367 41.0182 45.4039 40.9062C45.2737 40.7943 45.0706 40.7083 44.7946 40.6484L43.7711 40.4336C43.1956 40.3138 42.7698 40.112 42.4938 39.8281C42.2177 39.5417 42.081 39.1797 42.0836 38.7422C42.081 38.3724 42.1813 38.0521 42.3844 37.7812C42.5901 37.5078 42.8753 37.2969 43.2399 37.1484C43.6071 36.9974 44.0302 36.9219 44.5094 36.9219C45.2125 36.9219 45.7659 37.0716 46.1696 37.3711C46.5758 37.6706 46.8271 38.0755 46.9235 38.5859Z" fill="white"/>
<path d="M34.2857 24.1H31.7143V31H27.8571V25.25H22.7143V31H18.8571V24.1H16.2857L25.2857 17.2L34.2857 24.1ZM20.1429 8L25.2857 12.6H24V16.05H21.4286V12.6H18.8571V16.05H16.2857V12.6H15L20.1429 8ZM35.5714 9.15L42 14.9H40.7143V19.5H36.8571V16.05H34.2857V19.5H32.1514L30.4286 18.2005V14.9H29.1429L35.5714 9.15Z" fill="white"/>
</svg>
