<svg width="11" height="11" viewBox="0 0 11 11" fill="none" xmlns="http://www.w3.org/2000/svg">
<path d="M6.45641 5.86373L7.57564 6.96285C7.66684 7.0524 7.71244 7.16443 7.71244 7.29893C7.71244 7.4331 7.66684 7.54904 7.57564 7.64674C7.47616 7.74444 7.3581 7.79328 7.22147 7.79328C7.08451 7.79328 6.96629 7.74444 6.8668 7.64674L5.80975 6.60869C5.69368 6.49471 5.60663 6.36851 5.54859 6.2301C5.49056 6.0917 5.46154 5.94108 5.46154 5.77825V4.31277C5.46154 4.17436 5.5093 4.05826 5.6048 3.96447C5.69998 3.87101 5.81804 3.82427 5.95898 3.82427C6.09992 3.82427 6.21814 3.87101 6.31365 3.96447C6.40883 4.05826 6.45641 4.17436 6.45641 4.31277V5.86373ZM5.95898 1.8703C6.09992 1.8703 6.21814 1.91703 6.31365 2.0105C6.40883 2.10429 6.45641 2.22039 6.45641 2.35879C6.45641 2.4972 6.40883 2.6133 6.31365 2.70709C6.21814 2.80055 6.09992 2.84729 5.95898 2.84729C5.81804 2.84729 5.69998 2.80055 5.6048 2.70709C5.5093 2.6133 5.46154 2.4972 5.46154 2.35879C5.46154 2.22039 5.5093 2.10429 5.6048 2.0105C5.69998 1.91703 5.81804 1.8703 5.95898 1.8703ZM9.93847 5.77825C9.93847 5.91665 9.89071 6.03259 9.7952 6.12606C9.70003 6.21985 9.58197 6.26674 9.44103 6.26674C9.30009 6.26674 9.18203 6.21985 9.08685 6.12606C8.99135 6.03259 8.94359 5.91665 8.94359 5.77825C8.94359 5.63984 8.99135 5.52374 9.08685 5.42995C9.18203 5.33649 9.30009 5.28975 9.44103 5.28975C9.58197 5.28975 9.70003 5.33649 9.7952 5.42995C9.89071 5.52374 9.93847 5.63984 9.93847 5.77825ZM5.95898 8.70921C6.09992 8.70921 6.21814 8.75611 6.31365 8.8499C6.40883 8.94336 6.45641 9.0593 6.45641 9.1977C6.45641 9.33611 6.40883 9.45205 6.31365 9.54551C6.21814 9.6393 6.09992 9.6862 5.95898 9.6862C5.81804 9.6862 5.69998 9.6393 5.6048 9.54551C5.5093 9.45205 5.46154 9.33611 5.46154 9.1977C5.46154 9.0593 5.5093 8.94336 5.6048 8.8499C5.69998 8.75611 5.81804 8.70921 5.95898 8.70921ZM2.97436 5.77825C2.97436 5.91665 2.92677 6.03259 2.8316 6.12606C2.73609 6.21985 2.61787 6.26674 2.47693 6.26674C2.33599 6.26674 2.21776 6.21985 2.12226 6.12606C2.02708 6.03259 1.97949 5.91665 1.97949 5.77825C1.97949 5.63984 2.02708 5.52374 2.12226 5.42995C2.21776 5.33649 2.33599 5.28975 2.47693 5.28975C2.61787 5.28975 2.73609 5.33649 2.8316 5.42995C2.92677 5.52374 2.97436 5.63984 2.97436 5.77825ZM5.95898 10.6632C5.27086 10.6632 4.62419 10.5349 4.01898 10.2783C3.41376 10.022 2.88731 9.67399 2.43962 9.23434C1.99193 8.7947 1.63759 8.27771 1.3766 7.68337C1.11528 7.08904 0.984619 6.454 0.984619 5.77825C0.984619 5.1025 1.11528 4.46746 1.3766 3.87312C1.63759 3.27879 1.99193 2.7618 2.43962 2.32215C2.88731 1.88251 3.41376 1.53438 4.01898 1.27776C4.62419 1.02146 5.27086 0.893311 5.95898 0.893311C6.6471 0.893311 7.29376 1.02146 7.89898 1.27776C8.50419 1.53438 9.03065 1.88251 9.47834 2.32215C9.92603 2.7618 10.2804 3.27879 10.5414 3.87312C10.8027 4.46746 10.9333 5.1025 10.9333 5.77825C10.9333 6.454 10.8027 7.08904 10.5414 7.68337C10.2804 8.27771 9.92603 8.7947 9.47834 9.23434C9.03065 9.67399 8.50419 10.022 7.89898 10.2783C7.29376 10.5349 6.6471 10.6632 5.95898 10.6632ZM5.95898 9.6862C7.06992 9.6862 8.0109 9.30762 8.78193 8.55045C9.55295 7.79328 9.93847 6.86922 9.93847 5.77825C9.93847 4.68728 9.55295 3.76321 8.78193 3.00605C8.0109 2.24888 7.06992 1.8703 5.95898 1.8703C4.84804 1.8703 3.90705 2.24888 3.13603 3.00605C2.365 3.76321 1.97949 4.68728 1.97949 5.77825C1.97949 6.86922 2.365 7.79328 3.13603 8.55045C3.90705 9.30762 4.84804 9.6862 5.95898 9.6862Z" fill="#949191"/>
</svg>
