<svg width="415" height="77" viewBox="0 0 414 77" fill="none" xmlns="http://www.w3.org/2000/svg">
<g filter="url(#filter0_d_50_458)">
<ellipse cx="207.5" cy="144.5" rx="463.5" ry="141.5" fill="#181D3D"/>
<path d="M670.95 144.5C670.95 164.013 657.996 182.612 634.547 199.538C611.098 216.462 577.165 231.705 535.229 244.508C451.358 270.112 335.488 285.95 207.5 285.95C79.5115 285.95 -36.3583 270.112 -120.229 244.508C-162.165 231.705 -196.098 216.462 -219.547 199.538C-242.996 182.612 -255.95 164.013 -255.95 144.5C-255.95 124.987 -242.996 106.388 -219.547 89.4624C-196.098 72.538 -162.165 57.2946 -120.229 44.4922C-36.3583 18.8876 79.5115 3.05 207.5 3.05C335.488 3.05 451.358 18.8876 535.229 44.4922C577.165 57.2946 611.098 72.538 634.547 89.4624C657.996 106.388 670.95 124.987 670.95 144.5Z" stroke="black" stroke-width="0.1"/>
</g>
<defs>
<filter id="filter0_d_50_458" x="-259" y="0" width="933.6" height="289.6" filterUnits="userSpaceOnUse" color-interpolation-filters="sRGB">
<feFlood flood-opacity="0" result="BackgroundImageFix"/>
<feColorMatrix in="SourceAlpha" type="matrix" values="0 0 0 0 0 0 0 0 0 0 0 0 0 0 0 0 0 0 127 0" result="hardAlpha"/>
<feMorphology radius="0.3" operator="dilate" in="SourceAlpha" result="effect1_dropShadow_50_458"/>
<feOffset dx="0.3" dy="0.3"/>
<feGaussianBlur stdDeviation="1.5"/>
<feComposite in2="hardAlpha" operator="out"/>
<feColorMatrix type="matrix" values="0 0 0 0 0 0 0 0 0 0 0 0 0 0 0 0 0 0 0.25 0"/>
<feBlend mode="normal" in2="BackgroundImageFix" result="effect1_dropShadow_50_458"/>
<feBlend mode="normal" in="SourceGraphic" in2="effect1_dropShadow_50_458" result="shape"/>
</filter>
</defs>
</svg>
