<svg width="55" height="51" viewBox="0 0 55 51" fill="none" xmlns="http://www.w3.org/2000/svg">
<rect x="2" y="1" width="52" height="49" rx="5" fill="#EB506C" stroke="#F5F5F5" stroke-width="2"/>
<path d="M10.7246 43V35H15.9277V36.2148H12.1738V38.3867H15.6582V39.6016H12.1738V41.7852H15.959V43H10.7246ZM22.2951 37L20.1584 43H18.5959L16.4592 37H17.967L19.3459 41.457H19.4084L20.7912 37H22.2951ZM25.3178 43.1172C24.7162 43.1172 24.1967 42.9922 23.7592 42.7422C23.3243 42.4896 22.9896 42.1328 22.7553 41.6719C22.5209 41.2083 22.4037 40.6628 22.4037 40.0352C22.4037 39.418 22.5209 38.8763 22.7553 38.4102C22.9922 37.9414 23.323 37.5768 23.7475 37.3164C24.1719 37.0534 24.6706 36.9219 25.2436 36.9219C25.6133 36.9219 25.9623 36.9818 26.2904 37.1016C26.6212 37.2187 26.9128 37.401 27.1654 37.6484C27.4206 37.8958 27.6212 38.2109 27.767 38.5937C27.9128 38.974 27.9857 39.4271 27.9857 39.9531V40.3867H23.0678V39.4336H26.6303C26.6277 39.1628 26.5691 38.9219 26.4545 38.7109C26.3399 38.4974 26.1797 38.3294 25.974 38.207C25.7709 38.0846 25.5339 38.0234 25.2631 38.0234C24.974 38.0234 24.7201 38.0937 24.5014 38.2344C24.2826 38.3724 24.112 38.5547 23.9896 38.7812C23.8699 39.0052 23.8087 39.2513 23.8061 39.5195V40.3516C23.8061 40.7005 23.8699 41 23.9975 41.25C24.1251 41.4974 24.3034 41.6875 24.5326 41.8203C24.7618 41.9505 25.03 42.0156 25.3373 42.0156C25.543 42.0156 25.7292 41.987 25.8959 41.9297C26.0626 41.8698 26.2071 41.7826 26.3295 41.668C26.4519 41.5534 26.5443 41.4115 26.6068 41.2422L27.9271 41.3906C27.8438 41.7396 27.685 42.0443 27.4506 42.3047C27.2188 42.5625 26.9219 42.763 26.56 42.9062C26.198 43.0469 25.7839 43.1172 25.3178 43.1172ZM30.1881 39.4844V43H28.774V37H30.1256V38.0195H30.1959C30.3339 37.6836 30.554 37.4167 30.8561 37.2187C31.1607 37.0208 31.537 36.9219 31.985 36.9219C32.399 36.9219 32.7597 37.0104 33.067 37.1875C33.3769 37.3646 33.6165 37.6211 33.7857 37.957C33.9576 38.293 34.0423 38.7005 34.0397 39.1797V43H32.6256V39.3984C32.6256 38.9974 32.5214 38.6836 32.3131 38.457C32.1074 38.2305 31.8222 38.1172 31.4576 38.1172C31.2102 38.1172 30.9902 38.1719 30.7975 38.2812C30.6074 38.388 30.4576 38.543 30.3482 38.7461C30.2415 38.9492 30.1881 39.1953 30.1881 39.4844ZM38.0652 37V38.0937H34.616V37H38.0652ZM35.4676 35.5625H36.8817V41.1953C36.8817 41.3854 36.9103 41.5313 36.9676 41.6328C37.0275 41.7318 37.1056 41.7995 37.202 41.8359C37.2983 41.8724 37.4051 41.8906 37.5223 41.8906C37.6108 41.8906 37.6915 41.8841 37.7645 41.8711C37.84 41.8581 37.8973 41.8464 37.9363 41.8359L38.1746 42.9414C38.0991 42.9674 37.991 42.9961 37.8504 43.0273C37.7124 43.0586 37.5431 43.0768 37.3426 43.082C36.9884 43.0924 36.6694 43.0391 36.3856 42.9219C36.1017 42.8021 35.8764 42.6172 35.7098 42.3672C35.5457 42.1172 35.465 41.8047 35.4676 41.4297V35.5625ZM43.4961 38.5859L42.2071 38.7266C42.1706 38.5964 42.1068 38.474 42.0156 38.3594C41.9271 38.2448 41.8073 38.1523 41.6563 38.082C41.5052 38.0117 41.3203 37.9766 41.1016 37.9766C40.8073 37.9766 40.5599 38.0404 40.3594 38.168C40.1615 38.2956 40.0638 38.4609 40.0664 38.6641C40.0638 38.8385 40.1276 38.9805 40.2578 39.0898C40.3906 39.1992 40.6094 39.2891 40.9141 39.3594L41.9375 39.5781C42.5052 39.7005 42.9271 39.8945 43.2031 40.1602C43.4818 40.4258 43.6224 40.7734 43.625 41.2031C43.6224 41.5807 43.5117 41.9141 43.293 42.2031C43.0768 42.4896 42.7761 42.7135 42.3906 42.875C42.0052 43.0365 41.5625 43.1172 41.0625 43.1172C40.3281 43.1172 39.737 42.9635 39.2891 42.6562C38.8412 42.3464 38.5742 41.9154 38.4883 41.3633L39.8672 41.2305C39.9297 41.5013 40.0625 41.7057 40.2656 41.8437C40.4688 41.9818 40.7331 42.0508 41.0586 42.0508C41.3946 42.0508 41.6641 41.9818 41.8672 41.8437C42.0729 41.7057 42.1758 41.5352 42.1758 41.332C42.1758 41.1602 42.1094 41.0182 41.9766 40.9062C41.8464 40.7943 41.6432 40.7083 41.3672 40.6484L40.3438 40.4336C39.7682 40.3138 39.3425 40.112 39.0664 39.8281C38.7904 39.5417 38.6537 39.1797 38.6563 38.7422C38.6537 38.3724 38.7539 38.0521 38.9571 37.7812C39.1628 37.5078 39.4479 37.2969 39.8125 37.1484C40.1797 36.9974 40.6029 36.9219 41.0821 36.9219C41.7852 36.9219 42.3386 37.0716 42.7422 37.3711C43.1485 37.6706 43.3998 38.0755 43.4961 38.5859Z" fill="white"/>
<path d="M39 14.7153C37.3207 14.623 35.6547 15.0593 34.2364 15.9629C33.8934 15.5724 33.5409 15.182 33.1694 14.8106L32.8931 14.5534L33.0265 14.4392C33.4924 14.0394 33.8244 13.5064 33.9777 12.9121C34.1311 12.3178 34.0983 11.6907 33.8839 11.1156C33.5742 10.4663 33.0825 9.92086 32.4686 9.54556C31.8547 9.17026 31.1449 8.98124 30.4256 9.00147V10.9061C30.7645 10.9014 31.0986 10.9871 31.3934 11.1545C31.6881 11.3219 31.9329 11.5649 32.1023 11.8584C32.2643 12.2393 32.1023 12.6583 31.6546 13.1059L31.4354 13.3059C30.4417 12.4782 29.3507 11.7747 28.1867 11.2108C25.7763 10.1252 24.5378 10.6299 23.928 11.2108C23.7423 11.397 23.5935 11.6167 23.4898 11.8584L23.3183 12.3631L21.9464 16.4962C23.0325 19.2007 25.662 24.0099 31.3783 26.0859L36.1419 24.5051C36.3025 24.4453 36.444 24.3433 36.5515 24.2099L36.7516 24.0385C38.114 22.6671 37.2375 20.0292 35.4083 17.4675C36.4944 16.8339 37.745 16.5388 39 16.62V14.7153ZM35.3892 22.6862H35.332C34.6747 23.0385 31.9499 22.1434 28.8631 19.0579C28.5392 18.7341 28.2343 18.4198 27.958 18.1056C27.8628 18.0008 27.777 17.8865 27.6817 17.7723L27.1768 17.1628L26.91 16.7914C26.7767 16.6104 26.6433 16.4295 26.529 16.2581C26.4146 16.0867 26.3765 16.0105 26.3003 15.8867C26.2241 15.7629 26.0907 15.5629 26.005 15.401C25.9192 15.2391 25.8811 15.1724 25.8239 15.0486C25.7668 14.9248 25.662 14.782 25.6048 14.6487C25.5477 14.5153 25.5191 14.4296 25.4714 14.3249C25.4238 14.2201 25.3666 14.0678 25.3285 13.944C25.2904 13.8202 25.2809 13.763 25.2618 13.6678C25.2428 13.5726 25.2047 13.4392 25.1856 13.344C25.1811 13.2679 25.1811 13.1916 25.1856 13.1155C25.1763 13.0332 25.1763 12.9501 25.1856 12.8679L25.2904 12.5726C25.4524 12.4012 26.1574 12.3536 27.415 12.925C28.2554 13.3286 29.0506 13.8202 29.7872 14.3915C29.3857 14.5687 28.9575 14.6781 28.5201 14.7153V16.62C29.5323 16.5626 30.5143 16.255 31.3783 15.7248L31.8451 16.1628C32.2643 16.5723 32.6359 16.9818 32.9788 17.3723C32.4044 18.3514 32.1762 19.4952 32.331 20.6197L34.2364 20.2483C34.172 19.8892 34.172 19.5216 34.2364 19.1626C35.4654 21.0387 35.6941 22.391 35.3892 22.6862ZM21.2795 18.5246L19.1549 24.9051C19.0016 25.3735 18.9613 25.8716 19.0374 26.3586C19.1136 26.8455 19.3039 27.3076 19.5929 27.707C19.8818 28.1063 20.2612 28.4317 20.7001 28.6564C21.139 28.8812 21.6248 28.9989 22.1179 29C22.442 28.9968 22.7636 28.9422 23.0706 28.8381L29.2823 26.7716C25.7764 24.9819 22.9623 22.0819 21.2795 18.5246Z" fill="white"/>
</svg>
