<svg width="54" height="51" viewBox="0 0 54 51" fill="none" xmlns="http://www.w3.org/2000/svg">
<rect width="54" height="51" rx="6" fill="#19BF97"/>
<path d="M11.7935 42V34H16.9185V35.2148H13.2428V37.3867H16.567V38.6016H13.2428V42H11.7935ZM19.9451 42.1172C19.3592 42.1172 18.8514 41.9883 18.4217 41.7305C17.992 41.4727 17.6587 41.112 17.4217 40.6484C17.1873 40.1849 17.0701 39.6432 17.0701 39.0234C17.0701 38.4036 17.1873 37.8607 17.4217 37.3945C17.6587 36.9284 17.992 36.5664 18.4217 36.3086C18.8514 36.0508 19.3592 35.9219 19.9451 35.9219C20.531 35.9219 21.0389 36.0508 21.4685 36.3086C21.8982 36.5664 22.2303 36.9284 22.4646 37.3945C22.7016 37.8607 22.8201 38.4036 22.8201 39.0234C22.8201 39.6432 22.7016 40.1849 22.4646 40.6484C22.2303 41.112 21.8982 41.4727 21.4685 41.7305C21.0389 41.9883 20.531 42.1172 19.9451 42.1172ZM19.9529 40.9844C20.2706 40.9844 20.5363 40.8971 20.7498 40.7227C20.9633 40.5456 21.1222 40.3086 21.2264 40.0117C21.3331 39.7148 21.3865 39.3841 21.3865 39.0195C21.3865 38.6523 21.3331 38.3203 21.2264 38.0234C21.1222 37.724 20.9633 37.4857 20.7498 37.3086C20.5363 37.1315 20.2706 37.043 19.9529 37.043C19.6274 37.043 19.3566 37.1315 19.1404 37.3086C18.9269 37.4857 18.7667 37.724 18.66 38.0234C18.5558 38.3203 18.5037 38.6523 18.5037 39.0195C18.5037 39.3841 18.5558 39.7148 18.66 40.0117C18.7667 40.3086 18.9269 40.5456 19.1404 40.7227C19.3566 40.8971 19.6274 40.9844 19.9529 40.9844ZM23.6123 42V36H24.9834V37H25.0459C25.1553 36.6536 25.3428 36.3867 25.6084 36.1992C25.8766 36.0091 26.1826 35.9141 26.5264 35.9141C26.6045 35.9141 26.6917 35.918 26.7881 35.9258C26.887 35.931 26.9691 35.9401 27.0342 35.9531V37.2539C26.9743 37.2331 26.8792 37.2148 26.749 37.1992C26.6214 37.181 26.4977 37.1719 26.3779 37.1719C26.1201 37.1719 25.8883 37.2279 25.6826 37.3398C25.4795 37.4492 25.3193 37.6016 25.2021 37.7969C25.085 37.9922 25.0264 38.2174 25.0264 38.4727V42H23.6123ZM31.3899 39.4766V36H32.8039V42H31.4328V40.9336H31.3703C31.2349 41.2695 31.0122 41.5443 30.7024 41.7578C30.3951 41.9714 30.0162 42.0781 29.5656 42.0781C29.1724 42.0781 28.8247 41.9909 28.5227 41.8164C28.2232 41.6393 27.9888 41.3828 27.8195 41.0469C27.6503 40.7083 27.5656 40.2995 27.5656 39.8203V36H28.9797V39.6016C28.9797 39.9818 29.0839 40.2839 29.2922 40.5078C29.5005 40.7318 29.774 40.8437 30.1125 40.8437C30.3208 40.8437 30.5227 40.793 30.718 40.6914C30.9133 40.5898 31.0734 40.4388 31.1984 40.2383C31.326 40.0352 31.3899 39.7812 31.3899 39.4766ZM33.85 42V36H35.2016V37.0195H35.2719C35.3969 36.6758 35.6039 36.4076 35.893 36.2148C36.182 36.0195 36.5271 35.9219 36.9281 35.9219C37.3344 35.9219 37.6768 36.0208 37.9555 36.2187C38.2367 36.4141 38.4346 36.681 38.5492 37.0195H38.6117C38.7445 36.6862 38.9685 36.4206 39.2836 36.2227C39.6013 36.0221 39.9776 35.9219 40.4125 35.9219C40.9646 35.9219 41.4151 36.0964 41.7641 36.4453C42.113 36.7943 42.2875 37.3034 42.2875 37.9727V42H40.8695V38.1914C40.8695 37.819 40.7706 37.5469 40.5727 37.375C40.3748 37.2005 40.1326 37.1133 39.8461 37.1133C39.505 37.1133 39.238 37.2201 39.0453 37.4336C38.8552 37.6445 38.7602 37.9193 38.7602 38.2578V42H37.3735V38.1328C37.3735 37.8229 37.2797 37.5755 37.0922 37.3906C36.9073 37.2057 36.6651 37.1133 36.3656 37.1133C36.1625 37.1133 35.9776 37.1654 35.811 37.2695C35.6443 37.3711 35.5115 37.5156 35.4125 37.7031C35.3136 37.888 35.2641 38.1042 35.2641 38.3516V42H33.85Z" fill="white"/>
<path d="M12 15.6314C12 10.8631 15.4937 7 19.8043 7H25.8959C30.2073 7 33.7002 10.864 33.7002 15.6314C33.7002 20.3971 30.2065 24.262 25.8959 24.262H21.3001V28.4286C21.3001 28.4286 12 26.3457 12 15.6314Z" fill="white"/>
<path d="M27.8711 25.7432C29.0327 26.9796 30.5827 27.6691 32.1949 27.6666H34.4765V31C34.4765 31 43.0016 29.3337 43.0016 20.7623C43.0016 18.9311 42.3439 17.1749 41.1732 15.88C40.0025 14.585 38.4146 13.8574 36.7589 13.8572H35.0461C35.1802 14.4195 35.2515 15.01 35.2515 15.6195C35.2515 20.5857 32.0895 24.736 27.8711 25.7432Z" fill="white"/>
</svg>
