<svg width="54" height="51" viewBox="0 0 54 51" fill="none" xmlns="http://www.w3.org/2000/svg">
<rect x="1" y="1" width="52" height="49" rx="5" fill="#19BF97" stroke="white" stroke-width="2"/>
<path d="M8.97898 42V34H14.104V35.2148H10.4282V37.3867H13.7524V38.6016H10.4282V42H8.97898ZM17.1306 42.1172C16.5446 42.1172 16.0368 41.9883 15.6071 41.7305C15.1774 41.4727 14.8441 41.112 14.6071 40.6484C14.3727 40.1849 14.2556 39.6432 14.2556 39.0234C14.2556 38.4036 14.3727 37.8607 14.6071 37.3945C14.8441 36.9284 15.1774 36.5664 15.6071 36.3086C16.0368 36.0508 16.5446 35.9219 17.1306 35.9219C17.7165 35.9219 18.2243 36.0508 18.654 36.3086C19.0837 36.5664 19.4157 36.9284 19.6501 37.3945C19.8871 37.8607 20.0056 38.4036 20.0056 39.0234C20.0056 39.6432 19.8871 40.1849 19.6501 40.6484C19.4157 41.112 19.0837 41.4727 18.654 41.7305C18.2243 41.9883 17.7165 42.1172 17.1306 42.1172ZM17.1384 40.9844C17.4561 40.9844 17.7217 40.8971 17.9352 40.7227C18.1488 40.5456 18.3076 40.3086 18.4118 40.0117C18.5186 39.7148 18.572 39.3841 18.572 39.0195C18.572 38.6523 18.5186 38.3203 18.4118 38.0234C18.3076 37.724 18.1488 37.4857 17.9352 37.3086C17.7217 37.1315 17.4561 37.043 17.1384 37.043C16.8128 37.043 16.542 37.1315 16.3259 37.3086C16.1123 37.4857 15.9522 37.724 15.8454 38.0234C15.7412 38.3203 15.6891 38.6523 15.6891 39.0195C15.6891 39.3841 15.7412 39.7148 15.8454 40.0117C15.9522 40.3086 16.1123 40.5456 16.3259 40.7227C16.542 40.8971 16.8128 40.9844 17.1384 40.9844ZM20.7978 42V36H22.1688V37H22.2313C22.3407 36.6536 22.5282 36.3867 22.7938 36.1992C23.0621 36.0091 23.3681 35.9141 23.7118 35.9141C23.7899 35.9141 23.8772 35.918 23.9735 35.9258C24.0725 35.931 24.1545 35.9401 24.2196 35.9531V37.2539C24.1597 37.2331 24.0647 37.2148 23.9345 37.1992C23.8069 37.181 23.6832 37.1719 23.5634 37.1719C23.3056 37.1719 23.0738 37.2279 22.8681 37.3398C22.6649 37.4492 22.5048 37.6016 22.3876 37.7969C22.2704 37.9922 22.2118 38.2174 22.2118 38.4727V42H20.7978ZM28.5753 39.4766V36H29.9894V42H28.6183V40.9336H28.5558C28.4204 41.2695 28.1977 41.5443 27.8878 41.7578C27.5805 41.9714 27.2016 42.0781 26.7511 42.0781C26.3579 42.0781 26.0102 41.9909 25.7081 41.8164C25.4086 41.6393 25.1743 41.3828 25.005 41.0469C24.8357 40.7083 24.7511 40.2995 24.7511 39.8203V36H26.1651V39.6016C26.1651 39.9818 26.2693 40.2839 26.4776 40.5078C26.686 40.7318 26.9594 40.8437 27.298 40.8437C27.5063 40.8437 27.7081 40.793 27.9034 40.6914C28.0987 40.5898 28.2589 40.4388 28.3839 40.2383C28.5115 40.0352 28.5753 39.7812 28.5753 39.4766ZM31.0355 42V36H32.387V37.0195H32.4573C32.5823 36.6758 32.7894 36.4076 33.0784 36.2148C33.3675 36.0195 33.7125 35.9219 34.1136 35.9219C34.5198 35.9219 34.8623 36.0208 35.1409 36.2187C35.4222 36.4141 35.6201 36.681 35.7347 37.0195H35.7972C35.93 36.6862 36.154 36.4206 36.4691 36.2227C36.7868 36.0221 37.1631 35.9219 37.598 35.9219C38.15 35.9219 38.6006 36.0964 38.9495 36.4453C39.2985 36.7943 39.473 37.3034 39.473 37.9727V42H38.055V38.1914C38.055 37.819 37.956 37.5469 37.7581 37.375C37.5602 37.2005 37.318 37.1133 37.0316 37.1133C36.6904 37.1133 36.4235 37.2201 36.2308 37.4336C36.0407 37.6445 35.9456 37.9193 35.9456 38.2578V42H34.5589V38.1328C34.5589 37.8229 34.4651 37.5755 34.2776 37.3906C34.0928 37.2057 33.8506 37.1133 33.5511 37.1133C33.348 37.1133 33.1631 37.1654 32.9964 37.2695C32.8297 37.3711 32.6969 37.5156 32.598 37.7031C32.499 37.888 32.4495 38.1042 32.4495 38.3516V42H31.0355ZM45.2417 37.5859L43.9527 37.7266C43.9162 37.5964 43.8524 37.474 43.7612 37.3594C43.6727 37.2448 43.5529 37.1523 43.4019 37.082C43.2508 37.0117 43.0659 36.9766 42.8472 36.9766C42.5529 36.9766 42.3055 37.0404 42.105 37.168C41.9071 37.2956 41.8094 37.4609 41.812 37.6641C41.8094 37.8385 41.8732 37.9805 42.0034 38.0898C42.1362 38.1992 42.355 38.2891 42.6597 38.3594L43.6831 38.5781C44.2508 38.7005 44.6727 38.8945 44.9487 39.1602C45.2274 39.4258 45.368 39.7734 45.3706 40.2031C45.368 40.5807 45.2573 40.9141 45.0386 41.2031C44.8224 41.4896 44.5217 41.7135 44.1362 41.875C43.7508 42.0365 43.3081 42.1172 42.8081 42.1172C42.0737 42.1172 41.4826 41.9635 41.0347 41.6562C40.5868 41.3464 40.3198 40.9154 40.2339 40.3633L41.6128 40.2305C41.6753 40.5013 41.8081 40.7057 42.0112 40.8437C42.2144 40.9818 42.4787 41.0508 42.8042 41.0508C43.1402 41.0508 43.4097 40.9818 43.6128 40.8437C43.8185 40.7057 43.9214 40.5352 43.9214 40.332C43.9214 40.1602 43.855 40.0182 43.7222 39.9062C43.592 39.7943 43.3889 39.7083 43.1128 39.6484L42.0894 39.4336C41.5139 39.3138 41.0881 39.112 40.812 38.8281C40.536 38.5417 40.3993 38.1797 40.4019 37.7422C40.3993 37.3724 40.4995 37.0521 40.7027 36.7812C40.9084 36.5078 41.1935 36.2969 41.5581 36.1484C41.9253 35.9974 42.3485 35.9219 42.8277 35.9219C43.5308 35.9219 44.0842 36.0716 44.4878 36.3711C44.8941 36.6706 45.1454 37.0755 45.2417 37.5859Z" fill="white"/>
<path d="M12 15.6314C12 10.8631 15.4937 7 19.8043 7H25.8959C30.2073 7 33.7002 10.864 33.7002 15.6314C33.7002 20.3971 30.2065 24.262 25.8959 24.262H21.3001V28.4286C21.3001 28.4286 12 26.3457 12 15.6314Z" fill="white"/>
<path d="M27.8711 25.7432C29.0327 26.9796 30.5827 27.6691 32.1949 27.6666H34.4765V31C34.4765 31 43.0016 29.3337 43.0016 20.7623C43.0016 18.9311 42.3439 17.1749 41.1732 15.88C40.0025 14.585 38.4146 13.8574 36.7589 13.8572H35.0461C35.1802 14.4195 35.2515 15.01 35.2515 15.6195C35.2515 20.5857 32.0895 24.736 27.8711 25.7432Z" fill="white"/>
</svg>
