<svg width="54" height="51" viewBox="0 0 54 51" fill="none" xmlns="http://www.w3.org/2000/svg">
<rect width="54" height="51" rx="6" fill="#19BF97"/>
<path d="M12.7935 43V35H17.9185V36.2148H14.2428V38.3867H17.567V39.6016H14.2428V43H12.7935ZM20.9451 43.1172C20.3592 43.1172 19.8514 42.9883 19.4217 42.7305C18.992 42.4727 18.6587 42.112 18.4217 41.6484C18.1873 41.1849 18.0701 40.6432 18.0701 40.0234C18.0701 39.4036 18.1873 38.8607 18.4217 38.3945C18.6587 37.9284 18.992 37.5664 19.4217 37.3086C19.8514 37.0508 20.3592 36.9219 20.9451 36.9219C21.531 36.9219 22.0389 37.0508 22.4685 37.3086C22.8982 37.5664 23.2303 37.9284 23.4646 38.3945C23.7016 38.8607 23.8201 39.4036 23.8201 40.0234C23.8201 40.6432 23.7016 41.1849 23.4646 41.6484C23.2303 42.112 22.8982 42.4727 22.4685 42.7305C22.0389 42.9883 21.531 43.1172 20.9451 43.1172ZM20.9529 41.9844C21.2706 41.9844 21.5363 41.8971 21.7498 41.7227C21.9633 41.5456 22.1222 41.3086 22.2264 41.0117C22.3331 40.7148 22.3865 40.3841 22.3865 40.0195C22.3865 39.6523 22.3331 39.3203 22.2264 39.0234C22.1222 38.724 21.9633 38.4857 21.7498 38.3086C21.5363 38.1315 21.2706 38.043 20.9529 38.043C20.6274 38.043 20.3566 38.1315 20.1404 38.3086C19.9269 38.4857 19.7667 38.724 19.66 39.0234C19.5558 39.3203 19.5037 39.6523 19.5037 40.0195C19.5037 40.3841 19.5558 40.7148 19.66 41.0117C19.7667 41.3086 19.9269 41.5456 20.1404 41.7227C20.3566 41.8971 20.6274 41.9844 20.9529 41.9844ZM24.6123 43V37H25.9834V38H26.0459C26.1553 37.6536 26.3428 37.3867 26.6084 37.1992C26.8766 37.0091 27.1826 36.9141 27.5264 36.9141C27.6045 36.9141 27.6917 36.918 27.7881 36.9258C27.887 36.931 27.9691 36.9401 28.0342 36.9531V38.2539C27.9743 38.2331 27.8792 38.2148 27.749 38.1992C27.6214 38.181 27.4977 38.1719 27.3779 38.1719C27.1201 38.1719 26.8883 38.2279 26.6826 38.3398C26.4795 38.4492 26.3193 38.6016 26.2021 38.7969C26.085 38.9922 26.0264 39.2174 26.0264 39.4727V43H24.6123ZM32.3899 40.4766V37H33.8039V43H32.4328V41.9336H32.3703C32.2349 42.2695 32.0122 42.5443 31.7024 42.7578C31.3951 42.9714 31.0162 43.0781 30.5656 43.0781C30.1724 43.0781 29.8247 42.9909 29.5227 42.8164C29.2232 42.6393 28.9888 42.3828 28.8195 42.0469C28.6503 41.7083 28.5656 41.2995 28.5656 40.8203V37H29.9797V40.6016C29.9797 40.9818 30.0839 41.2839 30.2922 41.5078C30.5005 41.7318 30.774 41.8437 31.1125 41.8437C31.3208 41.8437 31.5227 41.793 31.718 41.6914C31.9133 41.5898 32.0734 41.4388 32.1984 41.2383C32.326 41.0352 32.3899 40.7812 32.3899 40.4766ZM34.85 43V37H36.2016V38.0195H36.2719C36.3969 37.6758 36.6039 37.4076 36.893 37.2148C37.182 37.0195 37.5271 36.9219 37.9281 36.9219C38.3344 36.9219 38.6768 37.0208 38.9555 37.2187C39.2367 37.4141 39.4346 37.681 39.5492 38.0195H39.6117C39.7445 37.6862 39.9685 37.4206 40.2836 37.2227C40.6013 37.0221 40.9776 36.9219 41.4125 36.9219C41.9646 36.9219 42.4151 37.0964 42.7641 37.4453C43.113 37.7943 43.2875 38.3034 43.2875 38.9727V43H41.8695V39.1914C41.8695 38.819 41.7706 38.5469 41.5727 38.375C41.3748 38.2005 41.1326 38.1133 40.8461 38.1133C40.505 38.1133 40.238 38.2201 40.0453 38.4336C39.8552 38.6445 39.7602 38.9193 39.7602 39.2578V43H38.3735V39.1328C38.3735 38.8229 38.2797 38.5755 38.0922 38.3906C37.9073 38.2057 37.6651 38.1133 37.3656 38.1133C37.1625 38.1133 36.9776 38.1654 36.811 38.2695C36.6443 38.3711 36.5115 38.5156 36.4125 38.7031C36.3136 38.888 36.2641 39.1042 36.2641 39.3516V43H34.85Z" fill="white"/>
<path d="M12 15.6314C12 10.8631 15.4937 7 19.8043 7H25.8959C30.2073 7 33.7002 10.864 33.7002 15.6314C33.7002 20.3971 30.2065 24.262 25.8959 24.262H21.3001V28.4286C21.3001 28.4286 12 26.3457 12 15.6314Z" fill="white"/>
<path d="M27.8711 25.7432C29.0327 26.9796 30.5827 27.6691 32.1949 27.6666H34.4765V31C34.4765 31 43.0016 29.3337 43.0016 20.7623C43.0016 18.9311 42.3439 17.1749 41.1732 15.88C40.0025 14.585 38.4146 13.8574 36.7589 13.8572H35.0461C35.1802 14.4195 35.2515 15.01 35.2515 15.6195C35.2515 20.5857 32.0895 24.736 27.8711 25.7432Z" fill="white"/>
</svg>
