<svg width="20" height="20" viewBox="0 0 20 20" fill="none" xmlns="http://www.w3.org/2000/svg">
<path d="M10.0013 1.66675C5.4013 1.66675 1.66797 5.40008 1.66797 10.0001C1.66797 14.6001 5.4013 18.3334 10.0013 18.3334C14.6013 18.3334 18.3346 14.6001 18.3346 10.0001C18.3346 5.40008 14.6013 1.66675 10.0013 1.66675ZM10.0013 16.6667C6.3263 16.6667 3.33464 13.6751 3.33464 10.0001C3.33464 6.32508 6.3263 3.33341 10.0013 3.33341C13.6763 3.33341 16.668 6.32508 16.668 10.0001C16.668 13.6751 13.6763 16.6667 10.0013 16.6667ZM13.2346 6.90841L8.33464 11.8084L6.76797 10.2417C6.61215 10.0859 6.40082 9.9984 6.18047 9.9984C5.96011 9.9984 5.74878 10.0859 5.59297 10.2417C5.43715 10.3976 5.34962 10.6089 5.34962 10.8292C5.34962 11.0496 5.43715 11.2609 5.59297 11.4167L7.7513 13.5751C8.0763 13.9001 8.6013 13.9001 8.9263 13.5751L14.418 8.08342C14.4952 8.00632 14.5565 7.91475 14.5983 7.81394C14.6401 7.71312 14.6617 7.60506 14.6617 7.49591C14.6617 7.38677 14.6401 7.27871 14.5983 7.17789C14.5565 7.07708 14.4952 6.98551 14.418 6.90841C14.093 6.58342 13.5596 6.58342 13.2346 6.90841Z" fill="white"/>
</svg>
