<svg width="71" height="25" viewBox="0 0 71 25" fill="none" xmlns="http://www.w3.org/2000/svg">
<path d="M17.267 17V7.54545H23.3238V8.98118H18.9797V11.5479H22.9083V12.9837H18.9797V17H17.267ZM26.9748 17.1385C26.2824 17.1385 25.6822 16.9862 25.1744 16.6815C24.6666 16.3768 24.2727 15.9505 23.9926 15.4027C23.7156 14.8549 23.5771 14.2147 23.5771 13.4822C23.5771 12.7498 23.7156 12.1081 23.9926 11.5572C24.2727 11.0063 24.6666 10.5785 25.1744 10.2738C25.6822 9.96911 26.2824 9.81676 26.9748 9.81676C27.6673 9.81676 28.2675 9.96911 28.7753 10.2738C29.2831 10.5785 29.6755 11.0063 29.9525 11.5572C30.2325 12.1081 30.3726 12.7498 30.3726 13.4822C30.3726 14.2147 30.2325 14.8549 29.9525 15.4027C29.6755 15.9505 29.2831 16.3768 28.7753 16.6815C28.2675 16.9862 27.6673 17.1385 26.9748 17.1385ZM26.9841 15.7997C27.3595 15.7997 27.6735 15.6966 27.9258 15.4904C28.1782 15.2811 28.3659 15.0011 28.489 14.6502C28.6152 14.2994 28.6783 13.9085 28.6783 13.4776C28.6783 13.0437 28.6152 12.6513 28.489 12.3004C28.3659 11.9465 28.1782 11.6649 27.9258 11.4556C27.6735 11.2463 27.3595 11.1417 26.9841 11.1417C26.5994 11.1417 26.2793 11.2463 26.0238 11.4556C25.7715 11.6649 25.5822 11.9465 25.456 12.3004C25.3329 12.6513 25.2714 13.0437 25.2714 13.4776C25.2714 13.9085 25.3329 14.2994 25.456 14.6502C25.5822 15.0011 25.7715 15.2811 26.0238 15.4904C26.2793 15.6966 26.5994 15.7997 26.9841 15.7997ZM33.0541 7.54545V17H31.383V7.54545H33.0541ZM36.0358 7.54545V17H34.3646V7.54545H36.0358ZM40.4393 17.1385C39.7468 17.1385 39.1467 16.9862 38.6389 16.6815C38.1311 16.3768 37.7371 15.9505 37.4571 15.4027C37.1801 14.8549 37.0416 14.2147 37.0416 13.4822C37.0416 12.7498 37.1801 12.1081 37.4571 11.5572C37.7371 11.0063 38.1311 10.5785 38.6389 10.2738C39.1467 9.96911 39.7468 9.81676 40.4393 9.81676C41.1318 9.81676 41.7319 9.96911 42.2397 10.2738C42.7476 10.5785 43.14 11.0063 43.4169 11.5572C43.697 12.1081 43.837 12.7498 43.837 13.4822C43.837 14.2147 43.697 14.8549 43.4169 15.4027C43.14 15.9505 42.7476 16.3768 42.2397 16.6815C41.7319 16.9862 41.1318 17.1385 40.4393 17.1385ZM40.4485 15.7997C40.824 15.7997 41.1379 15.6966 41.3903 15.4904C41.6427 15.2811 41.8304 15.0011 41.9535 14.6502C42.0797 14.2994 42.1428 13.9085 42.1428 13.4776C42.1428 13.0437 42.0797 12.6513 41.9535 12.3004C41.8304 11.9465 41.6427 11.6649 41.3903 11.4556C41.1379 11.2463 40.824 11.1417 40.4485 11.1417C40.0638 11.1417 39.7438 11.2463 39.4883 11.4556C39.236 11.6649 39.0467 11.9465 38.9205 12.3004C38.7974 12.6513 38.7358 13.0437 38.7358 13.4776C38.7358 13.9085 38.7974 14.2994 38.9205 14.6502C39.0467 15.0011 39.236 15.2811 39.4883 15.4904C39.7438 15.6966 40.0638 15.7997 40.4485 15.7997ZM46.1078 17L44.1042 9.90909H45.8077L47.0541 14.8949H47.1188L48.3929 9.90909H50.0779L51.3521 14.8672H51.4213L52.6493 9.90909H54.3574L52.3492 17H50.6088L49.2793 12.2081H49.1823L47.8528 17H46.1078Z" fill="white"/>
</svg>
