<svg width="54" height="51" viewBox="0 0 54 51" fill="none" xmlns="http://www.w3.org/2000/svg">
<rect x="1" y="1" width="52" height="49" rx="5" fill="#FF8C2E" stroke="#F5F5F5" stroke-width="2"/>
<path fill-rule="evenodd" clip-rule="evenodd" d="M26.6294 11.4845C26.9253 11.5586 27.1796 11.7472 27.3364 12.0088C27.4931 12.2704 27.5396 12.5836 27.4655 12.8795L26.9595 14.9H30.3405L30.9845 12.3206C31.0203 12.1731 31.0849 12.0343 31.1747 11.9119C31.2644 11.7896 31.3774 11.6862 31.5073 11.6078C31.6371 11.5293 31.7812 11.4773 31.9312 11.4548C32.0813 11.4323 32.2343 11.4397 32.3814 11.4765C32.5286 11.5134 32.667 11.579 32.7887 11.6696C32.9104 11.7602 33.013 11.874 33.0905 12.0044C33.168 12.1348 33.219 12.2792 33.2404 12.4294C33.2619 12.5796 33.2534 12.7326 33.2155 12.8795L32.7095 14.9H35.55C35.855 14.9 36.1475 15.0212 36.3632 15.2368C36.5788 15.4525 36.7 15.745 36.7 16.05C36.7 16.355 36.5788 16.6475 36.3632 16.8632C36.1475 17.0789 35.855 17.2 35.55 17.2H32.1345L30.9845 21.8H33.25C33.555 21.8 33.8475 21.9212 34.0632 22.1368C34.2788 22.3525 34.4 22.645 34.4 22.95C34.4 23.255 34.2788 23.5475 34.0632 23.7632C33.8475 23.9789 33.555 24.1 33.25 24.1H30.4095L29.7655 26.6783C29.731 26.827 29.6672 26.9674 29.5779 27.0913C29.4886 27.2151 29.3756 27.3199 29.2453 27.3996C29.1151 27.4792 28.9703 27.5322 28.8193 27.5553C28.6684 27.5784 28.5144 27.5713 28.3663 27.5342C28.2182 27.4972 28.0789 27.431 27.9566 27.3396C27.8343 27.2482 27.7315 27.1333 27.6541 27.0018C27.5766 26.8702 27.5262 26.7245 27.5057 26.5732C27.4851 26.4219 27.4949 26.268 27.5345 26.1206L28.0405 24.1H24.6595L24.0155 26.6783C23.981 26.827 23.9172 26.9674 23.8279 27.0913C23.7386 27.2151 23.6256 27.3199 23.4953 27.3996C23.3651 27.4792 23.2203 27.5322 23.0693 27.5553C22.9184 27.5784 22.7644 27.5713 22.6163 27.5342C22.4682 27.4972 22.3289 27.431 22.2066 27.3396C22.0843 27.2482 21.9815 27.1333 21.9041 27.0018C21.8266 26.8702 21.7762 26.7245 21.7557 26.5732C21.7351 26.4219 21.7449 26.268 21.7845 26.1206L22.2905 24.1H19.45C19.145 24.1 18.8525 23.9789 18.6368 23.7632C18.4211 23.5475 18.3 23.255 18.3 22.95C18.3 22.645 18.4211 22.3525 18.6368 22.1368C18.8525 21.9212 19.145 21.8 19.45 21.8H22.8655L24.0155 17.2H21.75C21.445 17.2 21.1525 17.0789 20.9368 16.8632C20.7211 16.6475 20.6 16.355 20.6 16.05C20.6 15.745 20.7211 15.4525 20.9368 15.2368C21.1525 15.0212 21.445 14.9 21.75 14.9H24.5905L25.2345 12.3206C25.3086 12.0247 25.4972 11.7704 25.7588 11.6136C26.0204 11.4569 26.3336 11.4104 26.6294 11.4845V11.4845ZM26.3845 17.2L25.2345 21.8H28.6132L29.7632 17.2H26.3856H26.3845Z" fill="white"/>
<path d="M4.37087 43V35H5.82009V38.3867H9.52712V35H10.9802V43H9.52712V39.6016H5.82009V43H4.37087ZM13.8125 43.1211C13.4323 43.1211 13.0898 43.0534 12.7851 42.918C12.4831 42.7799 12.2435 42.5768 12.0664 42.3086C11.8919 42.0404 11.8047 41.7096 11.8047 41.3164C11.8047 40.9779 11.8672 40.6979 11.9922 40.4766C12.1172 40.2552 12.2877 40.0781 12.5039 39.9453C12.72 39.8125 12.9635 39.7122 13.2344 39.6445C13.5078 39.5742 13.7903 39.5234 14.082 39.4922C14.4336 39.4557 14.7187 39.4232 14.9375 39.3945C15.1562 39.3633 15.3151 39.3164 15.414 39.2539C15.5156 39.1888 15.5664 39.0885 15.5664 38.9531V38.9297C15.5664 38.6354 15.4791 38.4076 15.3047 38.2461C15.1302 38.0846 14.8789 38.0039 14.5508 38.0039C14.2044 38.0039 13.9297 38.0794 13.7265 38.2305C13.526 38.3815 13.3906 38.5599 13.3203 38.7656L12 38.5781C12.1041 38.2135 12.276 37.9089 12.5156 37.6641C12.7552 37.4167 13.0482 37.2318 13.3945 37.1094C13.7409 36.9844 14.1237 36.9219 14.5429 36.9219C14.832 36.9219 15.1198 36.9557 15.4062 37.0234C15.6927 37.0911 15.9544 37.2031 16.1914 37.3594C16.4284 37.513 16.6185 37.7227 16.7617 37.9883C16.9075 38.2539 16.9804 38.5859 16.9804 38.9844V43H15.6211V42.1758H15.5742C15.4883 42.3424 15.3672 42.4987 15.2109 42.6445C15.0573 42.7878 14.8633 42.9036 14.6289 42.9922C14.3971 43.0781 14.125 43.1211 13.8125 43.1211ZM14.1797 42.082C14.4635 42.082 14.7096 42.026 14.9179 41.9141C15.1263 41.7995 15.2864 41.6484 15.3984 41.4609C15.513 41.2734 15.5703 41.069 15.5703 40.8477V40.1406C15.526 40.1771 15.4505 40.2109 15.3437 40.2422C15.2396 40.2734 15.1224 40.3008 14.9922 40.3242C14.862 40.3477 14.7331 40.3685 14.6054 40.3867C14.4778 40.4049 14.3672 40.4206 14.2734 40.4336C14.0625 40.4622 13.8737 40.5091 13.707 40.5742C13.5403 40.6393 13.4088 40.7305 13.3125 40.8477C13.2161 40.9622 13.1679 41.1107 13.1679 41.293C13.1679 41.5534 13.263 41.75 13.4531 41.8828C13.6432 42.0156 13.8854 42.082 14.1797 42.082ZM22.7365 38.5859L21.4474 38.7266C21.411 38.5964 21.3472 38.474 21.256 38.3594C21.1675 38.2448 21.0477 38.1523 20.8967 38.082C20.7456 38.0117 20.5607 37.9766 20.342 37.9766C20.0477 37.9766 19.8003 38.0404 19.5998 38.168C19.4019 38.2956 19.3042 38.4609 19.3068 38.6641C19.3042 38.8385 19.368 38.9805 19.4982 39.0898C19.631 39.1992 19.8498 39.2891 20.1545 39.3594L21.1779 39.5781C21.7456 39.7005 22.1675 39.8945 22.4435 40.1602C22.7222 40.4258 22.8628 40.7734 22.8654 41.2031C22.8628 41.5807 22.7521 41.9141 22.5334 42.2031C22.3172 42.4896 22.0165 42.7135 21.631 42.875C21.2456 43.0365 20.8029 43.1172 20.3029 43.1172C19.5685 43.1172 18.9774 42.9635 18.5295 42.6562C18.0816 42.3464 17.8146 41.9154 17.7287 41.3633L19.1076 41.2305C19.1701 41.5013 19.3029 41.7057 19.506 41.8437C19.7092 41.9818 19.9735 42.0508 20.299 42.0508C20.6349 42.0508 20.9045 41.9818 21.1076 41.8437C21.3133 41.7057 21.4162 41.5352 21.4162 41.332C21.4162 41.1602 21.3498 41.0182 21.217 40.9062C21.0868 40.7943 20.8836 40.7083 20.6076 40.6484L19.5842 40.4336C19.0086 40.3138 18.5829 40.112 18.3068 39.8281C18.0308 39.5417 17.8941 39.1797 17.8967 38.7422C17.8941 38.3724 17.9943 38.0521 18.1974 37.7812C18.4032 37.5078 18.6883 37.2969 19.0529 37.1484C19.4201 36.9974 19.8433 36.9219 20.3224 36.9219C21.0256 36.9219 21.579 37.0716 21.9826 37.3711C22.3889 37.6706 22.6402 38.0755 22.7365 38.5859ZM25.0375 39.4844V43H23.6234V35H25.0062V38.0195H25.0766C25.2172 37.681 25.4346 37.4141 25.7289 37.2187C26.0258 37.0208 26.4034 36.9219 26.8617 36.9219C27.2784 36.9219 27.6417 37.0091 27.9516 37.1836C28.2615 37.3581 28.501 37.6133 28.6703 37.9492C28.8422 38.2852 28.9281 38.6953 28.9281 39.1797V43H27.5141V39.3984C27.5141 38.9948 27.4099 38.681 27.2016 38.457C26.9958 38.2305 26.7068 38.1172 26.3344 38.1172C26.0844 38.1172 25.8604 38.1719 25.6625 38.2812C25.4672 38.388 25.3135 38.543 25.2016 38.7461C25.0922 38.9492 25.0375 39.1953 25.0375 39.4844ZM32.9576 37V38.0937H29.5084V37H32.9576ZM30.36 35.5625H31.774V41.1953C31.774 41.3854 31.8027 41.5313 31.86 41.6328C31.9199 41.7318 31.998 41.7995 32.0943 41.8359C32.1907 41.8724 32.2975 41.8906 32.4147 41.8906C32.5032 41.8906 32.5839 41.8841 32.6568 41.8711C32.7324 41.8581 32.7897 41.8464 32.8287 41.8359L33.067 42.9414C32.9915 42.9674 32.8834 42.9961 32.7428 43.0273C32.6048 43.0586 32.4355 43.0768 32.235 43.082C31.8808 43.0924 31.5618 43.0391 31.2779 42.9219C30.9941 42.8021 30.7688 42.6172 30.6022 42.3672C30.4381 42.1172 30.3574 41.8047 30.36 41.4297V35.5625ZM35.4588 43.1211C35.0786 43.1211 34.7361 43.0534 34.4315 42.918C34.1294 42.7799 33.8898 42.5768 33.7127 42.3086C33.5382 42.0404 33.451 41.7096 33.451 41.3164C33.451 40.9779 33.5135 40.6979 33.6385 40.4766C33.7635 40.2552 33.9341 40.0781 34.1502 39.9453C34.3664 39.8125 34.6098 39.7122 34.8807 39.6445C35.1541 39.5742 35.4367 39.5234 35.7283 39.4922C36.0799 39.4557 36.3651 39.4232 36.5838 39.3945C36.8026 39.3633 36.9614 39.3164 37.0604 39.2539C37.1619 39.1888 37.2127 39.0885 37.2127 38.9531V38.9297C37.2127 38.6354 37.1255 38.4076 36.951 38.2461C36.7765 38.0846 36.5252 38.0039 36.1971 38.0039C35.8507 38.0039 35.576 38.0794 35.3729 38.2305C35.1723 38.3815 35.0369 38.5599 34.9666 38.7656L33.6463 38.5781C33.7505 38.2135 33.9223 37.9089 34.1619 37.6641C34.4015 37.4167 34.6945 37.2318 35.0408 37.1094C35.3872 36.9844 35.77 36.9219 36.1893 36.9219C36.4783 36.9219 36.7661 36.9557 37.0526 37.0234C37.339 37.0911 37.6007 37.2031 37.8377 37.3594C38.0747 37.513 38.2648 37.7227 38.408 37.9883C38.5539 38.2539 38.6268 38.5859 38.6268 38.9844V43H37.2674V42.1758H37.2205C37.1346 42.3424 37.0135 42.4987 36.8572 42.6445C36.7036 42.7878 36.5096 42.9036 36.2752 42.9922C36.0434 43.0781 35.7713 43.1211 35.4588 43.1211ZM35.826 42.082C36.1098 42.082 36.3559 42.026 36.5643 41.9141C36.7726 41.7995 36.9328 41.6484 37.0447 41.4609C37.1593 41.2734 37.2166 41.069 37.2166 40.8477V40.1406C37.1723 40.1771 37.0968 40.2109 36.9901 40.2422C36.8859 40.2734 36.7687 40.3008 36.6385 40.3242C36.5083 40.3477 36.3794 40.3685 36.2518 40.3867C36.1242 40.4049 36.0135 40.4206 35.9197 40.4336C35.7088 40.4622 35.52 40.5091 35.3533 40.5742C35.1867 40.6393 35.0552 40.7305 34.9588 40.8477C34.8624 40.9622 34.8143 41.1107 34.8143 41.293C34.8143 41.5534 34.9093 41.75 35.0994 41.8828C35.2895 42.0156 35.5317 42.082 35.826 42.082ZM42.25 45.375C41.7422 45.375 41.306 45.306 40.9414 45.168C40.5768 45.0326 40.2839 44.8503 40.0625 44.6211C39.8412 44.3919 39.6875 44.138 39.6016 43.8594L40.875 43.5508C40.9323 43.668 41.0156 43.7839 41.125 43.8984C41.2344 44.0156 41.3815 44.112 41.5664 44.1875C41.7539 44.2656 41.9896 44.3047 42.2735 44.3047C42.6745 44.3047 43.0065 44.207 43.2696 44.0117C43.5326 43.819 43.6641 43.5013 43.6641 43.0586V41.9219H43.5938C43.5209 42.0677 43.4141 42.2174 43.2735 42.3711C43.1354 42.5247 42.9518 42.6536 42.7227 42.7578C42.4961 42.862 42.211 42.9141 41.8672 42.9141C41.4063 42.9141 40.9883 42.806 40.6133 42.5898C40.2409 42.3711 39.944 42.0456 39.7227 41.6133C39.5039 41.1784 39.3946 40.6341 39.3946 39.9805C39.3946 39.3216 39.5039 38.7656 39.7227 38.3125C39.944 37.8568 40.2422 37.5117 40.6172 37.2773C40.9922 37.0404 41.4102 36.9219 41.8711 36.9219C42.2227 36.9219 42.5117 36.9818 42.7383 37.1016C42.9675 37.2187 43.1498 37.3607 43.2852 37.5273C43.4206 37.6914 43.5235 37.8464 43.5938 37.9922H43.6719V37H45.0664V43.0977C45.0664 43.6107 44.944 44.0352 44.6992 44.3711C44.4545 44.707 44.1198 44.9583 43.6953 45.125C43.2709 45.2917 42.7891 45.375 42.25 45.375ZM42.2617 41.8047C42.5612 41.8047 42.8164 41.7318 43.0274 41.5859C43.2383 41.4401 43.3985 41.2305 43.5078 40.957C43.6172 40.6836 43.6719 40.3555 43.6719 39.9727C43.6719 39.5951 43.6172 39.2643 43.5078 38.9805C43.4011 38.6966 43.2422 38.4766 43.0313 38.3203C42.8229 38.1615 42.5664 38.082 42.2617 38.082C41.9466 38.082 41.6836 38.1641 41.4727 38.3281C41.2617 38.4922 41.1029 38.7174 40.9961 39.0039C40.8893 39.2878 40.836 39.6107 40.836 39.9727C40.836 40.3398 40.8893 40.6615 40.9961 40.9375C41.1055 41.2109 41.2656 41.4245 41.4766 41.5781C41.6901 41.7292 41.9518 41.8047 42.2617 41.8047ZM50.8498 38.5859L49.5608 38.7266C49.5243 38.5964 49.4605 38.474 49.3694 38.3594C49.2808 38.2448 49.161 38.1523 49.01 38.082C48.8589 38.0117 48.674 37.9766 48.4553 37.9766C48.161 37.9766 47.9136 38.0404 47.7131 38.168C47.5152 38.2956 47.4175 38.4609 47.4201 38.6641C47.4175 38.8385 47.4813 38.9805 47.6115 39.0898C47.7444 39.1992 47.9631 39.2891 48.2678 39.3594L49.2912 39.5781C49.8589 39.7005 50.2808 39.8945 50.5569 40.1602C50.8355 40.4258 50.9761 40.7734 50.9787 41.2031C50.9761 41.5807 50.8655 41.9141 50.6467 42.2031C50.4306 42.4896 50.1298 42.7135 49.7444 42.875C49.3589 43.0365 48.9162 43.1172 48.4162 43.1172C47.6819 43.1172 47.0907 42.9635 46.6428 42.6562C46.1949 42.3464 45.928 41.9154 45.842 41.3633L47.2209 41.2305C47.2834 41.5013 47.4162 41.7057 47.6194 41.8437C47.8225 41.9818 48.0868 42.0508 48.4123 42.0508C48.7483 42.0508 49.0178 41.9818 49.2209 41.8437C49.4267 41.7057 49.5295 41.5352 49.5295 41.332C49.5295 41.1602 49.4631 41.0182 49.3303 40.9062C49.2001 40.7943 48.997 40.7083 48.7209 40.6484L47.6975 40.4336C47.122 40.3138 46.6962 40.112 46.4201 39.8281C46.1441 39.5417 46.0074 39.1797 46.01 38.7422C46.0074 38.3724 46.1076 38.0521 46.3108 37.7812C46.5165 37.5078 46.8017 37.2969 47.1662 37.1484C47.5334 36.9974 47.9566 36.9219 48.4358 36.9219C49.1389 36.9219 49.6923 37.0716 50.0959 37.3711C50.5022 37.6706 50.7535 38.0755 50.8498 38.5859Z" fill="white"/>
</svg>
