<svg width="55" height="55" viewBox="0 0 55 55" fill="none" xmlns="http://www.w3.org/2000/svg">
<g filter="url(#filter0_d_218_7665)">
<circle cx="27.5" cy="23.5" r="23.5" fill="#686FA7"/>
<circle cx="27.5" cy="23.5" r="22.85" stroke="#686FA7" stroke-width="1.3"/>
</g>
<path d="M40.1 17.3929H34.106L35.501 10.1378C35.5475 9.8892 35.4974 9.63152 35.3615 9.42145C35.2256 9.21139 35.0152 9.06614 34.7765 9.01766C34.5378 8.96918 34.2904 9.02145 34.0887 9.16296C33.887 9.30447 33.7475 9.52363 33.701 9.77223L32.27 17.3929H24.899L26.294 10.1378C26.317 10.0147 26.3166 9.88809 26.2927 9.76518C26.2687 9.64226 26.2218 9.52547 26.1545 9.42145C26.0872 9.31744 26.0009 9.22824 25.9006 9.15896C25.8002 9.08968 25.6877 9.04166 25.5695 9.01766C25.3308 8.96918 25.0834 9.02145 24.8817 9.16296C24.68 9.30447 24.5405 9.52363 24.494 9.77223L23.063 17.3929H16.7C16.4613 17.3929 16.2324 17.4917 16.0636 17.6675C15.8948 17.8433 15.8 18.0817 15.8 18.3303C15.8 18.5789 15.8948 18.8173 16.0636 18.9931C16.2324 19.1689 16.4613 19.2677 16.7 19.2677H22.703L21.263 26.7665H14.9C14.6613 26.7665 14.4324 26.8653 14.2636 27.0411C14.0948 27.2168 14 27.4553 14 27.7039C14 27.9525 14.0948 28.1909 14.2636 28.3667C14.4324 28.5425 14.6613 28.6412 14.9 28.6412H20.894L19.499 35.8964C19.4541 36.1399 19.5037 36.3921 19.637 36.5977C19.7702 36.8033 19.9763 36.9454 20.21 36.9931C20.2697 37.0023 20.3303 37.0023 20.39 36.9931C20.6006 36.9975 20.8059 36.9249 20.9704 36.7879C21.1348 36.6508 21.2479 36.4581 21.29 36.2432L22.73 28.6412H30.101L28.706 35.8964C28.6611 36.1399 28.7107 36.3921 28.844 36.5977C28.9772 36.8033 29.1833 36.9454 29.417 36.9931C29.4737 37.0022 29.5313 37.0022 29.588 36.9931C29.7986 36.9975 30.0039 36.9249 30.1684 36.7879C30.3328 36.6508 30.4459 36.4581 30.488 36.2432L31.937 28.6412H38.3C38.5387 28.6412 38.7676 28.5425 38.9364 28.3667C39.1052 28.1909 39.2 27.9525 39.2 27.7039C39.2 27.4553 39.1052 27.2168 38.9364 27.0411C38.7676 26.8653 38.5387 26.7665 38.3 26.7665H32.297L33.746 19.2677H40.1C40.3387 19.2677 40.5676 19.1689 40.7364 18.9931C40.9052 18.8173 41 18.5789 41 18.3303C41 18.0817 40.9052 17.8433 40.7364 17.6675C40.5676 17.4917 40.3387 17.3929 40.1 17.3929ZM30.461 26.7665H23.09L24.539 19.2677H31.91L30.461 26.7665Z" fill="white"/>
<defs>
<filter id="filter0_d_218_7665" x="0" y="0" width="55" height="55" filterUnits="userSpaceOnUse" color-interpolation-filters="sRGB">
<feFlood flood-opacity="0" result="BackgroundImageFix"/>
<feColorMatrix in="SourceAlpha" type="matrix" values="0 0 0 0 0 0 0 0 0 0 0 0 0 0 0 0 0 0 127 0" result="hardAlpha"/>
<feOffset dy="4"/>
<feGaussianBlur stdDeviation="2"/>
<feComposite in2="hardAlpha" operator="out"/>
<feColorMatrix type="matrix" values="0 0 0 0 0 0 0 0 0 0 0 0 0 0 0 0 0 0 0.25 0"/>
<feBlend mode="normal" in2="BackgroundImageFix" result="effect1_dropShadow_218_7665"/>
<feBlend mode="normal" in="SourceGraphic" in2="effect1_dropShadow_218_7665" result="shape"/>
</filter>
</defs>
</svg>
