<svg width="27" height="27" viewBox="0 0 27 27" fill="none" xmlns="http://www.w3.org/2000/svg">
<path d="M13.5 2.25C11.275 2.25 9.09989 2.9098 7.24984 4.14597C5.39979 5.38213 3.95785 7.13914 3.10636 9.19481C2.25487 11.2505 2.03209 13.5125 2.46617 15.6948C2.90025 17.8771 3.97171 19.8816 5.54505 21.455C7.11839 23.0283 9.12295 24.0998 11.3052 24.5338C13.4875 24.9679 15.7495 24.7451 17.8052 23.8936C19.8609 23.0422 21.6179 21.6002 22.854 19.7502C24.0902 17.9001 24.75 15.725 24.75 13.5C24.75 12.0226 24.459 10.5597 23.8937 9.19481C23.3283 7.8299 22.4996 6.58971 21.455 5.54505C20.4103 4.50039 19.1701 3.67172 17.8052 3.10636C16.4403 2.54099 14.9774 2.25 13.5 2.25V2.25ZM13.5 22.5C11.72 22.5 9.97992 21.9722 8.49987 20.9832C7.01983 19.9943 5.86628 18.5887 5.18509 16.9442C4.5039 15.2996 4.32567 13.49 4.67294 11.7442C5.0202 9.99836 5.87737 8.39471 7.13604 7.13604C8.39472 5.87737 9.99836 5.0202 11.7442 4.67293C13.49 4.32567 15.2996 4.5039 16.9442 5.18508C18.5887 5.86627 19.9943 7.01983 20.9832 8.49987C21.9722 9.97991 22.5 11.72 22.5 13.5C22.5 15.8869 21.5518 18.1761 19.864 19.864C18.1761 21.5518 15.887 22.5 13.5 22.5V22.5Z" fill="#949191"/>
<path d="M13.5 6.75008C12.4557 6.75008 11.4542 7.16492 10.7158 7.90334C9.97734 8.64177 9.5625 9.64329 9.5625 10.6876C9.5625 10.9859 9.68103 11.2721 9.89201 11.4831C10.103 11.694 10.3891 11.8126 10.6875 11.8126C10.9859 11.8126 11.272 11.694 11.483 11.4831C11.694 11.2721 11.8125 10.9859 11.8125 10.6876C11.8125 10.3538 11.9115 10.0276 12.0969 9.75005C12.2823 9.47254 12.5459 9.25625 12.8542 9.12853C13.1626 9.00081 13.5019 8.96739 13.8292 9.0325C14.1566 9.09761 14.4572 9.25833 14.6932 9.49433C14.9292 9.73033 15.09 10.031 15.1551 10.3584C15.2202 10.6857 15.1868 11.025 15.059 11.3334C14.9313 11.6417 14.715 11.9053 14.4375 12.0907C14.16 12.2761 13.8338 12.3751 13.5 12.3751C13.2016 12.3751 12.9155 12.4936 12.7045 12.7046C12.4935 12.9156 12.375 13.2017 12.375 13.5001V15.7501C12.375 16.0484 12.4935 16.3346 12.7045 16.5456C12.9155 16.7565 13.2016 16.8751 13.5 16.8751C13.7984 16.8751 14.0845 16.7565 14.2955 16.5456C14.5065 16.3346 14.625 16.0484 14.625 15.7501V14.4451C15.5341 14.1796 16.3166 13.5944 16.8283 12.7974C17.34 12.0005 17.5463 11.0454 17.4093 10.1083C17.2723 9.17115 16.8012 8.31513 16.0828 7.69799C15.3643 7.08085 14.4471 6.7442 13.5 6.75008V6.75008Z" fill="#949191"/>
<path d="M13.5 20.25C14.1213 20.25 14.625 19.7463 14.625 19.125C14.625 18.5037 14.1213 18 13.5 18C12.8787 18 12.375 18.5037 12.375 19.125C12.375 19.7463 12.8787 20.25 13.5 20.25Z" fill="#949191"/>
</svg>
