<svg width="62" height="52" viewBox="0 0 62 52" fill="none" xmlns="http://www.w3.org/2000/svg">
<path d="M0.932528 49V39.5455H2.64524V43.5479H7.02628V39.5455H8.74361V49H7.02628V44.9837H2.64524V49H0.932528ZM13.2175 49.1385C12.5251 49.1385 11.9249 48.9862 11.4171 48.6815C10.9093 48.3768 10.5154 47.9505 10.2353 47.4027C9.9583 46.8549 9.81981 46.2147 9.81981 45.4822C9.81981 44.7498 9.9583 44.1081 10.2353 43.5572C10.5154 43.0063 10.9093 42.5785 11.4171 42.2738C11.9249 41.9691 12.5251 41.8168 13.2175 41.8168C13.91 41.8168 14.5101 41.9691 15.018 42.2738C15.5258 42.5785 15.9182 43.0063 16.1952 43.5572C16.4752 44.1081 16.6153 44.7498 16.6153 45.4822C16.6153 46.2147 16.4752 46.8549 16.1952 47.4027C15.9182 47.9505 15.5258 48.3768 15.018 48.6815C14.5101 48.9862 13.91 49.1385 13.2175 49.1385ZM13.2268 47.7997C13.6022 47.7997 13.9162 47.6966 14.1685 47.4904C14.4209 47.2811 14.6086 47.0011 14.7317 46.6502C14.8579 46.2994 14.921 45.9085 14.921 45.4776C14.921 45.0437 14.8579 44.6513 14.7317 44.3004C14.6086 43.9465 14.4209 43.6649 14.1685 43.4556C13.9162 43.2463 13.6022 43.1417 13.2268 43.1417C12.8421 43.1417 12.522 43.2463 12.2665 43.4556C12.0142 43.6649 11.8249 43.9465 11.6987 44.3004C11.5756 44.6513 11.5141 45.0437 11.5141 45.4776C11.5141 45.9085 11.5756 46.2994 11.6987 46.6502C11.8249 47.0011 12.0142 47.2811 12.2665 47.4904C12.522 47.6966 12.8421 47.7997 13.2268 47.7997ZM17.6257 49V41.9091H19.223V43.114H19.3061C19.4538 42.7077 19.6985 42.3907 20.0401 42.163C20.3817 41.9322 20.7895 41.8168 21.2635 41.8168C21.7436 41.8168 22.1483 41.9337 22.4776 42.1676C22.81 42.3984 23.0439 42.7139 23.1793 43.114H23.2532C23.4101 42.7201 23.6748 42.4061 24.0472 42.1722C24.4227 41.9353 24.8674 41.8168 25.3814 41.8168C26.0338 41.8168 26.5663 42.023 26.9787 42.4354C27.3911 42.8478 27.5973 43.4495 27.5973 44.2404V49H25.9215V44.4989C25.9215 44.0588 25.8045 43.7372 25.5706 43.5341C25.3367 43.3279 25.0505 43.2248 24.712 43.2248C24.3088 43.2248 23.9933 43.351 23.7656 43.6033C23.5409 43.8526 23.4286 44.1773 23.4286 44.5774V49H21.7897V44.4297C21.7897 44.0634 21.6789 43.7711 21.4573 43.5526C21.2388 43.334 20.9526 43.2248 20.5987 43.2248C20.3586 43.2248 20.1401 43.2863 19.9431 43.4094C19.7462 43.5295 19.5892 43.7003 19.4723 43.9219C19.3553 44.1404 19.2968 44.3958 19.2968 44.6882V49H17.6257ZM32.0239 49.1385C31.3129 49.1385 30.6989 48.9908 30.1819 48.6953C29.6679 48.3968 29.2724 47.9751 28.9955 47.4304C28.7185 46.8826 28.58 46.2378 28.58 45.4961C28.58 44.7667 28.7185 44.1265 28.9955 43.5756C29.2755 43.0217 29.6664 42.5908 30.168 42.283C30.6697 41.9722 31.2591 41.8168 31.9362 41.8168C32.3732 41.8168 32.7856 41.8875 33.1734 42.0291C33.5642 42.1676 33.9089 42.383 34.2075 42.6754C34.5091 42.9678 34.7461 43.3402 34.9184 43.7926C35.0908 44.242 35.1769 44.7775 35.1769 45.3991V45.9116H29.3648V44.7852H33.575C33.5719 44.4651 33.5027 44.1804 33.3673 43.9311C33.2318 43.6787 33.0426 43.4802 32.7994 43.3356C32.5594 43.1909 32.2793 43.1186 31.9592 43.1186C31.6176 43.1186 31.3175 43.2017 31.059 43.3679C30.8005 43.531 30.5989 43.7464 30.4543 44.0142C30.3127 44.2789 30.2404 44.5697 30.2373 44.8867V45.87C30.2373 46.2824 30.3127 46.6364 30.4635 46.9318C30.6143 47.2242 30.8251 47.4489 31.096 47.6058C31.3668 47.7597 31.6838 47.8366 32.047 47.8366C32.2901 47.8366 32.5101 47.8028 32.7071 47.7351C32.9041 47.6643 33.0749 47.5612 33.2195 47.4258C33.3642 47.2904 33.4734 47.1226 33.5473 46.9226L35.1077 47.098C35.0092 47.5104 34.8215 47.8705 34.5445 48.1783C34.2706 48.483 33.9197 48.7199 33.4919 48.8892C33.0641 49.0554 32.5748 49.1385 32.0239 49.1385Z" fill="#949191"/>
<path d="M16.25 32.5V22.75H22.75V32.5H30.875V19.5H35.75L19.5 4.875L3.25 19.5H8.125V32.5H16.25Z" fill="#949191"/>
</svg>
