<svg width="16" height="16" viewBox="0 0 16 16" fill="none" xmlns="http://www.w3.org/2000/svg">
<path d="M12.4595 6.02487L9.57855 5.76487L8.45355 3.0101C8.25116 2.50868 7.56069 2.50868 7.35831 3.0101L6.23331 5.77106L3.35831 6.02487C2.8345 6.0682 2.62021 6.74915 3.01902 7.1082L5.20355 9.07677L4.54878 11.9987C4.42974 12.5311 4.98331 12.952 5.43569 12.6672L7.90593 11.1196L10.3762 12.6734C10.8285 12.9582 11.3821 12.5372 11.2631 12.0049L10.6083 9.07677L12.7928 7.1082C13.1916 6.74915 12.9833 6.0682 12.4595 6.02487ZM7.90593 9.96201L5.66783 11.3672L6.26307 8.71772L4.28688 6.93487L6.89402 6.69963L7.90593 4.20487L8.92378 6.70582L11.5309 6.94106L9.55474 8.72391L10.15 11.3734L7.90593 9.96201Z" fill="#EB506C"/>
</svg>
