<svg width="23" height="24" viewBox="0 0 23 24" fill="none" xmlns="http://www.w3.org/2000/svg">
<path d="M18.8324 9.04L14.1941 8.62L12.3829 4.17C12.057 3.36 10.9454 3.36 10.6195 4.17L8.80828 8.63L4.17953 9.04C3.3362 9.11 2.9912 10.21 3.63328 10.79L7.15037 13.97L6.0962 18.69C5.90453 19.55 6.79578 20.23 7.52412 19.77L11.5012 17.27L15.4783 19.78C16.2066 20.24 17.0979 19.56 16.9062 18.7L15.852 13.97L19.3691 10.79C20.0112 10.21 19.6758 9.11 18.8324 9.04V9.04ZM11.5012 15.4L7.89787 17.67L8.8562 13.39L5.67453 10.51L9.87203 10.13L11.5012 6.1L13.1399 10.14L17.3374 10.52L14.1558 13.4L15.1141 17.68L11.5012 15.4Z" fill="#EB506C"/>
</svg>
