<svg width="24" height="23" viewBox="0 0 24 23" fill="none" xmlns="http://www.w3.org/2000/svg">
<path d="M12 1.91675C6.48 1.91675 2 6.21008 2 11.5001C2 16.7901 6.48 21.0834 12 21.0834C17.52 21.0834 22 16.7901 22 11.5001C22 6.21008 17.52 1.91675 12 1.91675ZM12 19.1667C7.59 19.1667 4 15.7263 4 11.5001C4 7.27383 7.59 3.83341 12 3.83341C16.41 3.83341 20 7.27383 20 11.5001C20 15.7263 16.41 19.1667 12 19.1667ZM15.88 7.94466L10 13.5797L8.12 11.778C7.93302 11.5988 7.67943 11.4981 7.415 11.4981C7.15057 11.4981 6.89698 11.5988 6.71 11.778C6.52302 11.9572 6.41798 12.2002 6.41798 12.4536C6.41798 12.707 6.52302 12.9501 6.71 13.1292L9.3 15.6113C9.69 15.9851 10.32 15.9851 10.71 15.6113L17.3 9.29591C17.3927 9.20726 17.4663 9.10195 17.5164 8.98601C17.5666 8.87008 17.5924 8.7458 17.5924 8.62029C17.5924 8.49478 17.5666 8.3705 17.5164 8.25457C17.4663 8.13863 17.3927 8.03332 17.3 7.94466C16.91 7.57091 16.27 7.57091 15.88 7.94466V7.94466Z" fill="#EB506C"/>
</svg>
