<svg width="16" height="16" viewBox="0 0 16 16" fill="none" xmlns="http://www.w3.org/2000/svg">
<path d="M7.67787 1.88867C4.17928 1.88867 1.33984 4.62645 1.33984 7.99978C1.33984 11.3731 4.17928 14.1109 7.67787 14.1109C11.1765 14.1109 14.0159 11.3731 14.0159 7.99978C14.0159 4.62645 11.1765 1.88867 7.67787 1.88867ZM7.67787 12.8887C4.8828 12.8887 2.60745 10.6948 2.60745 7.99978C2.60745 5.30478 4.8828 3.11089 7.67787 3.11089C10.4729 3.11089 12.7483 5.30478 12.7483 7.99978C12.7483 10.6948 10.4729 12.8887 7.67787 12.8887ZM10.137 5.73256L6.41027 9.32589L5.21872 8.17701C5.10021 8.06274 4.93948 7.99855 4.77189 7.99855C4.60429 7.99855 4.44356 8.06274 4.32505 8.17701C4.20655 8.29127 4.13997 8.44624 4.13997 8.60784C4.13997 8.76943 4.20655 8.92441 4.32505 9.03867L5.9666 10.6215C6.21379 10.8598 6.61308 10.8598 6.86027 10.6215L11.037 6.59423C11.0958 6.53769 11.1424 6.47054 11.1742 6.39661C11.206 6.32268 11.2224 6.24343 11.2224 6.16339C11.2224 6.08336 11.206 6.00411 11.1742 5.93018C11.1424 5.85625 11.0958 5.7891 11.037 5.73256C10.7898 5.49423 10.3842 5.49423 10.137 5.73256Z" fill="#EB506C"/>
</svg>
