<svg width="15" height="16" viewBox="0 0 15 16" fill="none" xmlns="http://www.w3.org/2000/svg">
<path d="M7.62345 4.14269C7.29265 4.14269 7.00957 4.02136 6.7742 3.77869C6.53844 3.53644 6.42055 3.24507 6.42055 2.9046C6.42055 2.56412 6.53844 2.27255 6.7742 2.02988C7.00957 1.78763 7.29265 1.6665 7.62345 1.6665C7.95425 1.6665 8.23753 1.78763 8.4733 2.02988C8.70866 2.27255 8.82635 2.56412 8.82635 2.9046C8.82635 3.24507 8.70866 3.53644 8.4733 3.77869C8.23753 4.02136 7.95425 4.14269 7.62345 4.14269ZM6.42055 14.0475C6.25014 14.0475 6.1074 13.988 5.99232 13.8692C5.87684 13.7507 5.8191 13.6038 5.8191 13.4284V5.86055C5.01717 5.64388 4.35818 5.21323 3.84214 4.5686C3.32569 3.92355 3.00231 3.18833 2.872 2.36293C2.84193 2.17722 2.88964 2.01461 3.01515 1.87512C3.14025 1.73604 3.30304 1.6665 3.50352 1.6665C3.64386 1.6665 3.76676 1.71809 3.87221 1.82127C3.97726 1.92444 4.03981 2.04825 4.05986 2.19269C4.17013 2.92523 4.48088 3.53644 4.99211 4.02631C5.50334 4.5166 6.12985 4.76174 6.87164 4.76174H8.37526C8.67599 4.76174 8.95666 4.81849 9.21729 4.93198C9.47792 5.04547 9.71349 5.21055 9.92399 5.42722L12.2245 7.79507C12.3348 7.90857 12.3899 8.05301 12.3899 8.22841C12.3899 8.4038 12.3348 8.54825 12.2245 8.66174C12.1143 8.77523 11.9739 8.83198 11.8035 8.83198C11.6331 8.83198 11.4928 8.77523 11.3825 8.66174L9.4278 6.64984V13.4284C9.4278 13.6038 9.37026 13.7507 9.25518 13.8692C9.1397 13.988 8.99676 14.0475 8.82635 14.0475C8.65594 14.0475 8.51319 13.988 8.39812 13.8692C8.28264 13.7507 8.2249 13.6038 8.2249 13.4284V10.3332H7.022V13.4284C7.022 13.6038 6.96446 13.7507 6.84938 13.8692C6.73391 13.988 6.59096 14.0475 6.42055 14.0475Z" fill="#EB506C"/>
</svg>
