<svg width="24" height="25" viewBox="0 0 24 25" fill="none" xmlns="http://www.w3.org/2000/svg">
<path d="M11.7866 6.09916C11.2544 6.09916 10.799 5.90397 10.4204 5.51359C10.0411 5.12388 9.85147 4.65516 9.85147 4.10744C9.85147 3.55972 10.0411 3.09067 10.4204 2.70029C10.799 2.31058 11.2544 2.11572 11.7866 2.11572C12.3187 2.11572 12.7744 2.31058 13.1537 2.70029C13.5323 3.09067 13.7217 3.55972 13.7217 4.10744C13.7217 4.65516 13.5323 5.12388 13.1537 5.51359C12.7744 5.90397 12.3187 6.09916 11.7866 6.09916ZM9.85147 22.0329C9.57733 22.0329 9.3477 21.9373 9.16258 21.7461C8.97681 21.5556 8.88392 21.3192 8.88392 21.037V8.86267C7.59386 8.51411 6.53375 7.82133 5.70359 6.78431C4.87279 5.74662 4.35257 4.56388 4.14293 3.23606C4.09456 2.93731 4.17131 2.67573 4.37321 2.45133C4.57446 2.22759 4.83634 2.11572 5.15886 2.11572C5.38462 2.11572 5.58232 2.19871 5.75197 2.36469C5.92097 2.53066 6.02159 2.72984 6.05384 2.9622C6.23123 4.14064 6.73113 5.12388 7.55354 5.91194C8.37596 6.70066 9.38382 7.09502 10.5771 7.09502H12.996C13.4798 7.09502 13.9313 7.1863 14.3506 7.36888C14.7698 7.55145 15.1488 7.81701 15.4874 8.16556L19.1883 11.9747C19.3657 12.1573 19.4544 12.3897 19.4544 12.6718C19.4544 12.954 19.3657 13.1864 19.1883 13.3689C19.0109 13.5515 18.7852 13.6428 18.511 13.6428C18.2369 13.6428 18.0111 13.5515 17.8337 13.3689L14.6892 10.1324V21.037C14.6892 21.3192 14.5967 21.5556 14.4115 21.7461C14.2258 21.9373 13.9958 22.0329 13.7217 22.0329C13.4475 22.0329 13.2179 21.9373 13.0328 21.7461C12.847 21.5556 12.7541 21.3192 12.7541 21.037V16.0577H10.819V21.037C10.819 21.3192 10.7265 21.5556 10.5413 21.7461C10.3556 21.9373 10.1256 22.0329 9.85147 22.0329Z" fill="#EB506C"/>
</svg>
