<svg width="50" height="11" viewBox="0 0 50 11" fill="none" xmlns="http://www.w3.org/2000/svg">
<path d="M8.70206 0.545454V10H7.17862L2.72372 3.56001H2.64524V10H0.932528V0.545454H2.4652L6.91548 6.99006H6.99858V0.545454H8.70206ZM13.2256 10.1385C12.5147 10.1385 11.9007 9.99077 11.3836 9.69531C10.8697 9.39678 10.4742 8.97514 10.1972 8.4304C9.92021 7.88258 9.78172 7.23781 9.78172 6.49609C9.78172 5.76669 9.92021 5.12654 10.1972 4.57564C10.4773 4.02166 10.8681 3.59079 11.3698 3.28303C11.8714 2.97218 12.4608 2.81676 13.1379 2.81676C13.5749 2.81676 13.9873 2.88755 14.3751 3.02912C14.766 3.16761 15.1107 3.38305 15.4092 3.67543C15.7108 3.9678 15.9478 4.3402 16.1201 4.79261C16.2925 5.24195 16.3787 5.77746 16.3787 6.39915V6.91158H10.5665V5.78516H14.7767C14.7737 5.46508 14.7044 5.1804 14.569 4.93111C14.4336 4.67874 14.2443 4.48023 14.0012 4.33558C13.7611 4.19093 13.4811 4.11861 13.161 4.11861C12.8194 4.11861 12.5193 4.2017 12.2608 4.3679C12.0022 4.53101 11.8007 4.74645 11.656 5.0142C11.5144 5.27888 11.4421 5.56972 11.439 5.88672V6.87003C11.439 7.28243 11.5144 7.63636 11.6652 7.93182C11.816 8.22419 12.0269 8.44886 12.2977 8.60582C12.5685 8.75971 12.8855 8.83665 13.2487 8.83665C13.4918 8.83665 13.7119 8.80279 13.9089 8.73509C14.1058 8.6643 14.2766 8.5612 14.4213 8.42578C14.5659 8.29036 14.6752 8.12263 14.749 7.92259L16.3094 8.09801C16.2109 8.51042 16.0232 8.8705 15.7462 9.17827C15.4723 9.48295 15.1214 9.71993 14.6937 9.8892C14.2659 10.0554 13.7765 10.1385 13.2256 10.1385ZM19.4249 10.1431C18.9756 10.1431 18.5709 10.0631 18.2108 9.90305C17.8538 9.73994 17.5707 9.49988 17.3614 9.18288C17.1552 8.86589 17.0521 8.47502 17.0521 8.0103C17.0521 7.6102 17.1259 7.27936 17.2737 7.01776C17.4214 6.75616 17.623 6.54688 17.8784 6.38991C18.1339 6.23295 18.4216 6.11446 18.7417 6.03445C19.0649 5.95135 19.3988 5.89134 19.7435 5.8544C20.159 5.81132 20.496 5.77285 20.7545 5.73899C21.013 5.70206 21.2007 5.64666 21.3177 5.5728C21.4377 5.49586 21.4977 5.37737 21.4977 5.21733V5.18963C21.4977 4.84186 21.3946 4.57256 21.1884 4.38175C20.9822 4.19093 20.6852 4.09553 20.2975 4.09553C19.8881 4.09553 19.5634 4.18478 19.3234 4.36328C19.0864 4.54178 18.9264 4.7526 18.8433 4.99574L17.2829 4.77415C17.406 4.34328 17.6091 3.98319 17.8923 3.69389C18.1754 3.40151 18.5217 3.183 18.931 3.03835C19.3403 2.89062 19.7927 2.81676 20.2882 2.81676C20.6298 2.81676 20.9699 2.85677 21.3085 2.93679C21.647 3.01681 21.9563 3.14915 22.2364 3.33381C22.5164 3.51539 22.7411 3.76314 22.9104 4.07706C23.0827 4.39098 23.1689 4.78338 23.1689 5.25426V10H21.5624V9.02592H21.507C21.4054 9.22289 21.2623 9.40755 21.0776 9.5799C20.8961 9.74917 20.6668 9.88613 20.3898 9.99077C20.1159 10.0923 19.7943 10.1431 19.4249 10.1431ZM19.8589 8.91513C20.1944 8.91513 20.4852 8.84896 20.7314 8.71662C20.9776 8.5812 21.1669 8.4027 21.2992 8.18111C21.4347 7.95952 21.5024 7.71792 21.5024 7.45632V6.62074C21.45 6.66383 21.3608 6.70384 21.2346 6.74077C21.1115 6.7777 20.973 6.81001 20.8191 6.83771C20.6652 6.86541 20.5129 6.89003 20.3621 6.91158C20.2113 6.93312 20.0805 6.95159 19.9697 6.96697C19.7204 7.00083 19.4973 7.05623 19.3003 7.13317C19.1033 7.21011 18.9479 7.31783 18.834 7.45632C18.7202 7.59174 18.6632 7.76716 18.6632 7.9826C18.6632 8.29036 18.7756 8.52273 19.0002 8.67969C19.2249 8.83665 19.5111 8.91513 19.8589 8.91513ZM24.4413 10V2.90909H26.0617V4.09091H26.1356C26.2648 3.68158 26.4864 3.36612 26.8003 3.14453C27.1173 2.91986 27.4789 2.80753 27.8852 2.80753C27.9775 2.80753 28.0806 2.81214 28.1945 2.82138C28.3115 2.82753 28.4084 2.8383 28.4853 2.85369V4.39098C28.4146 4.36636 28.3022 4.34482 28.1483 4.32635C27.9975 4.30481 27.8513 4.29403 27.7098 4.29403C27.4051 4.29403 27.1312 4.3602 26.888 4.49254C26.648 4.6218 26.4587 4.80185 26.3202 5.03267C26.1817 5.26349 26.1125 5.52971 26.1125 5.83132V10H24.4413ZM32.0042 10V2.90909H33.6015V4.11399H33.6846C33.8323 3.70774 34.077 3.39074 34.4186 3.163C34.7602 2.93217 35.168 2.81676 35.642 2.81676C36.1221 2.81676 36.5268 2.93371 36.8561 3.16761C37.1885 3.39844 37.4224 3.7139 37.5578 4.11399H37.6317C37.7887 3.72005 38.0533 3.40613 38.4257 3.17223C38.8012 2.93525 39.2459 2.81676 39.7599 2.81676C40.4124 2.81676 40.9448 3.02296 41.3572 3.43537C41.7696 3.84777 41.9758 4.44946 41.9758 5.24041V10H40.3V5.49893C40.3 5.05883 40.1831 4.73722 39.9492 4.53409C39.7153 4.32789 39.429 4.22479 39.0905 4.22479C38.6873 4.22479 38.3719 4.35097 38.1441 4.60334C37.9195 4.85263 37.8071 5.17732 37.8071 5.57741V10H36.1683V5.42969C36.1683 5.06345 36.0575 4.77107 35.8359 4.55256C35.6174 4.33404 35.3312 4.22479 34.9772 4.22479C34.7372 4.22479 34.5187 4.28634 34.3217 4.40945C34.1247 4.52947 33.9678 4.70028 33.8508 4.92188C33.7339 5.14039 33.6754 5.39583 33.6754 5.68821V10H32.0042ZM46.4024 10.1385C45.6915 10.1385 45.0775 9.99077 44.5604 9.69531C44.0465 9.39678 43.651 8.97514 43.374 8.4304C43.097 7.88258 42.9585 7.23781 42.9585 6.49609C42.9585 5.76669 43.097 5.12654 43.374 4.57564C43.6541 4.02166 44.0449 3.59079 44.5466 3.28303C45.0482 2.97218 45.6376 2.81676 46.3147 2.81676C46.7517 2.81676 47.1641 2.88755 47.5519 3.02912C47.9428 3.16761 48.2875 3.38305 48.586 3.67543C48.8876 3.9678 49.1246 4.3402 49.2969 4.79261C49.4693 5.24195 49.5555 5.77746 49.5555 6.39915V6.91158H43.7433V5.78516H47.9535C47.9505 5.46508 47.8812 5.1804 47.7458 4.93111C47.6104 4.67874 47.4211 4.48023 47.178 4.33558C46.9379 4.19093 46.6579 4.11861 46.3378 4.11861C45.9962 4.11861 45.6961 4.2017 45.4376 4.3679C45.179 4.53101 44.9775 4.74645 44.8328 5.0142C44.6912 5.27888 44.6189 5.56972 44.6158 5.88672V6.87003C44.6158 7.28243 44.6912 7.63636 44.842 7.93182C44.9928 8.22419 45.2037 8.44886 45.4745 8.60582C45.7453 8.75971 46.0623 8.83665 46.4255 8.83665C46.6686 8.83665 46.8887 8.80279 47.0856 8.73509C47.2826 8.6643 47.4534 8.5612 47.5981 8.42578C47.7427 8.29036 47.852 8.12263 47.9258 7.92259L49.4862 8.09801C49.3877 8.51042 49.2 8.8705 48.923 9.17827C48.6491 9.48295 48.2982 9.71993 47.8705 9.8892C47.4427 10.0554 46.9533 10.1385 46.4024 10.1385Z" fill="white"/>
</svg>
