<svg width="122" height="28" viewBox="0 0 122 28" fill="none" xmlns="http://www.w3.org/2000/svg">
<rect width="122" height="28" rx="5" fill="#181D3D"/>
<path d="M44.7021 10.5455V20H43.1786L38.7237 13.56H38.6452V20H36.9325V10.5455H38.4652L42.9155 16.9901H42.9986V10.5455H44.7021ZM49.2256 20.1385C48.5147 20.1385 47.9007 19.9908 47.3836 19.6953C46.8697 19.3968 46.4742 18.9751 46.1972 18.4304C45.9202 17.8826 45.7817 17.2378 45.7817 16.4961C45.7817 15.7667 45.9202 15.1265 46.1972 14.5756C46.4773 14.0217 46.8681 13.5908 47.3698 13.283C47.8714 12.9722 48.4608 12.8168 49.1379 12.8168C49.5749 12.8168 49.9873 12.8875 50.3751 13.0291C50.766 13.1676 51.1107 13.383 51.4092 13.6754C51.7108 13.9678 51.9478 14.3402 52.1201 14.7926C52.2925 15.242 52.3787 15.7775 52.3787 16.3991V16.9116H46.5665V15.7852H50.7767C50.7737 15.4651 50.7044 15.1804 50.569 14.9311C50.4336 14.6787 50.2443 14.4802 50.0012 14.3356C49.7611 14.1909 49.4811 14.1186 49.161 14.1186C48.8194 14.1186 48.5193 14.2017 48.2608 14.3679C48.0022 14.531 47.8007 14.7464 47.656 15.0142C47.5144 15.2789 47.4421 15.5697 47.439 15.8867V16.87C47.439 17.2824 47.5144 17.6364 47.6652 17.9318C47.816 18.2242 48.0269 18.4489 48.2977 18.6058C48.5685 18.7597 48.8855 18.8366 49.2487 18.8366C49.4918 18.8366 49.7119 18.8028 49.9089 18.7351C50.1058 18.6643 50.2766 18.5612 50.4213 18.4258C50.5659 18.2904 50.6752 18.1226 50.749 17.9226L52.3094 18.098C52.2109 18.5104 52.0232 18.8705 51.7462 19.1783C51.4723 19.483 51.1214 19.7199 50.6937 19.8892C50.2659 20.0554 49.7765 20.1385 49.2256 20.1385ZM55.4249 20.1431C54.9756 20.1431 54.5709 20.0631 54.2108 19.9031C53.8538 19.7399 53.5707 19.4999 53.3614 19.1829C53.1552 18.8659 53.0521 18.475 53.0521 18.0103C53.0521 17.6102 53.1259 17.2794 53.2737 17.0178C53.4214 16.7562 53.623 16.5469 53.8784 16.3899C54.1339 16.233 54.4216 16.1145 54.7417 16.0344C55.0649 15.9513 55.3988 15.8913 55.7435 15.8544C56.159 15.8113 56.496 15.7728 56.7545 15.739C57.013 15.7021 57.2007 15.6467 57.3177 15.5728C57.4377 15.4959 57.4977 15.3774 57.4977 15.2173V15.1896C57.4977 14.8419 57.3946 14.5726 57.1884 14.3817C56.9822 14.1909 56.6852 14.0955 56.2975 14.0955C55.8881 14.0955 55.5634 14.1848 55.3234 14.3633C55.0864 14.5418 54.9264 14.7526 54.8433 14.9957L53.2829 14.7741C53.406 14.3433 53.6091 13.9832 53.8923 13.6939C54.1754 13.4015 54.5217 13.183 54.931 13.0384C55.3403 12.8906 55.7927 12.8168 56.2882 12.8168C56.6298 12.8168 56.9699 12.8568 57.3085 12.9368C57.647 13.0168 57.9563 13.1491 58.2364 13.3338C58.5164 13.5154 58.7411 13.7631 58.9104 14.0771C59.0827 14.391 59.1689 14.7834 59.1689 15.2543V20H57.5624V19.0259H57.507C57.4054 19.2229 57.2623 19.4076 57.0776 19.5799C56.8961 19.7492 56.6668 19.8861 56.3898 19.9908C56.1159 20.0923 55.7943 20.1431 55.4249 20.1431ZM55.8589 18.9151C56.1944 18.9151 56.4852 18.849 56.7314 18.7166C56.9776 18.5812 57.1669 18.4027 57.2992 18.1811C57.4347 17.9595 57.5024 17.7179 57.5024 17.4563V16.6207C57.45 16.6638 57.3608 16.7038 57.2346 16.7408C57.1115 16.7777 56.973 16.81 56.8191 16.8377C56.6652 16.8654 56.5129 16.89 56.3621 16.9116C56.2113 16.9331 56.0805 16.9516 55.9697 16.967C55.7204 17.0008 55.4973 17.0562 55.3003 17.1332C55.1033 17.2101 54.9479 17.3178 54.834 17.4563C54.7202 17.5917 54.6632 17.7672 54.6632 17.9826C54.6632 18.2904 54.7756 18.5227 55.0002 18.6797C55.2249 18.8366 55.5111 18.9151 55.8589 18.9151ZM60.4413 20V12.9091H62.0617V14.0909H62.1356C62.2648 13.6816 62.4864 13.3661 62.8003 13.1445C63.1173 12.9199 63.4789 12.8075 63.8852 12.8075C63.9775 12.8075 64.0806 12.8121 64.1945 12.8214C64.3115 12.8275 64.4084 12.8383 64.4853 12.8537V14.391C64.4146 14.3664 64.3022 14.3448 64.1483 14.3263C63.9975 14.3048 63.8513 14.294 63.7098 14.294C63.4051 14.294 63.1312 14.3602 62.888 14.4925C62.648 14.6218 62.4587 14.8018 62.3202 15.0327C62.1817 15.2635 62.1125 15.5297 62.1125 15.8313V20H60.4413ZM68.0042 20V12.9091H69.6015V14.114H69.6846C69.8323 13.7077 70.077 13.3907 70.4186 13.163C70.7602 12.9322 71.168 12.8168 71.642 12.8168C72.1221 12.8168 72.5268 12.9337 72.8561 13.1676C73.1885 13.3984 73.4224 13.7139 73.5578 14.114H73.6317C73.7887 13.7201 74.0533 13.4061 74.4257 13.1722C74.8012 12.9353 75.2459 12.8168 75.7599 12.8168C76.4124 12.8168 76.9448 13.023 77.3572 13.4354C77.7696 13.8478 77.9758 14.4495 77.9758 15.2404V20H76.3V15.4989C76.3 15.0588 76.1831 14.7372 75.9492 14.5341C75.7153 14.3279 75.429 14.2248 75.0905 14.2248C74.6873 14.2248 74.3719 14.351 74.1441 14.6033C73.9195 14.8526 73.8071 15.1773 73.8071 15.5774V20H72.1683V15.4297C72.1683 15.0634 72.0575 14.7711 71.8359 14.5526C71.6174 14.334 71.3312 14.2248 70.9772 14.2248C70.7372 14.2248 70.5187 14.2863 70.3217 14.4094C70.1247 14.5295 69.9678 14.7003 69.8508 14.9219C69.7339 15.1404 69.6754 15.3958 69.6754 15.6882V20H68.0042ZM82.4024 20.1385C81.6915 20.1385 81.0775 19.9908 80.5604 19.6953C80.0465 19.3968 79.651 18.9751 79.374 18.4304C79.097 17.8826 78.9585 17.2378 78.9585 16.4961C78.9585 15.7667 79.097 15.1265 79.374 14.5756C79.6541 14.0217 80.0449 13.5908 80.5466 13.283C81.0482 12.9722 81.6376 12.8168 82.3147 12.8168C82.7517 12.8168 83.1641 12.8875 83.5519 13.0291C83.9428 13.1676 84.2875 13.383 84.586 13.6754C84.8876 13.9678 85.1246 14.3402 85.2969 14.7926C85.4693 15.242 85.5555 15.7775 85.5555 16.3991V16.9116H79.7433V15.7852H83.9535C83.9505 15.4651 83.8812 15.1804 83.7458 14.9311C83.6104 14.6787 83.4211 14.4802 83.178 14.3356C82.9379 14.1909 82.6579 14.1186 82.3378 14.1186C81.9962 14.1186 81.6961 14.2017 81.4376 14.3679C81.179 14.531 80.9775 14.7464 80.8328 15.0142C80.6912 15.2789 80.6189 15.5697 80.6158 15.8867V16.87C80.6158 17.2824 80.6912 17.6364 80.842 17.9318C80.9928 18.2242 81.2037 18.4489 81.4745 18.6058C81.7453 18.7597 82.0623 18.8366 82.4255 18.8366C82.6686 18.8366 82.8887 18.8028 83.0856 18.7351C83.2826 18.6643 83.4534 18.5612 83.5981 18.4258C83.7427 18.2904 83.852 18.1226 83.9258 17.9226L85.4862 18.098C85.3877 18.5104 85.2 18.8705 84.923 19.1783C84.6491 19.483 84.2982 19.7199 83.8705 19.8892C83.4427 20.0554 82.9533 20.1385 82.4024 20.1385Z" fill="white"/>
</svg>
