<svg width="27" height="27" viewBox="0 0 27 27" fill="none" xmlns="http://www.w3.org/2000/svg">
<path d="M13.5 24.0467C13.2828 24.0456 13.0691 23.9913 12.8777 23.8885C12.4242 23.6249 1.6875 17.5288 1.6875 9.70298C1.68605 8.3313 2.10252 6.99172 2.88146 5.86267C3.6604 4.73361 4.76483 3.86867 6.04766 3.38302C7.33049 2.89738 8.73084 2.81409 10.0622 3.14425C11.3935 3.47441 12.5927 4.20234 13.5 5.2311C14.4073 4.20234 15.6065 3.47441 16.9378 3.14425C18.2692 2.81409 19.6695 2.89738 20.9523 3.38302C22.2352 3.86867 23.3396 4.73361 24.1185 5.86267C24.8975 6.99172 25.314 8.3313 25.3125 9.70298C25.3125 17.5288 14.5758 23.6249 14.1223 23.8885C13.9309 23.9913 13.7172 24.0456 13.5 24.0467ZM8.4375 5.48423C7.31862 5.48423 6.24557 5.9287 5.4544 6.71987C4.66323 7.51104 4.21875 8.58409 4.21875 9.70298C4.21875 15.103 11.3273 19.9545 13.5 21.3045C15.6727 19.9545 22.7813 15.103 22.7813 9.70298C22.7803 8.72861 22.4421 7.78461 21.824 7.03132C21.206 6.27803 20.3463 5.76189 19.3909 5.57056C18.4355 5.37923 17.4433 5.52451 16.5829 5.98173C15.7225 6.43894 15.0468 7.1799 14.6707 8.07876C14.5754 8.31089 14.4131 8.50943 14.2047 8.64916C13.9962 8.78888 13.751 8.86349 13.5 8.86349C13.2491 8.86349 13.0038 8.78888 12.7953 8.64916C12.5869 8.50943 12.4247 8.31089 12.3293 8.07876C12.01 7.3098 11.4698 6.65283 10.7771 6.19099C10.0843 5.72915 9.2701 5.48318 8.4375 5.48423Z" fill="white"/>
</svg>
