<svg width="54" height="51" viewBox="0 0 54 51" fill="none" xmlns="http://www.w3.org/2000/svg">
<rect x="1" y="1" width="52" height="49" rx="5" fill="#4B7BF8" stroke="#F5F5F5" stroke-width="2"/>
<path d="M31.0625 19C30.0184 19 29.0089 18.5338 28.2188 17.6878C27.4504 16.8626 26.9812 15.7622 26.8984 14.5902C26.8101 13.3399 27.1914 12.1902 27.972 11.3523C28.7525 10.5145 29.8438 10.0625 31.0625 10.0625C32.2726 10.0625 33.367 10.5226 34.1449 11.3584C34.9305 12.2024 35.3129 13.3501 35.2245 14.5896C35.1397 15.7632 34.671 16.8631 33.9042 17.6873C33.1161 18.5338 32.1071 19 31.0625 19ZM37.757 27.9375H24.3685C24.1533 27.9387 23.9406 27.8904 23.7469 27.7965C23.5532 27.7025 23.3837 27.5654 23.2513 27.3957C23.1109 27.2116 23.014 26.9982 22.9677 26.7714C22.9214 26.5447 22.9271 26.3103 22.9842 26.086C23.4118 24.3691 24.4711 22.9452 26.0473 21.9687C27.4464 21.1023 29.2273 20.625 31.0625 20.625C32.9338 20.625 34.668 21.082 36.0751 21.9479C37.6549 22.9193 38.7157 24.3513 39.1413 26.0891C39.1977 26.3135 39.2027 26.5479 39.156 26.7745C39.1092 27.0012 39.0118 27.2144 38.8711 27.3982C38.7389 27.5672 38.5697 27.7036 38.3766 27.7971C38.1835 27.8906 37.9715 27.9386 37.757 27.9375V27.9375ZM21.4648 19.2031C19.6779 19.2031 18.1067 17.5416 17.9609 15.4996C17.8888 14.4536 18.2148 13.4862 18.875 12.7768C19.5281 12.0745 20.4492 11.6875 21.4648 11.6875C22.4805 11.6875 23.3945 12.0765 24.0511 12.7829C24.7164 13.4979 25.0414 14.4632 24.9652 15.5007C24.8195 17.5421 23.2488 19.2031 21.4648 19.2031ZM24.7991 20.8002C23.9059 20.3635 22.7466 20.1451 21.4654 20.1451C19.9693 20.1451 18.5165 20.5351 17.3739 21.243C16.0785 22.0469 15.2071 23.2174 14.8552 24.6306C14.8037 24.8339 14.7988 25.0462 14.8409 25.2516C14.883 25.457 14.9711 25.6503 15.0984 25.8169C15.2192 25.972 15.374 26.0973 15.5509 26.1833C15.7278 26.2692 15.922 26.3134 16.1186 26.3125H21.7553C21.8505 26.3125 21.9426 26.2791 22.0156 26.2181C22.0886 26.1571 22.138 26.0725 22.155 25.9789C22.1605 25.9469 22.1677 25.9149 22.1758 25.8834C22.6064 24.1538 23.6154 22.6923 25.1064 21.6269C25.1612 21.5874 25.2053 21.5348 25.2347 21.4739C25.2641 21.413 25.2778 21.3458 25.2746 21.2783C25.2714 21.2107 25.2515 21.1451 25.2165 21.0872C25.1815 21.0294 25.1327 20.9812 25.0744 20.947C24.9947 20.9002 24.9032 20.851 24.7991 20.8002V20.8002Z" fill="white"/>
<path d="M10.0742 43V35H13.0742C13.6888 35 14.2044 35.1146 14.6211 35.3437C15.0403 35.5729 15.3568 35.888 15.5703 36.2891C15.7864 36.6875 15.8945 37.1406 15.8945 37.6484C15.8945 38.1615 15.7864 38.6172 15.5703 39.0156C15.3541 39.4141 15.0351 39.7279 14.6133 39.957C14.1914 40.1836 13.6719 40.2969 13.0547 40.2969H11.0664V39.1055H12.8594C13.2187 39.1055 13.513 39.043 13.7422 38.918C13.9713 38.793 14.1406 38.6211 14.25 38.4023C14.362 38.1836 14.4179 37.9323 14.4179 37.6484C14.4179 37.3646 14.362 37.1146 14.25 36.8984C14.1406 36.6823 13.97 36.5143 13.7383 36.3945C13.5091 36.2721 13.2135 36.2109 12.8515 36.2109H11.5234V43H10.0742ZM19.2531 43.1172C18.6516 43.1172 18.132 42.9922 17.6945 42.7422C17.2596 42.4896 16.925 42.1328 16.6906 41.6719C16.4562 41.2083 16.3391 40.6628 16.3391 40.0352C16.3391 39.418 16.4562 38.8763 16.6906 38.4102C16.9276 37.9414 17.2583 37.5768 17.6828 37.3164C18.1073 37.0534 18.606 36.9219 19.1789 36.9219C19.5487 36.9219 19.8976 36.9818 20.2258 37.1016C20.5565 37.2187 20.8482 37.401 21.1008 37.6484C21.356 37.8958 21.5565 38.2109 21.7023 38.5937C21.8482 38.974 21.9211 39.4271 21.9211 39.9531V40.3867H17.0031V39.4336H20.5656C20.563 39.1628 20.5044 38.9219 20.3898 38.7109C20.2752 38.4974 20.1151 38.3294 19.9094 38.207C19.7062 38.0846 19.4693 38.0234 19.1984 38.0234C18.9094 38.0234 18.6555 38.0937 18.4367 38.2344C18.218 38.3724 18.0474 38.5547 17.925 38.7812C17.8052 39.0052 17.744 39.2513 17.7414 39.5195V40.3516C17.7414 40.7005 17.8052 41 17.9328 41.25C18.0604 41.4974 18.2388 41.6875 18.468 41.8203C18.6971 41.9505 18.9654 42.0156 19.2726 42.0156C19.4784 42.0156 19.6646 41.987 19.8312 41.9297C19.9979 41.8698 20.1424 41.7826 20.2648 41.668C20.3872 41.5534 20.4797 41.4115 20.5422 41.2422L21.8625 41.3906C21.7792 41.7396 21.6203 42.0443 21.3859 42.3047C21.1542 42.5625 20.8573 42.763 20.4953 42.9062C20.1333 43.0469 19.7193 43.1172 19.2531 43.1172ZM25.3266 43.1172C24.7406 43.1172 24.2328 42.9883 23.8031 42.7305C23.3734 42.4727 23.0401 42.112 22.8031 41.6484C22.5687 41.1849 22.4516 40.6432 22.4516 40.0234C22.4516 39.4036 22.5687 38.8607 22.8031 38.3945C23.0401 37.9284 23.3734 37.5664 23.8031 37.3086C24.2328 37.0508 24.7406 36.9219 25.3266 36.9219C25.9125 36.9219 26.4203 37.0508 26.85 37.3086C27.2797 37.5664 27.6117 37.9284 27.8461 38.3945C28.0831 38.8607 28.2016 39.4036 28.2016 40.0234C28.2016 40.6432 28.0831 41.1849 27.8461 41.6484C27.6117 42.112 27.2797 42.4727 26.85 42.7305C26.4203 42.9883 25.9125 43.1172 25.3266 43.1172ZM25.3344 41.9844C25.6521 41.9844 25.9177 41.8971 26.1312 41.7227C26.3448 41.5456 26.5036 41.3086 26.6078 41.0117C26.7146 40.7148 26.768 40.3841 26.768 40.0195C26.768 39.6523 26.7146 39.3203 26.6078 39.0234C26.5036 38.724 26.3448 38.4857 26.1312 38.3086C25.9177 38.1315 25.6521 38.043 25.3344 38.043C25.0089 38.043 24.738 38.1315 24.5219 38.3086C24.3083 38.4857 24.1482 38.724 24.0414 39.0234C23.9372 39.3203 23.8852 39.6523 23.8852 40.0195C23.8852 40.3841 23.9372 40.7148 24.0414 41.0117C24.1482 41.3086 24.3083 41.5456 24.5219 41.7227C24.738 41.8971 25.0089 41.9844 25.3344 41.9844ZM28.9938 45.25V37H30.3844V37.9922H30.4664C30.5393 37.8464 30.6422 37.6914 30.775 37.5273C30.9078 37.3607 31.0875 37.2187 31.3141 37.1016C31.5406 36.9818 31.8297 36.9219 32.1813 36.9219C32.6448 36.9219 33.0628 37.0404 33.4352 37.2773C33.8102 37.5117 34.107 37.8594 34.3258 38.3203C34.5471 38.7786 34.6578 39.3411 34.6578 40.0078C34.6578 40.6667 34.5497 41.2266 34.3336 41.6875C34.1175 42.1484 33.8232 42.5 33.4508 42.7422C33.0784 42.9844 32.6565 43.1055 32.1852 43.1055C31.8414 43.1055 31.5563 43.0482 31.3297 42.9336C31.1031 42.819 30.9208 42.681 30.7828 42.5195C30.6474 42.3555 30.5419 42.2005 30.4664 42.0547H30.4078V45.25H28.9938ZM30.3805 40C30.3805 40.388 30.4352 40.7279 30.5445 41.0195C30.6565 41.3112 30.8167 41.5391 31.025 41.7031C31.2359 41.8646 31.4912 41.9453 31.7906 41.9453C32.1031 41.9453 32.3648 41.862 32.5758 41.6953C32.7867 41.526 32.9456 41.2956 33.0523 41.0039C33.1617 40.7096 33.2164 40.375 33.2164 40C33.2164 39.6276 33.163 39.2969 33.0563 39.0078C32.9495 38.7187 32.7906 38.4922 32.5797 38.3281C32.3688 38.1641 32.1057 38.082 31.7906 38.082C31.4885 38.082 31.232 38.1615 31.0211 38.3203C30.8102 38.4792 30.65 38.7018 30.5406 38.9883C30.4339 39.2747 30.3805 39.612 30.3805 40ZM36.8748 35V43H35.4608V35H36.8748ZM40.5772 43.1172C39.9756 43.1172 39.4561 42.9922 39.0186 42.7422C38.5837 42.4896 38.249 42.1328 38.0147 41.6719C37.7803 41.2083 37.6631 40.6628 37.6631 40.0352C37.6631 39.418 37.7803 38.8763 38.0147 38.4102C38.2516 37.9414 38.5824 37.5768 39.0069 37.3164C39.4313 37.0534 39.93 36.9219 40.5029 36.9219C40.8727 36.9219 41.2217 36.9818 41.5498 37.1016C41.8806 37.2187 42.1722 37.401 42.4248 37.6484C42.68 37.8958 42.8806 38.2109 43.0264 38.5937C43.1722 38.974 43.2451 39.4271 43.2451 39.9531V40.3867H38.3272V39.4336H41.8897C41.8871 39.1628 41.8285 38.9219 41.7139 38.7109C41.5993 38.4974 41.4391 38.3294 41.2334 38.207C41.0303 38.0846 40.7933 38.0234 40.5225 38.0234C40.2334 38.0234 39.9795 38.0937 39.7608 38.2344C39.542 38.3724 39.3714 38.5547 39.249 38.7812C39.1293 39.0052 39.0681 39.2513 39.0654 39.5195V40.3516C39.0654 40.7005 39.1293 41 39.2569 41.25C39.3845 41.4974 39.5628 41.6875 39.792 41.8203C40.0212 41.9505 40.2894 42.0156 40.5967 42.0156C40.8024 42.0156 40.9886 41.987 41.1553 41.9297C41.322 41.8698 41.4665 41.7826 41.5889 41.668C41.7113 41.5534 41.8037 41.4115 41.8662 41.2422L43.1865 41.3906C43.1032 41.7396 42.9444 42.0443 42.71 42.3047C42.4782 42.5625 42.1813 42.763 41.8194 42.9062C41.4574 43.0469 41.0433 43.1172 40.5772 43.1172Z" fill="white"/>
</svg>
