<svg width="28" height="26" viewBox="0 0 28 26" fill="none" xmlns="http://www.w3.org/2000/svg">
<path d="M15.4495 19.5C15.4495 19.8214 15.3527 20.1356 15.1714 20.4028C14.99 20.67 14.7322 20.8783 14.4306 21.0013C14.129 21.1243 13.7971 21.1565 13.477 21.0938C13.1568 21.0311 12.8627 20.8763 12.6319 20.649C12.401 20.4218 12.2438 20.1322 12.1802 19.817C12.1165 19.5018 12.1492 19.1751 12.2741 18.8781C12.399 18.5812 12.6106 18.3274 12.882 18.1489C13.1534 17.9703 13.4725 17.875 13.799 17.875C14.2367 17.875 14.6566 18.0462 14.9661 18.351C15.2756 18.6557 15.4495 19.069 15.4495 19.5ZM13.799 8.125C14.1254 8.125 14.4445 8.0297 14.716 7.85114C14.9874 7.67258 15.199 7.41879 15.3239 7.12186C15.4488 6.82493 15.4815 6.4982 15.4178 6.18298C15.3541 5.86776 15.1969 5.57821 14.9661 5.35095C14.7353 5.12369 14.4412 4.96893 14.121 4.90622C13.8008 4.84352 13.4689 4.8757 13.1673 4.9987C12.8657 5.12169 12.608 5.32997 12.4266 5.5972C12.2452 5.86443 12.1484 6.17861 12.1484 6.5C12.1484 6.93098 12.3223 7.3443 12.6319 7.64905C12.9414 7.9538 13.3612 8.125 13.799 8.125ZM13.799 11.375C13.4725 11.375 13.1534 11.4703 12.882 11.6489C12.6106 11.8274 12.399 12.0812 12.2741 12.3781C12.1492 12.6751 12.1165 13.0018 12.1802 13.317C12.2438 13.6322 12.401 13.9218 12.6319 14.149C12.8627 14.3763 13.1568 14.5311 13.477 14.5938C13.7971 14.6565 14.129 14.6243 14.4306 14.5013C14.7322 14.3783 14.99 14.17 15.1714 13.9028C15.3527 13.6356 15.4495 13.3214 15.4495 13C15.4495 12.569 15.2756 12.1557 14.9661 11.851C14.6566 11.5462 14.2367 11.375 13.799 11.375Z" fill="#949191"/>
</svg>
