<svg width="54" height="34" viewBox="0 0 54 34" fill="none" xmlns="http://www.w3.org/2000/svg">
<path d="M10.7246 33V25H15.9277V26.2148H12.1738V28.3867H15.6582V29.6016H12.1738V31.7852H15.959V33H10.7246ZM22.2951 27L20.1584 33H18.5959L16.4592 27H17.967L19.3459 31.457H19.4084L20.7912 27H22.2951ZM25.3178 33.1172C24.7162 33.1172 24.1967 32.9922 23.7592 32.7422C23.3243 32.4896 22.9896 32.1328 22.7553 31.6719C22.5209 31.2083 22.4037 30.6628 22.4037 30.0352C22.4037 29.418 22.5209 28.8763 22.7553 28.4102C22.9922 27.9414 23.323 27.5768 23.7475 27.3164C24.1719 27.0534 24.6706 26.9219 25.2436 26.9219C25.6133 26.9219 25.9623 26.9818 26.2904 27.1016C26.6212 27.2187 26.9128 27.401 27.1654 27.6484C27.4206 27.8958 27.6212 28.2109 27.767 28.5937C27.9128 28.974 27.9857 29.4271 27.9857 29.9531V30.3867H23.0678V29.4336H26.6303C26.6277 29.1628 26.5691 28.9219 26.4545 28.7109C26.3399 28.4974 26.1797 28.3294 25.974 28.207C25.7709 28.0846 25.5339 28.0234 25.2631 28.0234C24.974 28.0234 24.7201 28.0937 24.5014 28.2344C24.2826 28.3724 24.112 28.5547 23.9896 28.7812C23.8699 29.0052 23.8087 29.2513 23.8061 29.5195V30.3516C23.8061 30.7005 23.8699 31 23.9975 31.25C24.1251 31.4974 24.3034 31.6875 24.5326 31.8203C24.7618 31.9505 25.03 32.0156 25.3373 32.0156C25.543 32.0156 25.7292 31.987 25.8959 31.9297C26.0626 31.8698 26.2071 31.7826 26.3295 31.668C26.4519 31.5534 26.5443 31.4115 26.6068 31.2422L27.9271 31.3906C27.8438 31.7396 27.685 32.0443 27.4506 32.3047C27.2188 32.5625 26.9219 32.763 26.56 32.9062C26.198 33.0469 25.7839 33.1172 25.3178 33.1172ZM30.1881 29.4844V33H28.774V27H30.1256V28.0195H30.1959C30.3339 27.6836 30.554 27.4167 30.8561 27.2187C31.1607 27.0208 31.537 26.9219 31.985 26.9219C32.399 26.9219 32.7597 27.0104 33.067 27.1875C33.3769 27.3646 33.6165 27.6211 33.7857 27.957C33.9576 28.293 34.0423 28.7005 34.0397 29.1797V33H32.6256V29.3984C32.6256 28.9974 32.5214 28.6836 32.3131 28.457C32.1074 28.2305 31.8222 28.1172 31.4576 28.1172C31.2102 28.1172 30.9902 28.1719 30.7975 28.2812C30.6074 28.388 30.4576 28.543 30.3482 28.7461C30.2415 28.9492 30.1881 29.1953 30.1881 29.4844ZM38.0652 27V28.0937H34.616V27H38.0652ZM35.4676 25.5625H36.8817V31.1953C36.8817 31.3854 36.9103 31.5313 36.9676 31.6328C37.0275 31.7318 37.1056 31.7995 37.202 31.8359C37.2983 31.8724 37.4051 31.8906 37.5223 31.8906C37.6108 31.8906 37.6915 31.8841 37.7645 31.8711C37.84 31.8581 37.8973 31.8464 37.9363 31.8359L38.1746 32.9414C38.0991 32.9674 37.991 32.9961 37.8504 33.0273C37.7124 33.0586 37.5431 33.0768 37.3426 33.082C36.9884 33.0924 36.6694 33.0391 36.3856 32.9219C36.1017 32.8021 35.8764 32.6172 35.7098 32.3672C35.5457 32.1172 35.465 31.8047 35.4676 31.4297V25.5625ZM43.4961 28.5859L42.2071 28.7266C42.1706 28.5964 42.1068 28.474 42.0156 28.3594C41.9271 28.2448 41.8073 28.1523 41.6563 28.082C41.5052 28.0117 41.3203 27.9766 41.1016 27.9766C40.8073 27.9766 40.5599 28.0404 40.3594 28.168C40.1615 28.2956 40.0638 28.4609 40.0664 28.6641C40.0638 28.8385 40.1276 28.9805 40.2578 29.0898C40.3906 29.1992 40.6094 29.2891 40.9141 29.3594L41.9375 29.5781C42.5052 29.7005 42.9271 29.8945 43.2031 30.1602C43.4818 30.4258 43.6224 30.7734 43.625 31.2031C43.6224 31.5807 43.5117 31.9141 43.293 32.2031C43.0768 32.4896 42.7761 32.7135 42.3906 32.875C42.0052 33.0365 41.5625 33.1172 41.0625 33.1172C40.3281 33.1172 39.737 32.9635 39.2891 32.6562C38.8412 32.3464 38.5742 31.9154 38.4883 31.3633L39.8672 31.2305C39.9297 31.5013 40.0625 31.7057 40.2656 31.8437C40.4688 31.9818 40.7331 32.0508 41.0586 32.0508C41.3946 32.0508 41.6641 31.9818 41.8672 31.8437C42.0729 31.7057 42.1758 31.5352 42.1758 31.332C42.1758 31.1602 42.1094 31.0182 41.9766 30.9062C41.8464 30.7943 41.6432 30.7083 41.3672 30.6484L40.3438 30.4336C39.7682 30.3138 39.3425 30.112 39.0664 29.8281C38.7904 29.5417 38.6537 29.1797 38.6563 28.7422C38.6537 28.3724 38.7539 28.0521 38.9571 27.7812C39.1628 27.5078 39.4479 27.2969 39.8125 27.1484C40.1797 26.9974 40.6029 26.9219 41.0821 26.9219C41.7852 26.9219 42.3386 27.0716 42.7422 27.3711C43.1485 27.6706 43.3998 28.0755 43.4961 28.5859Z" fill="#696767"/>
<path d="M39 5.71533C37.3207 5.62298 35.6547 6.05929 34.2364 6.96286C33.8934 6.57242 33.5409 6.18197 33.1694 5.81057L32.8931 5.55344L33.0265 5.43916C33.4924 5.03939 33.8244 4.50639 33.9777 3.91207C34.1311 3.31776 34.0983 2.69073 33.8839 2.1156C33.5742 1.46629 33.0825 0.920862 32.4686 0.545561C31.8547 0.17026 31.1449 -0.0187575 30.4256 0.001469V1.90609C30.7645 1.90137 31.0986 1.98714 31.3934 2.15454C31.6881 2.32194 31.9329 2.56492 32.1023 2.8584C32.2643 3.23933 32.1023 3.65834 31.6546 4.10593L31.4354 4.30591C30.4417 3.47822 29.3507 2.77467 28.1867 2.21083C25.7763 1.1252 24.5378 1.62992 23.928 2.21083C23.7423 2.397 23.5935 2.61675 23.4898 2.8584L23.3183 3.36313L21.9464 7.49616C23.0325 10.2007 25.662 15.0099 31.3783 17.0859L36.1419 15.5051C36.3025 15.4453 36.444 15.3433 36.5515 15.2099L36.7516 15.0385C38.114 13.6671 37.2375 11.0292 35.4083 8.46751C36.4944 7.8339 37.745 7.53878 39 7.61996V5.71533ZM35.3892 13.6862H35.332C34.6747 14.0385 31.9499 13.1434 28.8631 10.0579C28.5392 9.73409 28.2343 9.41982 27.958 9.10556C27.8628 9.00081 27.777 8.88653 27.6817 8.77225L27.1768 8.16277L26.91 7.79137C26.7767 7.61043 26.6433 7.42949 26.529 7.25808C26.4146 7.08666 26.3765 7.01048 26.3003 6.88668C26.2241 6.76288 26.0907 6.56289 26.005 6.401C25.9192 6.23911 25.8811 6.17244 25.8239 6.04864C25.7668 5.92484 25.662 5.782 25.6048 5.64867C25.5477 5.51535 25.5191 5.42964 25.4714 5.32489C25.4238 5.22013 25.3666 5.06776 25.3285 4.94396C25.2904 4.82016 25.2809 4.76302 25.2618 4.66779C25.2428 4.57256 25.2047 4.43924 25.1856 4.34401C25.1811 4.26789 25.1811 4.19157 25.1856 4.11545C25.1763 4.03318 25.1763 3.95012 25.1856 3.86785L25.2904 3.57264C25.4524 3.40122 26.1574 3.3536 27.415 3.92499C28.2554 4.32857 29.0506 4.82017 29.7872 5.39155C29.3857 5.56871 28.9575 5.67812 28.5201 5.71533V7.61996C29.5323 7.56256 30.5143 7.25497 31.3783 6.72478L31.8451 7.16285C32.2643 7.57234 32.6359 7.98183 32.9788 8.37228C32.4044 9.35139 32.1762 10.4952 32.331 11.6197L34.2364 11.2483C34.172 10.8892 34.172 10.5216 34.2364 10.1626C35.4654 12.0387 35.6941 13.391 35.3892 13.6862ZM21.2795 9.52458L19.1549 15.9051C19.0016 16.3735 18.9613 16.8716 19.0374 17.3586C19.1136 17.8455 19.3039 18.3076 19.5929 18.707C19.8818 19.1063 20.2612 19.4317 20.7001 19.6564C21.139 19.8812 21.6248 19.9989 22.1179 20C22.442 19.9968 22.7636 19.9422 23.0706 19.8381L29.2823 17.7716C25.7764 15.9819 22.9623 13.0819 21.2795 9.52458Z" fill="#696767"/>
</svg>
