<svg width="52" height="40" viewBox="0 0 52 40" fill="none" xmlns="http://www.w3.org/2000/svg">
<path d="M10 8.63143C10 3.86314 13.4937 0 17.8043 0H23.8959C28.2073 0 31.7002 3.864 31.7002 8.63143C31.7002 13.3971 28.2065 17.262 23.8959 17.262H19.3001V21.4286C19.3001 21.4286 10 19.3457 10 8.63143Z" fill="#949191"/>
<path d="M25.8711 18.7432C27.0327 19.9796 28.5827 20.6691 30.1949 20.6666H32.4765V24C32.4765 24 41.0016 22.3337 41.0016 13.7623C41.0016 11.9311 40.3439 10.1749 39.1732 8.87995C38.0025 7.58501 36.4146 6.85741 34.7589 6.85718H33.0461C33.1802 7.41946 33.2515 8.01003 33.2515 8.61946C33.2515 13.5857 30.0895 17.736 25.8711 18.7432Z" fill="#949191"/>
<path d="M7.97898 33V25H13.104V26.2148H9.4282V28.3867H12.7524V29.6016H9.4282V33H7.97898ZM16.1306 33.1172C15.5446 33.1172 15.0368 32.9883 14.6071 32.7305C14.1774 32.4727 13.8441 32.112 13.6071 31.6484C13.3727 31.1849 13.2556 30.6432 13.2556 30.0234C13.2556 29.4036 13.3727 28.8607 13.6071 28.3945C13.8441 27.9284 14.1774 27.5664 14.6071 27.3086C15.0368 27.0508 15.5446 26.9219 16.1306 26.9219C16.7165 26.9219 17.2243 27.0508 17.654 27.3086C18.0837 27.5664 18.4157 27.9284 18.6501 28.3945C18.8871 28.8607 19.0056 29.4036 19.0056 30.0234C19.0056 30.6432 18.8871 31.1849 18.6501 31.6484C18.4157 32.112 18.0837 32.4727 17.654 32.7305C17.2243 32.9883 16.7165 33.1172 16.1306 33.1172ZM16.1384 31.9844C16.4561 31.9844 16.7217 31.8971 16.9352 31.7227C17.1488 31.5456 17.3076 31.3086 17.4118 31.0117C17.5186 30.7148 17.572 30.3841 17.572 30.0195C17.572 29.6523 17.5186 29.3203 17.4118 29.0234C17.3076 28.724 17.1488 28.4857 16.9352 28.3086C16.7217 28.1315 16.4561 28.043 16.1384 28.043C15.8128 28.043 15.542 28.1315 15.3259 28.3086C15.1123 28.4857 14.9522 28.724 14.8454 29.0234C14.7412 29.3203 14.6891 29.6523 14.6891 30.0195C14.6891 30.3841 14.7412 30.7148 14.8454 31.0117C14.9522 31.3086 15.1123 31.5456 15.3259 31.7227C15.542 31.8971 15.8128 31.9844 16.1384 31.9844ZM19.7978 33V27H21.1688V28H21.2313C21.3407 27.6536 21.5282 27.3867 21.7938 27.1992C22.0621 27.0091 22.3681 26.9141 22.7118 26.9141C22.7899 26.9141 22.8772 26.918 22.9735 26.9258C23.0725 26.931 23.1545 26.9401 23.2196 26.9531V28.2539C23.1597 28.2331 23.0647 28.2148 22.9345 28.1992C22.8069 28.181 22.6832 28.1719 22.5634 28.1719C22.3056 28.1719 22.0738 28.2279 21.8681 28.3398C21.6649 28.4492 21.5048 28.6016 21.3876 28.7969C21.2704 28.9922 21.2118 29.2174 21.2118 29.4727V33H19.7978ZM27.5753 30.4766V27H28.9894V33H27.6183V31.9336H27.5558C27.4204 32.2695 27.1977 32.5443 26.8878 32.7578C26.5805 32.9714 26.2016 33.0781 25.7511 33.0781C25.3579 33.0781 25.0102 32.9909 24.7081 32.8164C24.4086 32.6393 24.1743 32.3828 24.005 32.0469C23.8357 31.7083 23.7511 31.2995 23.7511 30.8203V27H25.1651V30.6016C25.1651 30.9818 25.2693 31.2839 25.4776 31.5078C25.686 31.7318 25.9594 31.8437 26.298 31.8437C26.5063 31.8437 26.7081 31.793 26.9034 31.6914C27.0987 31.5898 27.2589 31.4388 27.3839 31.2383C27.5115 31.0352 27.5753 30.7812 27.5753 30.4766ZM30.0355 33V27H31.387V28.0195H31.4573C31.5823 27.6758 31.7894 27.4076 32.0784 27.2148C32.3675 27.0195 32.7125 26.9219 33.1136 26.9219C33.5198 26.9219 33.8623 27.0208 34.1409 27.2187C34.4222 27.4141 34.6201 27.681 34.7347 28.0195H34.7972C34.93 27.6862 35.154 27.4206 35.4691 27.2227C35.7868 27.0221 36.1631 26.9219 36.598 26.9219C37.15 26.9219 37.6006 27.0964 37.9495 27.4453C38.2985 27.7943 38.473 28.3034 38.473 28.9727V33H37.055V29.1914C37.055 28.819 36.956 28.5469 36.7581 28.375C36.5602 28.2005 36.318 28.1133 36.0316 28.1133C35.6904 28.1133 35.4235 28.2201 35.2308 28.4336C35.0407 28.6445 34.9456 28.9193 34.9456 29.2578V33H33.5589V29.1328C33.5589 28.8229 33.4651 28.5755 33.2776 28.3906C33.0928 28.2057 32.8506 28.1133 32.5511 28.1133C32.348 28.1133 32.1631 28.1654 31.9964 28.2695C31.8297 28.3711 31.6969 28.5156 31.598 28.7031C31.499 28.888 31.4495 29.1042 31.4495 29.3516V33H30.0355ZM44.2417 28.5859L42.9527 28.7266C42.9162 28.5964 42.8524 28.474 42.7612 28.3594C42.6727 28.2448 42.5529 28.1523 42.4019 28.082C42.2508 28.0117 42.0659 27.9766 41.8472 27.9766C41.5529 27.9766 41.3055 28.0404 41.105 28.168C40.9071 28.2956 40.8094 28.4609 40.812 28.6641C40.8094 28.8385 40.8732 28.9805 41.0034 29.0898C41.1362 29.1992 41.355 29.2891 41.6597 29.3594L42.6831 29.5781C43.2508 29.7005 43.6727 29.8945 43.9487 30.1602C44.2274 30.4258 44.368 30.7734 44.3706 31.2031C44.368 31.5807 44.2573 31.9141 44.0386 32.2031C43.8224 32.4896 43.5217 32.7135 43.1362 32.875C42.7508 33.0365 42.3081 33.1172 41.8081 33.1172C41.0737 33.1172 40.4826 32.9635 40.0347 32.6562C39.5868 32.3464 39.3198 31.9154 39.2339 31.3633L40.6128 31.2305C40.6753 31.5013 40.8081 31.7057 41.0112 31.8437C41.2144 31.9818 41.4787 32.0508 41.8042 32.0508C42.1402 32.0508 42.4097 31.9818 42.6128 31.8437C42.8185 31.7057 42.9214 31.5352 42.9214 31.332C42.9214 31.1602 42.855 31.0182 42.7222 30.9062C42.592 30.7943 42.3889 30.7083 42.1128 30.6484L41.0894 30.4336C40.5139 30.3138 40.0881 30.112 39.812 29.8281C39.536 29.5417 39.3993 29.1797 39.4019 28.7422C39.3993 28.3724 39.4995 28.0521 39.7027 27.7812C39.9084 27.5078 40.1935 27.2969 40.5581 27.1484C40.9253 26.9974 41.3485 26.9219 41.8277 26.9219C42.5308 26.9219 43.0842 27.0716 43.4878 27.3711C43.8941 27.6706 44.1454 28.0755 44.2417 28.5859Z" fill="#949191"/>
</svg>
