<svg width="54" height="49" viewBox="0 0 54 49" fill="none" xmlns="http://www.w3.org/2000/svg">
<path fill-rule="evenodd" clip-rule="evenodd" d="M32.3332 13.125C32.3332 14.6721 31.7186 16.1558 30.6246 17.2498C29.5307 18.3437 28.0469 18.9583 26.4998 18.9583C24.9527 18.9583 23.469 18.3437 22.375 17.2498C21.2811 16.1558 20.6665 14.6721 20.6665 13.125C20.6665 11.5779 21.2811 10.0941 22.375 9.00017C23.469 7.90621 24.9527 7.29163 26.4998 7.29163C28.0469 7.29163 29.5307 7.90621 30.6246 9.00017C31.7186 10.0941 32.3332 11.5779 32.3332 13.125V13.125ZM29.4165 13.125C29.4165 13.8985 29.1092 14.6404 28.5622 15.1874C28.0153 15.7343 27.2734 16.0416 26.4998 16.0416C25.7263 16.0416 24.9844 15.7343 24.4374 15.1874C23.8905 14.6404 23.5832 13.8985 23.5832 13.125C23.5832 12.3514 23.8905 11.6095 24.4374 11.0626C24.9844 10.5156 25.7263 10.2083 26.4998 10.2083C27.2734 10.2083 28.0153 10.5156 28.5622 11.0626C29.1092 11.6095 29.4165 12.3514 29.4165 13.125V13.125Z" fill="#949191"/>
<path fill-rule="evenodd" clip-rule="evenodd" d="M26.4999 1.45831C17.6405 1.45831 10.4583 8.64061 10.4583 17.5C10.4583 26.3594 17.6405 33.5416 26.4999 33.5416C35.3593 33.5416 42.5416 26.3594 42.5416 17.5C42.5416 8.64061 35.3593 1.45831 26.4999 1.45831ZM13.3749 17.5C13.3749 20.5479 14.4147 23.3537 16.1574 25.5821C17.3813 23.9748 18.9602 22.6723 20.7708 21.7763C22.5813 20.8802 24.5745 20.4149 26.5947 20.4166C28.5887 20.4148 30.5569 20.868 32.3492 21.742C34.1415 22.6159 35.7107 23.8874 36.9372 25.4596C38.2008 23.8023 39.0516 21.868 39.4191 19.8167C39.7867 17.7653 39.6606 15.656 39.0511 13.6631C38.4416 11.6702 37.3663 9.85109 35.9142 8.35628C34.4621 6.86148 32.6749 5.73394 30.7005 5.06697C28.7261 4.4 26.6213 4.21277 24.5601 4.52077C22.499 4.82878 20.5409 5.62316 18.8477 6.83818C17.1546 8.05321 15.7751 9.65396 14.8234 11.508C13.8717 13.362 13.3752 15.416 13.3749 17.5V17.5ZM26.4999 30.625C23.4869 30.6295 20.5649 29.593 18.2283 27.6908C19.1688 26.3444 20.4206 25.2451 21.8773 24.4864C23.3339 23.7277 24.9523 23.3321 26.5947 23.3333C28.2166 23.332 29.8154 23.7177 31.2584 24.4583C32.7013 25.1989 33.9467 26.2731 34.8912 27.5916C32.5364 29.5556 29.5662 30.6293 26.4999 30.625V30.625Z" fill="#949191"/>
<path d="M9.84349 48V38.5455H13.0381C13.7798 38.5455 14.3861 38.6793 14.857 38.9471C15.3309 39.2118 15.6818 39.5703 15.9095 40.0227C16.1373 40.4751 16.2512 40.9799 16.2512 41.5369C16.2512 42.094 16.1373 42.6003 15.9095 43.0558C15.6849 43.5112 15.3371 43.8744 14.8662 44.1452C14.3953 44.413 13.7921 44.5469 13.0566 44.5469H10.7668V43.5312H13.0196C13.5274 43.5312 13.9352 43.4435 14.243 43.2681C14.5508 43.0927 14.7739 42.8557 14.9124 42.5572C15.054 42.2556 15.1247 41.9155 15.1247 41.5369C15.1247 41.1584 15.054 40.8198 14.9124 40.5213C14.7739 40.2228 14.5492 39.9889 14.2384 39.8196C13.9275 39.6473 13.5151 39.5611 13.0012 39.5611H10.9884V48H9.84349ZM17.5397 48V40.9091H18.5923V41.9801H18.6661C18.7954 41.6293 19.0293 41.3446 19.3678 41.1261C19.7064 40.9076 20.088 40.7983 20.5127 40.7983C20.5928 40.7983 20.6928 40.7998 20.8128 40.8029C20.9328 40.806 21.0236 40.8106 21.0852 40.8168V41.9247C21.0482 41.9155 20.9636 41.9016 20.8313 41.8832C20.702 41.8616 20.5651 41.8509 20.4204 41.8509C20.0757 41.8509 19.7679 41.9232 19.4971 42.0678C19.2294 42.2094 19.017 42.4064 18.86 42.6587C18.7061 42.908 18.6292 43.1927 18.6292 43.5128V48H17.5397ZM24.6335 48.1477C23.9933 48.1477 23.4317 47.9954 22.9485 47.6907C22.4684 47.386 22.0929 46.9598 21.8221 46.4119C21.5543 45.8641 21.4204 45.224 21.4204 44.4915C21.4204 43.7528 21.5543 43.1081 21.8221 42.5572C22.0929 42.0063 22.4684 41.5785 22.9485 41.2738C23.4317 40.9691 23.9933 40.8168 24.6335 40.8168C25.2736 40.8168 25.8338 40.9691 26.3139 41.2738C26.7971 41.5785 27.1726 42.0063 27.4403 42.5572C27.7111 43.1081 27.8466 43.7528 27.8466 44.4915C27.8466 45.224 27.7111 45.8641 27.4403 46.4119C27.1726 46.9598 26.7971 47.386 26.3139 47.6907C25.8338 47.9954 25.2736 48.1477 24.6335 48.1477ZM24.6335 47.169C25.1198 47.169 25.5199 47.0444 25.8338 46.7951C26.1477 46.5458 26.3801 46.218 26.5309 45.8118C26.6817 45.4055 26.7571 44.9654 26.7571 44.4915C26.7571 44.0175 26.6817 43.5759 26.5309 43.1665C26.3801 42.7572 26.1477 42.4264 25.8338 42.174C25.5199 41.9216 25.1198 41.7955 24.6335 41.7955C24.1472 41.7955 23.7471 41.9216 23.4332 42.174C23.1193 42.4264 22.8869 42.7572 22.7361 43.1665C22.5853 43.5759 22.5099 44.0175 22.5099 44.4915C22.5099 44.9654 22.5853 45.4055 22.7361 45.8118C22.8869 46.218 23.1193 46.5458 23.4332 46.7951C23.7471 47.0444 24.1472 47.169 24.6335 47.169ZM32.2593 40.9091V41.8324H28.4369V40.9091H32.2593ZM29.5818 48V39.9304C29.5818 39.5241 29.6772 39.1856 29.868 38.9148C30.0588 38.6439 30.3066 38.4408 30.6112 38.3054C30.9159 38.17 31.2375 38.1023 31.5761 38.1023C31.8438 38.1023 32.0624 38.1238 32.2316 38.1669C32.4009 38.21 32.5271 38.25 32.6102 38.2869L32.2963 39.2287C32.2409 39.2102 32.1639 39.1871 32.0654 39.1594C31.97 39.1317 31.8438 39.1179 31.6869 39.1179C31.3268 39.1179 31.0667 39.2087 30.9067 39.3903C30.7497 39.5719 30.6713 39.8381 30.6713 40.1889V48H29.5818ZM33.3782 48V40.9091H34.4677V48H33.3782ZM33.9322 39.7273C33.7198 39.7273 33.5367 39.6549 33.3828 39.5103C33.232 39.3656 33.1566 39.1918 33.1566 38.9886C33.1566 38.7855 33.232 38.6116 33.3828 38.467C33.5367 38.3223 33.7198 38.25 33.9322 38.25C34.1446 38.25 34.3261 38.3223 34.4769 38.467C34.6308 38.6116 34.7078 38.7855 34.7078 38.9886C34.7078 39.1918 34.6308 39.3656 34.4769 39.5103C34.3261 39.6549 34.1446 39.7273 33.9322 39.7273ZM37.1447 38.5455V48H36.0552V38.5455H37.1447ZM41.7052 48.1477C41.0219 48.1477 40.4325 47.9969 39.937 47.6953C39.4446 47.3906 39.0645 46.9659 38.7968 46.4212C38.5321 45.8733 38.3998 45.2363 38.3998 44.5099C38.3998 43.7836 38.5321 43.1435 38.7968 42.5895C39.0645 42.0324 39.4369 41.5985 39.914 41.2876C40.3941 40.9737 40.9542 40.8168 41.5944 40.8168C41.9637 40.8168 42.3284 40.8783 42.6885 41.0014C43.0486 41.1245 43.3763 41.3246 43.6718 41.6016C43.9672 41.8755 44.2027 42.2386 44.3781 42.6911C44.5535 43.1435 44.6412 43.7005 44.6412 44.3622V44.8239H39.1753V43.8821H43.5333C43.5333 43.482 43.4533 43.125 43.2932 42.8111C43.1363 42.4972 42.9116 42.2494 42.6192 42.0678C42.3299 41.8862 41.9883 41.7955 41.5944 41.7955C41.1604 41.7955 40.7849 41.9032 40.4679 42.1186C40.154 42.331 39.9124 42.608 39.7432 42.9496C39.5739 43.2912 39.4892 43.6574 39.4892 44.0483V44.6761C39.4892 45.2116 39.5816 45.6656 39.7662 46.038C39.954 46.4073 40.214 46.6889 40.5464 46.8828C40.8788 47.0736 41.2651 47.169 41.7052 47.169C41.9914 47.169 42.2499 47.129 42.4807 47.049C42.7146 46.9659 42.9162 46.8428 43.0855 46.6797C43.2548 46.5135 43.3856 46.3073 43.4779 46.0611L44.5304 46.3565C44.4196 46.7135 44.2334 47.0275 43.9718 47.2983C43.7102 47.5661 43.3871 47.7753 43.0024 47.9261C42.6177 48.0739 42.1853 48.1477 41.7052 48.1477Z" fill="#949191"/>
</svg>
