<svg width="52" height="35" viewBox="0 0 52 35" fill="none" xmlns="http://www.w3.org/2000/svg">
<path d="M33.168 1.91675H17.8346C16.7805 1.91675 15.9276 2.77925 15.9276 3.83341L15.918 21.0834L19.7513 17.2501H33.168C34.2221 17.2501 35.0846 16.3876 35.0846 15.3334V3.83341C35.0846 2.77925 34.2221 1.91675 33.168 1.91675ZM30.293 13.4167H20.7096C20.1826 13.4167 19.7513 12.9855 19.7513 12.4584C19.7513 11.9313 20.1826 11.5001 20.7096 11.5001H30.293C30.8201 11.5001 31.2513 11.9313 31.2513 12.4584C31.2513 12.9855 30.8201 13.4167 30.293 13.4167ZM30.293 10.5417H20.7096C20.1826 10.5417 19.7513 10.1105 19.7513 9.58342C19.7513 9.05633 20.1826 8.62508 20.7096 8.62508H30.293C30.8201 8.62508 31.2513 9.05633 31.2513 9.58342C31.2513 10.1105 30.8201 10.5417 30.293 10.5417ZM30.293 7.66675H20.7096C20.1826 7.66675 19.7513 7.2355 19.7513 6.70841C19.7513 6.18133 20.1826 5.75008 20.7096 5.75008H30.293C30.8201 5.75008 31.2513 6.18133 31.2513 6.70841C31.2513 7.2355 30.8201 7.66675 30.293 7.66675Z" fill="#949191"/>
<path d="M12.754 32V24H15.8165C16.3946 24 16.8751 24.0911 17.2579 24.2734C17.6433 24.4531 17.9311 24.6992 18.1212 25.0117C18.3139 25.3242 18.4102 25.6784 18.4102 26.0742C18.4102 26.3997 18.3477 26.6784 18.2227 26.9102C18.0977 27.1393 17.9298 27.3255 17.7188 27.4687C17.5079 27.612 17.2722 27.7148 17.0118 27.7773V27.8555C17.2957 27.8711 17.5678 27.9583 17.8282 28.1172C18.0912 28.2734 18.3061 28.4948 18.4727 28.7812C18.6394 29.0677 18.7227 29.4141 18.7227 29.8203C18.7227 30.2344 18.6225 30.6068 18.422 30.9375C18.2214 31.2656 17.9194 31.5247 17.5157 31.7148C17.1121 31.9049 16.6042 32 15.9923 32H12.754ZM14.2032 30.7891H15.7618C16.2878 30.7891 16.6667 30.6888 16.8985 30.4883C17.1329 30.2852 17.2501 30.0247 17.2501 29.707C17.2501 29.4701 17.1915 29.2565 17.0743 29.0664C16.9571 28.8737 16.7904 28.7227 16.5743 28.6133C16.3582 28.5013 16.1003 28.4453 15.8009 28.4453H14.2032V30.7891ZM14.2032 27.4023H15.6368C15.8868 27.4023 16.1121 27.3568 16.3126 27.2656C16.5131 27.1719 16.6707 27.0404 16.7852 26.8711C16.9024 26.6992 16.961 26.4961 16.961 26.2617C16.961 25.9518 16.8516 25.6966 16.6329 25.4961C16.4167 25.2956 16.0951 25.1953 15.6681 25.1953H14.2032V27.4023ZM20.927 24V32H19.513V24H20.927ZM24.5903 32.1172C24.0044 32.1172 23.4966 31.9883 23.0669 31.7305C22.6372 31.4727 22.3039 31.112 22.0669 30.6484C21.8325 30.1849 21.7153 29.6432 21.7153 29.0234C21.7153 28.4036 21.8325 27.8607 22.0669 27.3945C22.3039 26.9284 22.6372 26.5664 23.0669 26.3086C23.4966 26.0508 24.0044 25.9219 24.5903 25.9219C25.1763 25.9219 25.6841 26.0508 26.1138 26.3086C26.5435 26.5664 26.8755 26.9284 27.1099 27.3945C27.3468 27.8607 27.4653 28.4036 27.4653 29.0234C27.4653 29.6432 27.3468 30.1849 27.1099 30.6484C26.8755 31.112 26.5435 31.4727 26.1138 31.7305C25.6841 31.9883 25.1763 32.1172 24.5903 32.1172ZM24.5981 30.9844C24.9159 30.9844 25.1815 30.8971 25.395 30.7227C25.6086 30.5456 25.7674 30.3086 25.8716 30.0117C25.9784 29.7148 26.0317 29.3841 26.0317 29.0195C26.0317 28.6523 25.9784 28.3203 25.8716 28.0234C25.7674 27.724 25.6086 27.4857 25.395 27.3086C25.1815 27.1315 24.9159 27.043 24.5981 27.043C24.2726 27.043 24.0018 27.1315 23.7856 27.3086C23.5721 27.4857 23.4119 27.724 23.3052 28.0234C23.201 28.3203 23.1489 28.6523 23.1489 29.0195C23.1489 29.3841 23.201 29.7148 23.3052 30.0117C23.4119 30.3086 23.5721 30.5456 23.7856 30.7227C24.0018 30.8971 24.2726 30.9844 24.5981 30.9844ZM30.8669 34.375C30.3591 34.375 29.9229 34.306 29.5583 34.168C29.1937 34.0326 28.9008 33.8503 28.6794 33.6211C28.458 33.3919 28.3044 33.138 28.2185 32.8594L29.4919 32.5508C29.5492 32.668 29.6325 32.7839 29.7419 32.8984C29.8513 33.0156 29.9984 33.112 30.1833 33.1875C30.3708 33.2656 30.6065 33.3047 30.8903 33.3047C31.2914 33.3047 31.6234 33.207 31.8864 33.0117C32.1495 32.819 32.281 32.5013 32.281 32.0586V30.9219H32.2107C32.1377 31.0677 32.031 31.2174 31.8903 31.3711C31.7523 31.5247 31.5687 31.6536 31.3396 31.7578C31.113 31.862 30.8278 31.9141 30.4841 31.9141C30.0232 31.9141 29.6052 31.806 29.2302 31.5898C28.8578 31.3711 28.5609 31.0456 28.3396 30.6133C28.1208 30.1784 28.0114 29.6341 28.0114 28.9805C28.0114 28.3216 28.1208 27.7656 28.3396 27.3125C28.5609 26.8568 28.8591 26.5117 29.2341 26.2773C29.6091 26.0404 30.0271 25.9219 30.488 25.9219C30.8396 25.9219 31.1286 25.9818 31.3552 26.1016C31.5843 26.2187 31.7666 26.3607 31.9021 26.5273C32.0375 26.6914 32.1403 26.8464 32.2107 26.9922H32.2888V26H33.6833V32.0977C33.6833 32.6107 33.5609 33.0352 33.3161 33.3711C33.0713 33.707 32.7367 33.9583 32.3122 34.125C31.8877 34.2917 31.406 34.375 30.8669 34.375ZM30.8786 30.8047C31.1781 30.8047 31.4333 30.7318 31.6442 30.5859C31.8552 30.4401 32.0153 30.2305 32.1247 29.957C32.2341 29.6836 32.2888 29.3555 32.2888 28.9727C32.2888 28.5951 32.2341 28.2643 32.1247 27.9805C32.0179 27.6966 31.8591 27.4766 31.6482 27.3203C31.4398 27.1615 31.1833 27.082 30.8786 27.082C30.5635 27.082 30.3005 27.1641 30.0896 27.3281C29.8786 27.4922 29.7198 27.7174 29.613 28.0039C29.5062 28.2878 29.4528 28.6107 29.4528 28.9727C29.4528 29.3398 29.5062 29.6615 29.613 29.9375C29.7224 30.2109 29.8825 30.4245 30.0935 30.5781C30.307 30.7292 30.5687 30.8047 30.8786 30.8047ZM39.4667 27.5859L38.1777 27.7266C38.1412 27.5964 38.0774 27.474 37.9862 27.3594C37.8977 27.2448 37.7779 27.1523 37.6269 27.082C37.4758 27.0117 37.2909 26.9766 37.0722 26.9766C36.7779 26.9766 36.5305 27.0404 36.33 27.168C36.1321 27.2956 36.0344 27.4609 36.037 27.6641C36.0344 27.8385 36.0982 27.9805 36.2284 28.0898C36.3612 28.1992 36.58 28.2891 36.8847 28.3594L37.9081 28.5781C38.4758 28.7005 38.8977 28.8945 39.1737 29.1602C39.4524 29.4258 39.593 29.7734 39.5956 30.2031C39.593 30.5807 39.4823 30.9141 39.2636 31.2031C39.0474 31.4896 38.7467 31.7135 38.3612 31.875C37.9758 32.0365 37.5331 32.1172 37.0331 32.1172C36.2987 32.1172 35.7076 31.9635 35.2597 31.6562C34.8118 31.3464 34.5448 30.9154 34.4589 30.3633L35.8378 30.2305C35.9003 30.5013 36.0331 30.7057 36.2362 30.8437C36.4394 30.9818 36.7037 31.0508 37.0292 31.0508C37.3652 31.0508 37.6347 30.9818 37.8378 30.8437C38.0435 30.7057 38.1464 30.5352 38.1464 30.332C38.1464 30.1602 38.08 30.0182 37.9472 29.9062C37.817 29.7943 37.6138 29.7083 37.3378 29.6484L36.3144 29.4336C35.7388 29.3138 35.3131 29.112 35.037 28.8281C34.761 28.5417 34.6243 28.1797 34.6269 27.7422C34.6243 27.3724 34.7245 27.0521 34.9277 26.7812C35.1334 26.5078 35.4185 26.2969 35.7831 26.1484C36.1503 25.9974 36.5735 25.9219 37.0527 25.9219C37.7558 25.9219 38.3092 26.0716 38.7128 26.3711C39.1191 26.6706 39.3704 27.0755 39.4667 27.5859Z" fill="#949191"/>
</svg>
