<svg width="50" height="33" viewBox="0 0 50 33" fill="none" xmlns="http://www.w3.org/2000/svg">
<path d="M9.96999 26.6992H8.50905C8.46739 26.4596 8.39056 26.2474 8.27859 26.0625C8.16661 25.875 8.02728 25.7161 7.86062 25.5859C7.69395 25.4557 7.50385 25.3581 7.2903 25.293C7.07937 25.2253 6.8515 25.1914 6.60671 25.1914C6.17181 25.1914 5.7864 25.3008 5.45046 25.5195C5.11452 25.7357 4.8515 26.0534 4.6614 26.4727C4.47129 26.8893 4.37624 27.3984 4.37624 28C4.37624 28.612 4.47129 29.1276 4.6614 29.5469C4.85411 29.9635 5.11713 30.2786 5.45046 30.4922C5.7864 30.7031 6.17051 30.8086 6.6028 30.8086C6.84239 30.8086 7.06635 30.7773 7.27468 30.7148C7.48562 30.6497 7.67442 30.5547 7.84109 30.4297C8.01036 30.3047 8.15228 30.151 8.26687 29.9687C8.38405 29.7865 8.46478 29.5781 8.50905 29.3437L9.96999 29.3516C9.9153 29.7318 9.79681 30.0885 9.61452 30.4219C9.43484 30.7552 9.19916 31.0495 8.90749 31.3047C8.61583 31.5573 8.27468 31.7552 7.88405 31.8984C7.49343 32.0391 7.05984 32.1094 6.58327 32.1094C5.88015 32.1094 5.25254 31.9466 4.70046 31.6211C4.14838 31.2956 3.71348 30.8255 3.39577 30.2109C3.07806 29.5964 2.91921 28.8594 2.91921 28C2.91921 27.138 3.07937 26.401 3.39968 25.7891C3.71999 25.1745 4.15619 24.7044 4.70827 24.3789C5.26036 24.0534 5.88536 23.8906 6.58327 23.8906C7.02859 23.8906 7.44265 23.9531 7.82546 24.0781C8.20827 24.2031 8.54942 24.3867 8.8489 24.6289C9.14838 24.8685 9.39447 25.1628 9.58718 25.5117C9.78249 25.8581 9.9101 26.2539 9.96999 26.6992ZM12.5532 32.1211C12.173 32.1211 11.8305 32.0534 11.5259 31.918C11.2238 31.7799 10.9842 31.5768 10.8071 31.3086C10.6326 31.0404 10.5454 30.7096 10.5454 30.3164C10.5454 29.9779 10.6079 29.6979 10.7329 29.4766C10.8579 29.2552 11.0285 29.0781 11.2446 28.9453C11.4608 28.8125 11.7042 28.7122 11.9751 28.6445C12.2485 28.5742 12.5311 28.5234 12.8227 28.4922C13.1743 28.4557 13.4595 28.4232 13.6782 28.3945C13.897 28.3633 14.0558 28.3164 14.1548 28.2539C14.2563 28.1888 14.3071 28.0885 14.3071 27.9531V27.9297C14.3071 27.6354 14.2199 27.4076 14.0454 27.2461C13.8709 27.0846 13.6196 27.0039 13.2915 27.0039C12.9451 27.0039 12.6704 27.0794 12.4673 27.2305C12.2667 27.3815 12.1313 27.5599 12.061 27.7656L10.7407 27.5781C10.8449 27.2135 11.0167 26.9089 11.2563 26.6641C11.4959 26.4167 11.7889 26.2318 12.1352 26.1094C12.4816 25.9844 12.8644 25.9219 13.2837 25.9219C13.5727 25.9219 13.8605 25.9557 14.147 26.0234C14.4334 26.0911 14.6951 26.2031 14.9321 26.3594C15.1691 26.513 15.3592 26.7227 15.5024 26.9883C15.6483 27.2539 15.7212 27.5859 15.7212 27.9844V32H14.3618V31.1758H14.3149C14.229 31.3424 14.1079 31.4987 13.9516 31.6445C13.798 31.7878 13.604 31.9036 13.3696 31.9922C13.1378 32.0781 12.8657 32.1211 12.5532 32.1211ZM12.9204 31.082C13.2042 31.082 13.4503 31.026 13.6587 30.9141C13.867 30.7995 14.0272 30.6484 14.1391 30.4609C14.2537 30.2734 14.311 30.069 14.311 29.8477V29.1406C14.2667 29.1771 14.1912 29.2109 14.0845 29.2422C13.9803 29.2734 13.8631 29.3008 13.7329 29.3242C13.6027 29.3477 13.4738 29.3685 13.3462 29.3867C13.2186 29.4049 13.1079 29.4206 13.0141 29.4336C12.8032 29.4622 12.6144 29.5091 12.4477 29.5742C12.2811 29.6393 12.1496 29.7305 12.0532 29.8477C11.9568 29.9622 11.9087 30.1107 11.9087 30.293C11.9087 30.5534 12.0037 30.75 12.1938 30.8828C12.3839 31.0156 12.6261 31.082 12.9204 31.082ZM18.1491 24V32H16.735V24H18.1491ZM21.8515 32.1172C21.2499 32.1172 20.7304 31.9922 20.2929 31.7422C19.858 31.4896 19.5233 31.1328 19.289 30.6719C19.0546 30.2083 18.9374 29.6628 18.9374 29.0352C18.9374 28.418 19.0546 27.8763 19.289 27.4102C19.5259 26.9414 19.8567 26.5768 20.2811 26.3164C20.7056 26.0534 21.2043 25.9219 21.7772 25.9219C22.147 25.9219 22.496 25.9818 22.8241 26.1016C23.1548 26.2187 23.4465 26.401 23.6991 26.6484C23.9543 26.8958 24.1548 27.2109 24.3007 27.5937C24.4465 27.974 24.5194 28.4271 24.5194 28.9531V29.3867H19.6015V28.4336H23.164C23.1614 28.1628 23.1028 27.9219 22.9882 27.7109C22.8736 27.4974 22.7134 27.3294 22.5077 27.207C22.3046 27.0846 22.0676 27.0234 21.7968 27.0234C21.5077 27.0234 21.2538 27.0937 21.0351 27.2344C20.8163 27.3724 20.6457 27.5547 20.5233 27.7812C20.4035 28.0052 20.3423 28.2513 20.3397 28.5195V29.3516C20.3397 29.7005 20.4035 30 20.5311 30.25C20.6588 30.4974 20.8371 30.6875 21.0663 30.8203C21.2955 30.9505 21.5637 31.0156 21.871 31.0156C22.0767 31.0156 22.2629 30.987 22.4296 30.9297C22.5963 30.8698 22.7408 30.7826 22.8632 30.668C22.9856 30.5534 23.078 30.4115 23.1405 30.2422L24.4608 30.3906C24.3775 30.7396 24.2186 31.0443 23.9843 31.3047C23.7525 31.5625 23.4556 31.763 23.0936 31.9062C22.7317 32.0469 22.3176 32.1172 21.8515 32.1172ZM26.7218 28.4844V32H25.3077V26H26.6593V27.0195H26.7296C26.8676 26.6836 27.0877 26.4167 27.3897 26.2187C27.6944 26.0208 28.0707 25.9219 28.5187 25.9219C28.9327 25.9219 29.2934 26.0104 29.6007 26.1875C29.9106 26.3646 30.1502 26.6211 30.3194 26.957C30.4913 27.293 30.5759 27.7005 30.5733 28.1797V32H29.1593V28.3984C29.1593 27.9974 29.0551 27.6836 28.8468 27.457C28.6411 27.2305 28.3559 27.1172 27.9913 27.1172C27.7439 27.1172 27.5239 27.1719 27.3312 27.2812C27.1411 27.388 26.9913 27.543 26.8819 27.7461C26.7752 27.9492 26.7218 28.1953 26.7218 28.4844ZM33.8294 32.1055C33.3581 32.1055 32.9362 31.9844 32.5638 31.7422C32.1914 31.5 31.8971 31.1484 31.681 30.6875C31.4648 30.2266 31.3567 29.6667 31.3567 29.0078C31.3567 28.3411 31.4661 27.7786 31.6849 27.3203C31.9062 26.8594 32.2044 26.5117 32.5794 26.2773C32.9544 26.0404 33.3724 25.9219 33.8333 25.9219C34.1849 25.9219 34.4739 25.9818 34.7005 26.1016C34.9271 26.2187 35.1067 26.3607 35.2396 26.5273C35.3724 26.6914 35.4752 26.8464 35.5482 26.9922H35.6067V24H37.0247V32H35.6341V31.0547H35.5482C35.4752 31.2005 35.3698 31.3555 35.2317 31.5195C35.0937 31.681 34.9114 31.819 34.6849 31.9336C34.4583 32.0482 34.1732 32.1055 33.8294 32.1055ZM34.2239 30.9453C34.5234 30.9453 34.7786 30.8646 34.9896 30.7031C35.2005 30.5391 35.3607 30.3112 35.47 30.0195C35.5794 29.7279 35.6341 29.388 35.6341 29C35.6341 28.612 35.5794 28.2747 35.47 27.9883C35.3633 27.7018 35.2044 27.4792 34.9935 27.3203C34.7851 27.1615 34.5286 27.082 34.2239 27.082C33.9088 27.082 33.6458 27.1641 33.4349 27.3281C33.2239 27.4922 33.0651 27.7187 32.9583 28.0078C32.8515 28.2969 32.7982 28.6276 32.7982 29C32.7982 29.375 32.8515 29.7096 32.9583 30.0039C33.0677 30.2956 33.2278 30.526 33.4388 30.6953C33.6523 30.862 33.914 30.9453 34.2239 30.9453ZM39.8501 32.1211C39.4699 32.1211 39.1275 32.0534 38.8228 31.918C38.5207 31.7799 38.2811 31.5768 38.104 31.3086C37.9295 31.0404 37.8423 30.7096 37.8423 30.3164C37.8423 29.9779 37.9048 29.6979 38.0298 29.4766C38.1548 29.2552 38.3254 29.0781 38.5415 28.9453C38.7577 28.8125 39.0012 28.7122 39.272 28.6445C39.5454 28.5742 39.828 28.5234 40.1197 28.4922C40.4712 28.4557 40.7564 28.4232 40.9751 28.3945C41.1939 28.3633 41.3527 28.3164 41.4517 28.2539C41.5532 28.1888 41.604 28.0885 41.604 27.9531V27.9297C41.604 27.6354 41.5168 27.4076 41.3423 27.2461C41.1678 27.0846 40.9165 27.0039 40.5884 27.0039C40.242 27.0039 39.9673 27.0794 39.7642 27.2305C39.5637 27.3815 39.4282 27.5599 39.3579 27.7656L38.0376 27.5781C38.1418 27.2135 38.3137 26.9089 38.5532 26.6641C38.7928 26.4167 39.0858 26.2318 39.4322 26.1094C39.7785 25.9844 40.1613 25.9219 40.5806 25.9219C40.8697 25.9219 41.1574 25.9557 41.4439 26.0234C41.7303 26.0911 41.992 26.2031 42.229 26.3594C42.466 26.513 42.6561 26.7227 42.7993 26.9883C42.9452 27.2539 43.0181 27.5859 43.0181 27.9844V32H41.6587V31.1758H41.6118C41.5259 31.3424 41.4048 31.4987 41.2486 31.6445C41.0949 31.7878 40.9009 31.9036 40.6665 31.9922C40.4348 32.0781 40.1626 32.1211 39.8501 32.1211ZM40.2173 31.082C40.5012 31.082 40.7473 31.026 40.9556 30.9141C41.1639 30.7995 41.3241 30.6484 41.4361 30.4609C41.5506 30.2734 41.6079 30.069 41.6079 29.8477V29.1406C41.5637 29.1771 41.4881 29.2109 41.3814 29.2422C41.2772 29.2734 41.16 29.3008 41.0298 29.3242C40.8996 29.3477 40.7707 29.3685 40.6431 29.3867C40.5155 29.4049 40.4048 29.4206 40.3111 29.4336C40.1001 29.4622 39.9113 29.5091 39.7447 29.5742C39.578 29.6393 39.4465 29.7305 39.3501 29.8477C39.2538 29.9622 39.2056 30.1107 39.2056 30.293C39.2056 30.5534 39.3006 30.75 39.4907 30.8828C39.6808 31.0156 39.923 31.082 40.2173 31.082ZM44.032 32V26H45.4031V27H45.4656C45.5749 26.6536 45.7624 26.3867 46.0281 26.1992C46.2963 26.0091 46.6023 25.9141 46.946 25.9141C47.0241 25.9141 47.1114 25.918 47.2077 25.9258C47.3067 25.931 47.3887 25.9401 47.4538 25.9531V27.2539C47.3939 27.2331 47.2989 27.2148 47.1687 27.1992C47.0411 27.181 46.9174 27.1719 46.7976 27.1719C46.5398 27.1719 46.308 27.2279 46.1023 27.3398C45.8991 27.4492 45.739 27.6016 45.6218 27.7969C45.5046 27.9922 45.446 28.2174 45.446 28.4727V32H44.032Z" fill="#696767"/>
<path d="M24.5 13.4167C24.1813 13.4167 23.9143 13.3247 23.699 13.1407C23.483 12.9574 23.375 12.7299 23.375 12.4584C23.375 12.1869 23.483 11.9591 23.699 11.7751C23.9143 11.5918 24.1813 11.5001 24.5 11.5001C24.8187 11.5001 25.0861 11.5918 25.3021 11.7751C25.5174 11.9591 25.625 12.1869 25.625 12.4584C25.625 12.7299 25.5174 12.9574 25.3021 13.1407C25.0861 13.3247 24.8187 13.4167 24.5 13.4167ZM20 13.4167C19.6813 13.4167 19.4139 13.3247 19.1979 13.1407C18.9826 12.9574 18.875 12.7299 18.875 12.4584C18.875 12.1869 18.9826 11.9591 19.1979 11.7751C19.4139 11.5918 19.6813 11.5001 20 11.5001C20.3187 11.5001 20.5861 11.5918 20.8021 11.7751C21.0174 11.9591 21.125 12.1869 21.125 12.4584C21.125 12.7299 21.0174 12.9574 20.8021 13.1407C20.5861 13.3247 20.3187 13.4167 20 13.4167ZM29 13.4167C28.6813 13.4167 28.4143 13.3247 28.199 13.1407C27.983 12.9574 27.875 12.7299 27.875 12.4584C27.875 12.1869 27.983 11.9591 28.199 11.7751C28.4143 11.5918 28.6813 11.5001 29 11.5001C29.3187 11.5001 29.5857 11.5918 29.801 11.7751C30.017 11.9591 30.125 12.1869 30.125 12.4584C30.125 12.7299 30.017 12.9574 29.801 13.1407C29.5857 13.3247 29.3187 13.4167 29 13.4167ZM24.5 17.2501C24.1813 17.2501 23.9143 17.1581 23.699 16.9741C23.483 16.7907 23.375 16.5633 23.375 16.2917C23.375 16.0202 23.483 15.7928 23.699 15.6094C23.9143 15.4254 24.1813 15.3334 24.5 15.3334C24.8187 15.3334 25.0861 15.4254 25.3021 15.6094C25.5174 15.7928 25.625 16.0202 25.625 16.2917C25.625 16.5633 25.5174 16.7907 25.3021 16.9741C25.0861 17.1581 24.8187 17.2501 24.5 17.2501ZM20 17.2501C19.6813 17.2501 19.4139 17.1581 19.1979 16.9741C18.9826 16.7907 18.875 16.5633 18.875 16.2917C18.875 16.0202 18.9826 15.7928 19.1979 15.6094C19.4139 15.4254 19.6813 15.3334 20 15.3334C20.3187 15.3334 20.5861 15.4254 20.8021 15.6094C21.0174 15.7928 21.125 16.0202 21.125 16.2917C21.125 16.5633 21.0174 16.7907 20.8021 16.9741C20.5861 17.1581 20.3187 17.2501 20 17.2501ZM29 17.2501C28.6813 17.2501 28.4143 17.1581 28.199 16.9741C27.983 16.7907 27.875 16.5633 27.875 16.2917C27.875 16.0202 27.983 15.7928 28.199 15.6094C28.4143 15.4254 28.6813 15.3334 29 15.3334C29.3187 15.3334 29.5857 15.4254 29.801 15.6094C30.017 15.7928 30.125 16.0202 30.125 16.2917C30.125 16.5633 30.017 16.7907 29.801 16.9741C29.5857 17.1581 29.3187 17.2501 29 17.2501ZM16.625 21.0834C16.0062 21.0834 15.4764 20.8959 15.0354 20.5209C14.5951 20.1452 14.375 19.6938 14.375 19.1667V5.75008C14.375 5.223 14.5951 4.77194 15.0354 4.39691C15.4764 4.02125 16.0062 3.83341 16.625 3.83341H17.75V1.91675H20V3.83341H29V1.91675H31.25V3.83341H32.375C32.9938 3.83341 33.5236 4.02125 33.9646 4.39691C34.4049 4.77194 34.625 5.223 34.625 5.75008V19.1667C34.625 19.6938 34.4049 20.1452 33.9646 20.5209C33.5236 20.8959 32.9938 21.0834 32.375 21.0834H16.625ZM16.625 19.1667H32.375V9.58342H16.625V19.1667Z" fill="#696767"/>
</svg>
