<svg width="52" height="40" viewBox="0 0 52 40" fill="none" xmlns="http://www.w3.org/2000/svg">
<path d="M10 8.63143C10 3.86314 13.4937 0 17.8043 0H23.8959C28.2073 0 31.7002 3.864 31.7002 8.63143C31.7002 13.3971 28.2065 17.262 23.8959 17.262H19.3001V21.4286C19.3001 21.4286 10 19.3457 10 8.63143Z" fill="#949191"/>
<path d="M25.8711 18.7432C27.0327 19.9796 28.5827 20.6691 30.1949 20.6666H32.4765V24C32.4765 24 41.0016 22.3337 41.0016 13.7623C41.0016 11.9311 40.3439 10.1749 39.1732 8.87995C38.0025 7.58501 36.4146 6.85741 34.7589 6.85718H33.0461C33.1802 7.41946 33.2515 8.01003 33.2515 8.61946C33.2515 13.5857 30.0895 17.736 25.8711 18.7432Z" fill="#949191"/>
<path d="M10.7935 33V25H15.9185V26.2148H12.2428V28.3867H15.567V29.6016H12.2428V33H10.7935ZM18.9451 33.1172C18.3592 33.1172 17.8514 32.9883 17.4217 32.7305C16.992 32.4727 16.6587 32.112 16.4217 31.6484C16.1873 31.1849 16.0701 30.6432 16.0701 30.0234C16.0701 29.4036 16.1873 28.8607 16.4217 28.3945C16.6587 27.9284 16.992 27.5664 17.4217 27.3086C17.8514 27.0508 18.3592 26.9219 18.9451 26.9219C19.531 26.9219 20.0389 27.0508 20.4685 27.3086C20.8982 27.5664 21.2303 27.9284 21.4646 28.3945C21.7016 28.8607 21.8201 29.4036 21.8201 30.0234C21.8201 30.6432 21.7016 31.1849 21.4646 31.6484C21.2303 32.112 20.8982 32.4727 20.4685 32.7305C20.0389 32.9883 19.531 33.1172 18.9451 33.1172ZM18.9529 31.9844C19.2706 31.9844 19.5363 31.8971 19.7498 31.7227C19.9633 31.5456 20.1222 31.3086 20.2264 31.0117C20.3331 30.7148 20.3865 30.3841 20.3865 30.0195C20.3865 29.6523 20.3331 29.3203 20.2264 29.0234C20.1222 28.724 19.9633 28.4857 19.7498 28.3086C19.5363 28.1315 19.2706 28.043 18.9529 28.043C18.6274 28.043 18.3566 28.1315 18.1404 28.3086C17.9269 28.4857 17.7667 28.724 17.66 29.0234C17.5558 29.3203 17.5037 29.6523 17.5037 30.0195C17.5037 30.3841 17.5558 30.7148 17.66 31.0117C17.7667 31.3086 17.9269 31.5456 18.1404 31.7227C18.3566 31.8971 18.6274 31.9844 18.9529 31.9844ZM22.6123 33V27H23.9834V28H24.0459C24.1553 27.6536 24.3428 27.3867 24.6084 27.1992C24.8766 27.0091 25.1826 26.9141 25.5264 26.9141C25.6045 26.9141 25.6917 26.918 25.7881 26.9258C25.887 26.931 25.9691 26.9401 26.0342 26.9531V28.2539C25.9743 28.2331 25.8792 28.2148 25.749 28.1992C25.6214 28.181 25.4977 28.1719 25.3779 28.1719C25.1201 28.1719 24.8883 28.2279 24.6826 28.3398C24.4795 28.4492 24.3193 28.6016 24.2021 28.7969C24.085 28.9922 24.0264 29.2174 24.0264 29.4727V33H22.6123ZM30.3899 30.4766V27H31.8039V33H30.4328V31.9336H30.3703C30.2349 32.2695 30.0122 32.5443 29.7024 32.7578C29.3951 32.9714 29.0162 33.0781 28.5656 33.0781C28.1724 33.0781 27.8247 32.9909 27.5227 32.8164C27.2232 32.6393 26.9888 32.3828 26.8195 32.0469C26.6503 31.7083 26.5656 31.2995 26.5656 30.8203V27H27.9797V30.6016C27.9797 30.9818 28.0839 31.2839 28.2922 31.5078C28.5005 31.7318 28.774 31.8437 29.1125 31.8437C29.3208 31.8437 29.5227 31.793 29.718 31.6914C29.9133 31.5898 30.0734 31.4388 30.1984 31.2383C30.326 31.0352 30.3899 30.7812 30.3899 30.4766ZM32.85 33V27H34.2016V28.0195H34.2719C34.3969 27.6758 34.6039 27.4076 34.893 27.2148C35.182 27.0195 35.5271 26.9219 35.9281 26.9219C36.3344 26.9219 36.6768 27.0208 36.9555 27.2187C37.2367 27.4141 37.4346 27.681 37.5492 28.0195H37.6117C37.7445 27.6862 37.9685 27.4206 38.2836 27.2227C38.6013 27.0221 38.9776 26.9219 39.4125 26.9219C39.9646 26.9219 40.4151 27.0964 40.7641 27.4453C41.113 27.7943 41.2875 28.3034 41.2875 28.9727V33H39.8695V29.1914C39.8695 28.819 39.7706 28.5469 39.5727 28.375C39.3748 28.2005 39.1326 28.1133 38.8461 28.1133C38.505 28.1133 38.238 28.2201 38.0453 28.4336C37.8552 28.6445 37.7602 28.9193 37.7602 29.2578V33H36.3735V29.1328C36.3735 28.8229 36.2797 28.5755 36.0922 28.3906C35.9073 28.2057 35.6651 28.1133 35.3656 28.1133C35.1625 28.1133 34.9776 28.1654 34.811 28.2695C34.6443 28.3711 34.5115 28.5156 34.4125 28.7031C34.3136 28.888 34.2641 29.1042 34.2641 29.3516V33H32.85Z" fill="#949191"/>
</svg>
