<svg width="90" height="11" viewBox="0 0 90 11" fill="none" xmlns="http://www.w3.org/2000/svg">
<path d="M0.714229 10V0.545454H4.25968C4.98601 0.545454 5.59538 0.671638 6.08781 0.924005C6.58331 1.17637 6.95725 1.5303 7.20961 1.98579C7.46506 2.43821 7.59278 2.96603 7.59278 3.56925C7.59278 4.17554 7.46352 4.70182 7.205 5.14808C6.94955 5.59126 6.57254 5.93442 6.07396 6.17756C5.57538 6.41761 4.96293 6.53764 4.2366 6.53764H1.71139V5.11577H4.00578C4.43049 5.11577 4.77827 5.05729 5.0491 4.94034C5.31993 4.82031 5.51998 4.64642 5.64924 4.41868C5.78158 4.18785 5.84775 3.90471 5.84775 3.56925C5.84775 3.23378 5.78158 2.94756 5.64924 2.71058C5.5169 2.47053 5.31532 2.28894 5.04448 2.16584C4.77365 2.03965 4.42434 1.97656 3.99654 1.97656H2.42694V10H0.714229ZM5.59846 5.71591L7.93902 10H6.02779L3.72879 5.71591H5.59846ZM11.7251 10.1385C11.0141 10.1385 10.4002 9.99077 9.88311 9.69531C9.36914 9.39678 8.97366 8.97514 8.69668 8.4304C8.41969 7.88258 8.28119 7.23781 8.28119 6.49609C8.28119 5.76669 8.41969 5.12654 8.69668 4.57564C8.97674 4.02166 9.3676 3.59079 9.86926 3.28303C10.3709 2.97218 10.9603 2.81676 11.6374 2.81676C12.0744 2.81676 12.4868 2.88755 12.8746 3.02912C13.2654 3.16761 13.6101 3.38305 13.9087 3.67543C14.2103 3.9678 14.4473 4.3402 14.6196 4.79261C14.792 5.24195 14.8781 5.77746 14.8781 6.39915V6.91158H9.06599V5.78516H13.2762C13.2731 5.46508 13.2039 5.1804 13.0685 4.93111C12.9331 4.67874 12.7438 4.48023 12.5007 4.33558C12.2606 4.19093 11.9805 4.11861 11.6605 4.11861C11.3188 4.11861 11.0188 4.2017 10.7602 4.3679C10.5017 4.53101 10.3001 4.74645 10.1555 5.0142C10.0139 5.27888 9.94159 5.56972 9.93851 5.88672V6.87003C9.93851 7.28243 10.0139 7.63636 10.1647 7.93182C10.3155 8.22419 10.5263 8.44886 10.7972 8.60582C11.068 8.75971 11.385 8.83665 11.7482 8.83665C11.9913 8.83665 12.2114 8.80279 12.4083 8.73509C12.6053 8.6643 12.7761 8.5612 12.9208 8.42578C13.0654 8.29036 13.1747 8.12263 13.2485 7.92259L14.8089 8.09801C14.7104 8.51042 14.5227 8.8705 14.2457 9.17827C13.9718 9.48295 13.6209 9.71993 13.1931 9.8892C12.7653 10.0554 12.276 10.1385 11.7251 10.1385ZM18.977 10.1385C18.2691 10.1385 17.6613 9.98307 17.1535 9.67223C16.6487 9.36139 16.2594 8.93205 15.9855 8.38423C15.7147 7.83333 15.5792 7.19934 15.5792 6.48224C15.5792 5.76207 15.7177 5.12654 15.9947 4.57564C16.2717 4.02166 16.6626 3.59079 17.1673 3.28303C17.6751 2.97218 18.2753 2.81676 18.9677 2.81676C19.5433 2.81676 20.0526 2.92294 20.4958 3.1353C20.9421 3.34458 21.2975 3.64157 21.5622 4.02628C21.8269 4.40791 21.9777 4.85417 22.0146 5.36506H20.4173C20.3527 5.02344 20.1988 4.73875 19.9557 4.51101C19.7156 4.28018 19.394 4.16477 18.9908 4.16477C18.6492 4.16477 18.3491 4.2571 18.0906 4.44176C17.8321 4.62334 17.6305 4.88494 17.4859 5.22656C17.3443 5.56818 17.2735 5.97751 17.2735 6.45455C17.2735 6.93774 17.3443 7.35322 17.4859 7.70099C17.6274 8.04569 17.8259 8.31191 18.0814 8.49964C18.3399 8.6843 18.643 8.77663 18.9908 8.77663C19.237 8.77663 19.4571 8.73047 19.651 8.63814C19.848 8.54273 20.0126 8.40578 20.1449 8.22727C20.2773 8.04877 20.3681 7.83179 20.4173 7.57635H22.0146C21.9746 8.07801 21.8269 8.52273 21.5714 8.91051C21.316 9.29522 20.9682 9.59683 20.5281 9.81534C20.088 10.0308 19.571 10.1385 18.977 10.1385ZM26.0719 10.1385C25.3794 10.1385 24.7793 9.98615 24.2715 9.68146C23.7637 9.37678 23.3697 8.95052 23.0897 8.4027C22.8127 7.85488 22.6742 7.21473 22.6742 6.48224C22.6742 5.74976 22.8127 5.10807 23.0897 4.55717C23.3697 4.00627 23.7637 3.57848 24.2715 3.27379C24.7793 2.96911 25.3794 2.81676 26.0719 2.81676C26.7644 2.81676 27.3645 2.96911 27.8723 3.27379C28.3801 3.57848 28.7725 4.00627 29.0495 4.55717C29.3296 5.10807 29.4696 5.74976 29.4696 6.48224C29.4696 7.21473 29.3296 7.85488 29.0495 8.4027C28.7725 8.95052 28.3801 9.37678 27.8723 9.68146C27.3645 9.98615 26.7644 10.1385 26.0719 10.1385ZM26.0811 8.79972C26.4566 8.79972 26.7705 8.69661 27.0229 8.49041C27.2753 8.28113 27.463 8.00107 27.5861 7.65021C27.7123 7.29936 27.7754 6.9085 27.7754 6.47763C27.7754 6.04368 27.7123 5.65128 27.5861 5.30043C27.463 4.9465 27.2753 4.66489 27.0229 4.45561C26.7705 4.24633 26.4566 4.14169 26.0811 4.14169C25.6964 4.14169 25.3764 4.24633 25.1209 4.45561C24.8685 4.66489 24.6793 4.9465 24.5531 5.30043C24.43 5.65128 24.3684 6.04368 24.3684 6.47763C24.3684 6.9085 24.43 7.29936 24.5531 7.65021C24.6793 8.00107 24.8685 8.28113 25.1209 8.49041C25.3764 8.69661 25.6964 8.79972 26.0811 8.79972ZM30.48 10V2.90909H32.0773V4.11399H32.1604C32.3082 3.70774 32.5528 3.39074 32.8945 3.163C33.2361 2.93217 33.6439 2.81676 34.1178 2.81676C34.5979 2.81676 35.0027 2.93371 35.332 3.16761C35.6643 3.39844 35.8983 3.7139 36.0337 4.11399H36.1075C36.2645 3.72005 36.5292 3.40613 36.9016 3.17223C37.277 2.93525 37.7218 2.81676 38.2357 2.81676C38.8882 2.81676 39.4206 3.02296 39.833 3.43537C40.2454 3.84777 40.4516 4.44946 40.4516 5.24041V10H38.7759V5.49893C38.7759 5.05883 38.6589 4.73722 38.425 4.53409C38.1911 4.32789 37.9049 4.22479 37.5663 4.22479C37.1632 4.22479 36.8477 4.35097 36.62 4.60334C36.3953 4.85263 36.283 5.17732 36.283 5.57741V10H34.6441V5.42969C34.6441 5.06345 34.5333 4.77107 34.3117 4.55256C34.0932 4.33404 33.807 4.22479 33.4531 4.22479C33.213 4.22479 32.9945 4.28634 32.7975 4.40945C32.6005 4.52947 32.4436 4.70028 32.3266 4.92188C32.2097 5.14039 32.1512 5.39583 32.1512 5.68821V10H30.48ZM41.739 10V2.90909H43.3363V4.11399H43.4194C43.5672 3.70774 43.8118 3.39074 44.1535 3.163C44.4951 2.93217 44.9029 2.81676 45.3768 2.81676C45.8569 2.81676 46.2616 2.93371 46.591 3.16761C46.9233 3.39844 47.1572 3.7139 47.2927 4.11399H47.3665C47.5235 3.72005 47.7882 3.40613 48.1606 3.17223C48.536 2.93525 48.9807 2.81676 49.4947 2.81676C50.1472 2.81676 50.6796 3.02296 51.092 3.43537C51.5044 3.84777 51.7106 4.44946 51.7106 5.24041V10H50.0348V5.49893C50.0348 5.05883 49.9179 4.73722 49.684 4.53409C49.4501 4.32789 49.1639 4.22479 48.8253 4.22479C48.4222 4.22479 48.1067 4.35097 47.879 4.60334C47.6543 4.85263 47.5419 5.17732 47.5419 5.57741V10H45.9031V5.42969C45.9031 5.06345 45.7923 4.77107 45.5707 4.55256C45.3522 4.33404 45.066 4.22479 44.712 4.22479C44.472 4.22479 44.2535 4.28634 44.0565 4.40945C43.8595 4.52947 43.7026 4.70028 43.5856 4.92188C43.4687 5.14039 43.4102 5.39583 43.4102 5.68821V10H41.739ZM56.1372 10.1385C55.4263 10.1385 54.8123 9.99077 54.2953 9.69531C53.7813 9.39678 53.3858 8.97514 53.1088 8.4304C52.8318 7.88258 52.6933 7.23781 52.6933 6.49609C52.6933 5.76669 52.8318 5.12654 53.1088 4.57564C53.3889 4.02166 53.7798 3.59079 54.2814 3.28303C54.7831 2.97218 55.3724 2.81676 56.0495 2.81676C56.4865 2.81676 56.899 2.88755 57.2867 3.02912C57.6776 3.16761 58.0223 3.38305 58.3208 3.67543C58.6224 3.9678 58.8594 4.3402 59.0318 4.79261C59.2041 5.24195 59.2903 5.77746 59.2903 6.39915V6.91158H53.4781V5.78516H57.6884C57.6853 5.46508 57.616 5.1804 57.4806 4.93111C57.3452 4.67874 57.1559 4.48023 56.9128 4.33558C56.6727 4.19093 56.3927 4.11861 56.0726 4.11861C55.731 4.11861 55.4309 4.2017 55.1724 4.3679C54.9139 4.53101 54.7123 4.74645 54.5676 5.0142C54.4261 5.27888 54.3537 5.56972 54.3507 5.88672V6.87003C54.3507 7.28243 54.4261 7.63636 54.5769 7.93182C54.7277 8.22419 54.9385 8.44886 55.2093 8.60582C55.4802 8.75971 55.7972 8.83665 56.1603 8.83665C56.4035 8.83665 56.6235 8.80279 56.8205 8.73509C57.0174 8.6643 57.1883 8.5612 57.3329 8.42578C57.4776 8.29036 57.5868 8.12263 57.6607 7.92259L59.221 8.09801C59.1226 8.51042 58.9348 8.8705 58.6578 9.17827C58.3839 9.48295 58.0331 9.71993 57.6053 9.8892C57.1775 10.0554 56.6881 10.1385 56.1372 10.1385ZM61.9673 5.84517V10H60.2961V2.90909H61.8934V4.11399H61.9765C62.1396 3.71697 62.3997 3.40151 62.7567 3.16761C63.1168 2.93371 63.5615 2.81676 64.0908 2.81676C64.5802 2.81676 65.0064 2.9214 65.3696 3.13068C65.7358 3.33996 66.019 3.64311 66.219 4.04013C66.4222 4.43714 66.5222 4.9188 66.5191 5.48508V10H64.8479V5.74361C64.8479 5.26965 64.7248 4.89879 64.4786 4.63104C64.2355 4.36328 63.8985 4.2294 63.4676 4.2294C63.1752 4.2294 62.9152 4.29403 62.6874 4.4233C62.4628 4.54948 62.2858 4.7326 62.1565 4.97266C62.0303 5.21271 61.9673 5.50355 61.9673 5.84517ZM70.4414 10.1246C69.8843 10.1246 69.3857 9.98153 68.9456 9.69531C68.5055 9.40909 68.1577 8.99361 67.9023 8.44886C67.6468 7.90412 67.5191 7.24242 67.5191 6.46378C67.5191 5.6759 67.6484 5.01113 67.9069 4.46946C68.1685 3.92472 68.5209 3.51385 68.9641 3.23686C69.4073 2.95679 69.9012 2.81676 70.446 2.81676C70.8615 2.81676 71.2031 2.88755 71.4708 3.02912C71.7386 3.16761 71.9509 3.33535 72.1079 3.53232C72.2649 3.72621 72.3864 3.90933 72.4726 4.08168H72.5418V0.545454H74.2176V10H72.5742V8.88281H72.4726C72.3864 9.05516 72.2618 9.23828 72.0987 9.43217C71.9356 9.62299 71.7201 9.7861 71.4524 9.92152C71.1846 10.0569 70.8476 10.1246 70.4414 10.1246ZM70.9076 8.75355C71.2615 8.75355 71.5632 8.65814 71.8124 8.46733C72.0617 8.27344 72.251 8.00414 72.3803 7.65945C72.5095 7.31475 72.5742 6.91312 72.5742 6.45455C72.5742 5.99598 72.5095 5.59742 72.3803 5.25888C72.2541 4.92034 72.0664 4.6572 71.8171 4.46946C71.5708 4.28172 71.2677 4.18785 70.9076 4.18785C70.5352 4.18785 70.2244 4.2848 69.9751 4.47869C69.7258 4.67259 69.5381 4.94034 69.4119 5.28196C69.2857 5.62358 69.2226 6.01444 69.2226 6.45455C69.2226 6.89773 69.2857 7.29321 69.4119 7.64098C69.5411 7.98568 69.7304 8.25805 69.9797 8.4581C70.2321 8.65507 70.5414 8.75355 70.9076 8.75355ZM78.7296 10.1385C78.0187 10.1385 77.4047 9.99077 76.8877 9.69531C76.3737 9.39678 75.9782 8.97514 75.7012 8.4304C75.4242 7.88258 75.2858 7.23781 75.2858 6.49609C75.2858 5.76669 75.4242 5.12654 75.7012 4.57564C75.9813 4.02166 76.3722 3.59079 76.8738 3.28303C77.3755 2.97218 77.9648 2.81676 78.6419 2.81676C79.079 2.81676 79.4914 2.88755 79.8791 3.02912C80.27 3.16761 80.6147 3.38305 80.9132 3.67543C81.2148 3.9678 81.4518 4.3402 81.6242 4.79261C81.7965 5.24195 81.8827 5.77746 81.8827 6.39915V6.91158H76.0706V5.78516H80.2808C80.2777 5.46508 80.2085 5.1804 80.073 4.93111C79.9376 4.67874 79.7483 4.48023 79.5052 4.33558C79.2652 4.19093 78.9851 4.11861 78.665 4.11861C78.3234 4.11861 78.0233 4.2017 77.7648 4.3679C77.5063 4.53101 77.3047 4.74645 77.16 5.0142C77.0185 5.27888 76.9461 5.56972 76.9431 5.88672V6.87003C76.9431 7.28243 77.0185 7.63636 77.1693 7.93182C77.3201 8.22419 77.5309 8.44886 77.8017 8.60582C78.0726 8.75971 78.3896 8.83665 78.7527 8.83665C78.9959 8.83665 79.2159 8.80279 79.4129 8.73509C79.6099 8.6643 79.7807 8.5612 79.9253 8.42578C80.07 8.29036 80.1792 8.12263 80.2531 7.92259L81.8134 8.09801C81.715 8.51042 81.5272 8.8705 81.2502 9.17827C80.9763 9.48295 80.6255 9.71993 80.1977 9.8892C79.7699 10.0554 79.2805 10.1385 78.7296 10.1385ZM85.5199 10.1246C84.9628 10.1246 84.4642 9.98153 84.0241 9.69531C83.584 9.40909 83.2363 8.99361 82.9808 8.44886C82.7254 7.90412 82.5977 7.24242 82.5977 6.46378C82.5977 5.6759 82.7269 5.01113 82.9854 4.46946C83.247 3.92472 83.5994 3.51385 84.0426 3.23686C84.4858 2.95679 84.9798 2.81676 85.5245 2.81676C85.94 2.81676 86.2816 2.88755 86.5494 3.02912C86.8171 3.16761 87.0295 3.33535 87.1864 3.53232C87.3434 3.72621 87.465 3.90933 87.5511 4.08168H87.6204V0.545454H89.2962V10H87.6527V8.88281H87.5511C87.465 9.05516 87.3403 9.23828 87.1772 9.43217C87.0141 9.62299 86.7986 9.7861 86.5309 9.92152C86.2631 10.0569 85.9261 10.1246 85.5199 10.1246ZM85.9861 8.75355C86.3401 8.75355 86.6417 8.65814 86.891 8.46733C87.1403 8.27344 87.3295 8.00414 87.4588 7.65945C87.5881 7.31475 87.6527 6.91312 87.6527 6.45455C87.6527 5.99598 87.5881 5.59742 87.4588 5.25888C87.3326 4.92034 87.1449 4.6572 86.8956 4.46946C86.6494 4.28172 86.3462 4.18785 85.9861 4.18785C85.6137 4.18785 85.3029 4.2848 85.0536 4.47869C84.8043 4.67259 84.6166 4.94034 84.4904 5.28196C84.3642 5.62358 84.3011 6.01444 84.3011 6.45455C84.3011 6.89773 84.3642 7.29321 84.4904 7.64098C84.6197 7.98568 84.8089 8.25805 85.0582 8.4581C85.3106 8.65507 85.6199 8.75355 85.9861 8.75355Z" fill="white"/>
</svg>
