<svg width="122" height="28" viewBox="0 0 122 28" fill="none" xmlns="http://www.w3.org/2000/svg">
<rect width="122" height="28" rx="5" fill="#181D3D"/>
<path d="M14.7142 20V10.5455H18.2597C18.986 10.5455 19.5954 10.6716 20.0878 10.924C20.5833 11.1764 20.9572 11.5303 21.2096 11.9858C21.4651 12.4382 21.5928 12.966 21.5928 13.5692C21.5928 14.1755 21.4635 14.7018 21.205 15.1481C20.9496 15.5913 20.5725 15.9344 20.074 16.1776C19.5754 16.4176 18.9629 16.5376 18.2366 16.5376H15.7114V15.1158H18.0058C18.4305 15.1158 18.7783 15.0573 19.0491 14.9403C19.3199 14.8203 19.52 14.6464 19.6492 14.4187C19.7816 14.1879 19.8478 13.9047 19.8478 13.5692C19.8478 13.2338 19.7816 12.9476 19.6492 12.7106C19.5169 12.4705 19.3153 12.2889 19.0445 12.1658C18.7737 12.0397 18.4243 11.9766 17.9965 11.9766H16.4269V20H14.7142ZM19.5985 15.7159L21.939 20H20.0278L17.7288 15.7159H19.5985ZM25.7251 20.1385C25.0141 20.1385 24.4002 19.9908 23.8831 19.6953C23.3691 19.3968 22.9737 18.9751 22.6967 18.4304C22.4197 17.8826 22.2812 17.2378 22.2812 16.4961C22.2812 15.7667 22.4197 15.1265 22.6967 14.5756C22.9767 14.0217 23.3676 13.5908 23.8693 13.283C24.3709 12.9722 24.9603 12.8168 25.6374 12.8168C26.0744 12.8168 26.4868 12.8875 26.8746 13.0291C27.2654 13.1676 27.6101 13.383 27.9087 13.6754C28.2103 13.9678 28.4473 14.3402 28.6196 14.7926C28.792 15.242 28.8781 15.7775 28.8781 16.3991V16.9116H23.066V15.7852H27.2762C27.2731 15.4651 27.2039 15.1804 27.0685 14.9311C26.9331 14.6787 26.7438 14.4802 26.5007 14.3356C26.2606 14.1909 25.9805 14.1186 25.6605 14.1186C25.3188 14.1186 25.0188 14.2017 24.7602 14.3679C24.5017 14.531 24.3001 14.7464 24.1555 15.0142C24.0139 15.2789 23.9416 15.5697 23.9385 15.8867V16.87C23.9385 17.2824 24.0139 17.6364 24.1647 17.9318C24.3155 18.2242 24.5263 18.4489 24.7972 18.6058C25.068 18.7597 25.385 18.8366 25.7482 18.8366C25.9913 18.8366 26.2114 18.8028 26.4083 18.7351C26.6053 18.6643 26.7761 18.5612 26.9208 18.4258C27.0654 18.2904 27.1747 18.1226 27.2485 17.9226L28.8089 18.098C28.7104 18.5104 28.5227 18.8705 28.2457 19.1783C27.9718 19.483 27.6209 19.7199 27.1931 19.8892C26.7653 20.0554 26.276 20.1385 25.7251 20.1385ZM32.977 20.1385C32.2691 20.1385 31.6613 19.9831 31.1535 19.6722C30.6487 19.3614 30.2594 18.9321 29.9855 18.3842C29.7147 17.8333 29.5792 17.1993 29.5792 16.4822C29.5792 15.7621 29.7177 15.1265 29.9947 14.5756C30.2717 14.0217 30.6626 13.5908 31.1673 13.283C31.6751 12.9722 32.2753 12.8168 32.9677 12.8168C33.5433 12.8168 34.0526 12.9229 34.4958 13.1353C34.9421 13.3446 35.2975 13.6416 35.5622 14.0263C35.8269 14.4079 35.9777 14.8542 36.0146 15.3651H34.4173C34.3527 15.0234 34.1988 14.7388 33.9557 14.511C33.7156 14.2802 33.394 14.1648 32.9908 14.1648C32.6492 14.1648 32.3491 14.2571 32.0906 14.4418C31.8321 14.6233 31.6305 14.8849 31.4859 15.2266C31.3443 15.5682 31.2735 15.9775 31.2735 16.4545C31.2735 16.9377 31.3443 17.3532 31.4859 17.701C31.6274 18.0457 31.8259 18.3119 32.0814 18.4996C32.3399 18.6843 32.643 18.7766 32.9908 18.7766C33.237 18.7766 33.4571 18.7305 33.651 18.6381C33.848 18.5427 34.0126 18.4058 34.1449 18.2273C34.2773 18.0488 34.3681 17.8318 34.4173 17.5763H36.0146C35.9746 18.078 35.8269 18.5227 35.5714 18.9105C35.316 19.2952 34.9682 19.5968 34.5281 19.8153C34.088 20.0308 33.571 20.1385 32.977 20.1385ZM40.0719 20.1385C39.3794 20.1385 38.7793 19.9862 38.2715 19.6815C37.7637 19.3768 37.3697 18.9505 37.0897 18.4027C36.8127 17.8549 36.6742 17.2147 36.6742 16.4822C36.6742 15.7498 36.8127 15.1081 37.0897 14.5572C37.3697 14.0063 37.7637 13.5785 38.2715 13.2738C38.7793 12.9691 39.3794 12.8168 40.0719 12.8168C40.7644 12.8168 41.3645 12.9691 41.8723 13.2738C42.3801 13.5785 42.7725 14.0063 43.0495 14.5572C43.3296 15.1081 43.4696 15.7498 43.4696 16.4822C43.4696 17.2147 43.3296 17.8549 43.0495 18.4027C42.7725 18.9505 42.3801 19.3768 41.8723 19.6815C41.3645 19.9862 40.7644 20.1385 40.0719 20.1385ZM40.0811 18.7997C40.4566 18.7997 40.7705 18.6966 41.0229 18.4904C41.2753 18.2811 41.463 18.0011 41.5861 17.6502C41.7123 17.2994 41.7754 16.9085 41.7754 16.4776C41.7754 16.0437 41.7123 15.6513 41.5861 15.3004C41.463 14.9465 41.2753 14.6649 41.0229 14.4556C40.7705 14.2463 40.4566 14.1417 40.0811 14.1417C39.6964 14.1417 39.3764 14.2463 39.1209 14.4556C38.8685 14.6649 38.6793 14.9465 38.5531 15.3004C38.43 15.6513 38.3684 16.0437 38.3684 16.4776C38.3684 16.9085 38.43 17.2994 38.5531 17.6502C38.6793 18.0011 38.8685 18.2811 39.1209 18.4904C39.3764 18.6966 39.6964 18.7997 40.0811 18.7997ZM44.48 20V12.9091H46.0773V14.114H46.1604C46.3082 13.7077 46.5528 13.3907 46.8945 13.163C47.2361 12.9322 47.6439 12.8168 48.1178 12.8168C48.5979 12.8168 49.0027 12.9337 49.332 13.1676C49.6643 13.3984 49.8983 13.7139 50.0337 14.114H50.1075C50.2645 13.7201 50.5292 13.4061 50.9016 13.1722C51.277 12.9353 51.7218 12.8168 52.2357 12.8168C52.8882 12.8168 53.4206 13.023 53.833 13.4354C54.2454 13.8478 54.4516 14.4495 54.4516 15.2404V20H52.7759V15.4989C52.7759 15.0588 52.6589 14.7372 52.425 14.5341C52.1911 14.3279 51.9049 14.2248 51.5663 14.2248C51.1632 14.2248 50.8477 14.351 50.62 14.6033C50.3953 14.8526 50.283 15.1773 50.283 15.5774V20H48.6441V15.4297C48.6441 15.0634 48.5333 14.7711 48.3117 14.5526C48.0932 14.334 47.807 14.2248 47.4531 14.2248C47.213 14.2248 46.9945 14.2863 46.7975 14.4094C46.6005 14.5295 46.4436 14.7003 46.3266 14.9219C46.2097 15.1404 46.1512 15.3958 46.1512 15.6882V20H44.48ZM55.739 20V12.9091H57.3363V14.114H57.4194C57.5672 13.7077 57.8118 13.3907 58.1535 13.163C58.4951 12.9322 58.9029 12.8168 59.3768 12.8168C59.8569 12.8168 60.2616 12.9337 60.591 13.1676C60.9233 13.3984 61.1572 13.7139 61.2927 14.114H61.3665C61.5235 13.7201 61.7882 13.4061 62.1606 13.1722C62.536 12.9353 62.9807 12.8168 63.4947 12.8168C64.1472 12.8168 64.6796 13.023 65.092 13.4354C65.5044 13.8478 65.7106 14.4495 65.7106 15.2404V20H64.0348V15.4989C64.0348 15.0588 63.9179 14.7372 63.684 14.5341C63.4501 14.3279 63.1639 14.2248 62.8253 14.2248C62.4222 14.2248 62.1067 14.351 61.879 14.6033C61.6543 14.8526 61.5419 15.1773 61.5419 15.5774V20H59.9031V15.4297C59.9031 15.0634 59.7923 14.7711 59.5707 14.5526C59.3522 14.334 59.066 14.2248 58.712 14.2248C58.472 14.2248 58.2535 14.2863 58.0565 14.4094C57.8595 14.5295 57.7026 14.7003 57.5856 14.9219C57.4687 15.1404 57.4102 15.3958 57.4102 15.6882V20H55.739ZM70.1372 20.1385C69.4263 20.1385 68.8123 19.9908 68.2953 19.6953C67.7813 19.3968 67.3858 18.9751 67.1088 18.4304C66.8318 17.8826 66.6933 17.2378 66.6933 16.4961C66.6933 15.7667 66.8318 15.1265 67.1088 14.5756C67.3889 14.0217 67.7798 13.5908 68.2814 13.283C68.7831 12.9722 69.3724 12.8168 70.0495 12.8168C70.4865 12.8168 70.899 12.8875 71.2867 13.0291C71.6776 13.1676 72.0223 13.383 72.3208 13.6754C72.6224 13.9678 72.8594 14.3402 73.0318 14.7926C73.2041 15.242 73.2903 15.7775 73.2903 16.3991V16.9116H67.4781V15.7852H71.6884C71.6853 15.4651 71.616 15.1804 71.4806 14.9311C71.3452 14.6787 71.1559 14.4802 70.9128 14.3356C70.6727 14.1909 70.3927 14.1186 70.0726 14.1186C69.731 14.1186 69.4309 14.2017 69.1724 14.3679C68.9139 14.531 68.7123 14.7464 68.5676 15.0142C68.4261 15.2789 68.3537 15.5697 68.3507 15.8867V16.87C68.3507 17.2824 68.4261 17.6364 68.5769 17.9318C68.7277 18.2242 68.9385 18.4489 69.2093 18.6058C69.4802 18.7597 69.7972 18.8366 70.1603 18.8366C70.4035 18.8366 70.6235 18.8028 70.8205 18.7351C71.0174 18.6643 71.1883 18.5612 71.3329 18.4258C71.4776 18.2904 71.5868 18.1226 71.6607 17.9226L73.221 18.098C73.1226 18.5104 72.9348 18.8705 72.6578 19.1783C72.3839 19.483 72.0331 19.7199 71.6053 19.8892C71.1775 20.0554 70.6881 20.1385 70.1372 20.1385ZM75.9673 15.8452V20H74.2961V12.9091H75.8934V14.114H75.9765C76.1396 13.717 76.3997 13.4015 76.7567 13.1676C77.1168 12.9337 77.5615 12.8168 78.0908 12.8168C78.5802 12.8168 79.0064 12.9214 79.3696 13.1307C79.7358 13.34 80.019 13.6431 80.219 14.0401C80.4222 14.4371 80.5222 14.9188 80.5191 15.4851V20H78.8479V15.7436C78.8479 15.2696 78.7248 14.8988 78.4786 14.631C78.2355 14.3633 77.8985 14.2294 77.4676 14.2294C77.1752 14.2294 76.9152 14.294 76.6874 14.4233C76.4628 14.5495 76.2858 14.7326 76.1565 14.9727C76.0303 15.2127 75.9673 15.5036 75.9673 15.8452ZM84.4414 20.1246C83.8843 20.1246 83.3857 19.9815 82.9456 19.6953C82.5055 19.4091 82.1577 18.9936 81.9023 18.4489C81.6468 17.9041 81.5191 17.2424 81.5191 16.4638C81.5191 15.6759 81.6484 15.0111 81.9069 14.4695C82.1685 13.9247 82.5209 13.5138 82.9641 13.2369C83.4073 12.9568 83.9012 12.8168 84.446 12.8168C84.8615 12.8168 85.2031 12.8875 85.4708 13.0291C85.7386 13.1676 85.9509 13.3353 86.1079 13.5323C86.2649 13.7262 86.3864 13.9093 86.4726 14.0817H86.5418V10.5455H88.2176V20H86.5742V18.8828H86.4726C86.3864 19.0552 86.2618 19.2383 86.0987 19.4322C85.9356 19.623 85.7201 19.7861 85.4524 19.9215C85.1846 20.0569 84.8476 20.1246 84.4414 20.1246ZM84.9076 18.7536C85.2615 18.7536 85.5632 18.6581 85.8124 18.4673C86.0617 18.2734 86.251 18.0041 86.3803 17.6594C86.5095 17.3147 86.5742 16.9131 86.5742 16.4545C86.5742 15.996 86.5095 15.5974 86.3803 15.2589C86.2541 14.9203 86.0664 14.6572 85.8171 14.4695C85.5708 14.2817 85.2677 14.1879 84.9076 14.1879C84.5352 14.1879 84.2244 14.2848 83.9751 14.4787C83.7258 14.6726 83.5381 14.9403 83.4119 15.282C83.2857 15.6236 83.2226 16.0144 83.2226 16.4545C83.2226 16.8977 83.2857 17.2932 83.4119 17.641C83.5411 17.9857 83.7304 18.258 83.9797 18.4581C84.2321 18.6551 84.5414 18.7536 84.9076 18.7536ZM92.7296 20.1385C92.0187 20.1385 91.4047 19.9908 90.8877 19.6953C90.3737 19.3968 89.9782 18.9751 89.7012 18.4304C89.4242 17.8826 89.2858 17.2378 89.2858 16.4961C89.2858 15.7667 89.4242 15.1265 89.7012 14.5756C89.9813 14.0217 90.3722 13.5908 90.8738 13.283C91.3755 12.9722 91.9648 12.8168 92.6419 12.8168C93.079 12.8168 93.4914 12.8875 93.8791 13.0291C94.27 13.1676 94.6147 13.383 94.9132 13.6754C95.2148 13.9678 95.4518 14.3402 95.6242 14.7926C95.7965 15.242 95.8827 15.7775 95.8827 16.3991V16.9116H90.0706V15.7852H94.2808C94.2777 15.4651 94.2085 15.1804 94.073 14.9311C93.9376 14.6787 93.7483 14.4802 93.5052 14.3356C93.2652 14.1909 92.9851 14.1186 92.665 14.1186C92.3234 14.1186 92.0233 14.2017 91.7648 14.3679C91.5063 14.531 91.3047 14.7464 91.16 15.0142C91.0185 15.2789 90.9461 15.5697 90.9431 15.8867V16.87C90.9431 17.2824 91.0185 17.6364 91.1693 17.9318C91.3201 18.2242 91.5309 18.4489 91.8017 18.6058C92.0726 18.7597 92.3896 18.8366 92.7527 18.8366C92.9959 18.8366 93.2159 18.8028 93.4129 18.7351C93.6099 18.6643 93.7807 18.5612 93.9253 18.4258C94.07 18.2904 94.1792 18.1226 94.2531 17.9226L95.8134 18.098C95.715 18.5104 95.5272 18.8705 95.2502 19.1783C94.9763 19.483 94.6255 19.7199 94.1977 19.8892C93.7699 20.0554 93.2805 20.1385 92.7296 20.1385ZM99.5199 20.1246C98.9628 20.1246 98.4642 19.9815 98.0241 19.6953C97.584 19.4091 97.2363 18.9936 96.9808 18.4489C96.7254 17.9041 96.5977 17.2424 96.5977 16.4638C96.5977 15.6759 96.7269 15.0111 96.9854 14.4695C97.247 13.9247 97.5994 13.5138 98.0426 13.2369C98.4858 12.9568 98.9798 12.8168 99.5245 12.8168C99.94 12.8168 100.282 12.8875 100.549 13.0291C100.817 13.1676 101.029 13.3353 101.186 13.5323C101.343 13.7262 101.465 13.9093 101.551 14.0817H101.62V10.5455H103.296V20H101.653V18.8828H101.551C101.465 19.0552 101.34 19.2383 101.177 19.4322C101.014 19.623 100.799 19.7861 100.531 19.9215C100.263 20.0569 99.9261 20.1246 99.5199 20.1246ZM99.9861 18.7536C100.34 18.7536 100.642 18.6581 100.891 18.4673C101.14 18.2734 101.33 18.0041 101.459 17.6594C101.588 17.3147 101.653 16.9131 101.653 16.4545C101.653 15.996 101.588 15.5974 101.459 15.2589C101.333 14.9203 101.145 14.6572 100.896 14.4695C100.649 14.2817 100.346 14.1879 99.9861 14.1879C99.6137 14.1879 99.3029 14.2848 99.0536 14.4787C98.8043 14.6726 98.6166 14.9403 98.4904 15.282C98.3642 15.6236 98.3011 16.0144 98.3011 16.4545C98.3011 16.8977 98.3642 17.2932 98.4904 17.641C98.6197 17.9857 98.8089 18.258 99.0582 18.4581C99.3106 18.6551 99.6199 18.7536 99.9861 18.7536Z" fill="white"/>
</svg>
