<svg width="62" height="51" viewBox="0 0 62 51" fill="none" xmlns="http://www.w3.org/2000/svg">
<path d="M13.3908 40.9091C13.3354 40.4413 13.1107 40.0781 12.7168 39.8196C12.3229 39.5611 11.8397 39.4318 11.2672 39.4318C10.8487 39.4318 10.4824 39.4995 10.1685 39.6349C9.85766 39.7704 9.61452 39.9566 9.4391 40.1935C9.26675 40.4305 9.18057 40.6998 9.18057 41.0014C9.18057 41.2538 9.24059 41.4708 9.36062 41.6523C9.48372 41.8308 9.64068 41.9801 9.8315 42.1001C10.0223 42.2171 10.2224 42.314 10.4316 42.391C10.6409 42.4648 10.8333 42.5249 11.0087 42.571L11.9689 42.8295C12.2151 42.8942 12.489 42.9834 12.7907 43.0973C13.0953 43.2112 13.3862 43.3666 13.6632 43.5636C13.9432 43.7575 14.1741 44.0067 14.3556 44.3114C14.5372 44.6161 14.628 44.9901 14.628 45.4332C14.628 45.9441 14.4941 46.4058 14.2264 46.8182C13.9617 47.2306 13.5739 47.5584 13.063 47.8015C12.5552 48.0446 11.9381 48.1662 11.2118 48.1662C10.5347 48.1662 9.94845 48.0569 9.45295 47.8384C8.96052 47.6199 8.57274 47.3152 8.28959 46.9244C8.00953 46.5335 7.85103 46.0795 7.8141 45.5625H8.99592C9.02669 45.9195 9.14672 46.215 9.356 46.4489C9.56836 46.6797 9.83611 46.852 10.1593 46.9659C10.4855 47.0767 10.8364 47.1321 11.2118 47.1321C11.6489 47.1321 12.0413 47.0613 12.389 46.9197C12.7368 46.7751 13.0123 46.575 13.2154 46.3196C13.4185 46.0611 13.5201 45.7595 13.5201 45.4148C13.5201 45.1009 13.4323 44.8454 13.2569 44.6484C13.0815 44.4515 12.8507 44.2914 12.5645 44.1683C12.2782 44.0452 11.9689 43.9375 11.6365 43.8452L10.4732 43.5128C9.73455 43.3004 9.1498 42.9973 8.71893 42.6033C8.28806 42.2094 8.07262 41.6939 8.07262 41.0568C8.07262 40.5275 8.21573 40.0658 8.50195 39.6719C8.79125 39.2749 9.17904 38.9671 9.6653 38.7486C10.1547 38.527 10.7009 38.4162 11.3042 38.4162C11.9135 38.4162 12.4552 38.5254 12.9292 38.744C13.4031 38.9594 13.7786 39.2549 14.0556 39.6303C14.3356 40.0058 14.4834 40.4321 14.4988 40.9091H13.3908ZM18.9277 48.1477C18.2444 48.1477 17.6551 47.9969 17.1596 47.6953C16.6671 47.3906 16.287 46.9659 16.0193 46.4212C15.7546 45.8733 15.6223 45.2363 15.6223 44.5099C15.6223 43.7836 15.7546 43.1435 16.0193 42.5895C16.287 42.0324 16.6594 41.5985 17.1365 41.2876C17.6166 40.9737 18.1767 40.8168 18.8169 40.8168C19.1862 40.8168 19.5509 40.8783 19.911 41.0014C20.2711 41.1245 20.5988 41.3246 20.8943 41.6016C21.1897 41.8755 21.4252 42.2386 21.6006 42.6911C21.776 43.1435 21.8637 43.7005 21.8637 44.3622V44.8239H16.3978V43.8821H20.7558C20.7558 43.482 20.6758 43.125 20.5157 42.8111C20.3588 42.4972 20.1341 42.2494 19.8417 42.0678C19.5524 41.8862 19.2108 41.7955 18.8169 41.7955C18.3829 41.7955 18.0075 41.9032 17.6905 42.1186C17.3765 42.331 17.1349 42.608 16.9657 42.9496C16.7964 43.2912 16.7118 43.6574 16.7118 44.0483V44.6761C16.7118 45.2116 16.8041 45.6656 16.9887 46.038C17.1765 46.4073 17.4365 46.6889 17.7689 46.8828C18.1013 47.0736 18.4876 47.169 18.9277 47.169C19.2139 47.169 19.4724 47.129 19.7032 47.049C19.9371 46.9659 20.1387 46.8428 20.308 46.6797C20.4773 46.5135 20.6081 46.3073 20.7004 46.0611L21.753 46.3565C21.6422 46.7135 21.456 47.0275 21.1944 47.2983C20.9328 47.5661 20.6096 47.7753 20.2249 47.9261C19.8402 48.0739 19.4078 48.1477 18.9277 48.1477ZM26.1969 40.9091V41.8324H22.5222V40.9091H26.1969ZM23.5932 39.2102H24.6827V45.9688C24.6827 46.2765 24.7273 46.5073 24.8165 46.6612C24.9089 46.812 25.0258 46.9136 25.1674 46.9659C25.312 47.0152 25.4644 47.0398 25.6244 47.0398C25.7445 47.0398 25.8429 47.0336 25.9199 47.0213C25.9968 47.0059 26.0584 46.9936 26.1045 46.9844L26.3261 47.9631C26.2523 47.9908 26.1492 48.0185 26.0168 48.0462C25.8845 48.0769 25.7168 48.0923 25.5136 48.0923C25.2059 48.0923 24.9043 48.0262 24.6088 47.8938C24.3164 47.7615 24.0733 47.5599 23.8794 47.2891C23.6886 47.0182 23.5932 46.6766 23.5932 46.2642V39.2102ZM30.5115 40.9091V41.8324H26.8368V40.9091H30.5115ZM27.9078 39.2102H28.9973V45.9688C28.9973 46.2765 29.042 46.5073 29.1312 46.6612C29.2235 46.812 29.3405 46.9136 29.4821 46.9659C29.6267 47.0152 29.779 47.0398 29.9391 47.0398C30.0591 47.0398 30.1576 47.0336 30.2345 47.0213C30.3115 47.0059 30.373 46.9936 30.4192 46.9844L30.6408 47.9631C30.5669 47.9908 30.4638 48.0185 30.3315 48.0462C30.1991 48.0769 30.0314 48.0923 29.8283 48.0923C29.5205 48.0923 29.2189 48.0262 28.9235 47.8938C28.6311 47.7615 28.3879 47.5599 28.1941 47.2891C28.0032 47.0182 27.9078 46.6766 27.9078 46.2642V39.2102ZM31.7424 48V40.9091H32.8319V48H31.7424ZM32.2964 39.7273C32.084 39.7273 31.9009 39.6549 31.747 39.5103C31.5962 39.3656 31.5208 39.1918 31.5208 38.9886C31.5208 38.7855 31.5962 38.6116 31.747 38.467C31.9009 38.3223 32.084 38.25 32.2964 38.25C32.5087 38.25 32.6903 38.3223 32.8411 38.467C32.995 38.6116 33.0719 38.7855 33.0719 38.9886C33.0719 39.1918 32.995 39.3656 32.8411 39.5103C32.6903 39.6549 32.5087 39.7273 32.2964 39.7273ZM35.5088 43.7344V48H34.4193V40.9091H35.4719V42.017H35.5642C35.7304 41.657 35.9828 41.3677 36.3213 41.1491C36.6599 40.9276 37.0969 40.8168 37.6324 40.8168C38.1125 40.8168 38.5326 40.9152 38.8927 41.1122C39.2528 41.3061 39.5329 41.6016 39.7329 41.9986C39.933 42.3925 40.033 42.8911 40.033 43.4943V48H38.9435V43.5682C38.9435 43.0111 38.7988 42.5772 38.5095 42.2663C38.2202 41.9524 37.8232 41.7955 37.3185 41.7955C36.9707 41.7955 36.6599 41.8709 36.386 42.0217C36.1151 42.1725 35.9012 42.3925 35.7443 42.6818C35.5873 42.9711 35.5088 43.322 35.5088 43.7344ZM44.4781 50.8068C43.9518 50.8068 43.4994 50.7391 43.1208 50.6037C42.7423 50.4714 42.4268 50.2959 42.1744 50.0774C41.9251 49.862 41.7266 49.6312 41.5789 49.3849L42.4468 48.7756C42.5453 48.9048 42.6699 49.0526 42.8207 49.2188C42.9715 49.388 43.1777 49.5342 43.4393 49.6573C43.704 49.7835 44.0503 49.8466 44.4781 49.8466C45.0505 49.8466 45.5229 49.7081 45.8953 49.4311C46.2677 49.1541 46.4539 48.7202 46.4539 48.1293V46.6889H46.3616C46.2816 46.8182 46.1677 46.9782 46.02 47.169C45.8753 47.3568 45.666 47.5245 45.3921 47.6722C45.1213 47.8169 44.755 47.8892 44.2934 47.8892C43.7209 47.8892 43.207 47.7538 42.7515 47.483C42.2991 47.2121 41.9405 46.8182 41.6758 46.3011C41.4142 45.7841 41.2834 45.1562 41.2834 44.4176C41.2834 43.6913 41.4112 43.0588 41.6666 42.5202C41.9221 41.9786 42.2775 41.56 42.733 41.2646C43.1885 40.966 43.7148 40.8168 44.3119 40.8168C44.7735 40.8168 45.1397 40.8937 45.4106 41.0476C45.6845 41.1984 45.8938 41.3707 46.0384 41.5646C46.1861 41.7554 46.3 41.9124 46.38 42.0355H46.4908V40.9091H47.5434V48.2031C47.5434 48.8125 47.4049 49.308 47.1279 49.6896C46.854 50.0743 46.4847 50.3559 46.02 50.5344C45.5583 50.716 45.0443 50.8068 44.4781 50.8068ZM44.4411 46.9105C44.8781 46.9105 45.2475 46.8105 45.5491 46.6104C45.8507 46.4104 46.08 46.1226 46.2369 45.7472C46.3939 45.3717 46.4724 44.9223 46.4724 44.3991C46.4724 43.8883 46.3954 43.4374 46.2415 43.0465C46.0877 42.6557 45.8599 42.3494 45.5583 42.1278C45.2567 41.9062 44.8843 41.7955 44.4411 41.7955C43.9795 41.7955 43.5948 41.9124 43.287 42.1463C42.9823 42.3802 42.753 42.6941 42.5991 43.0881C42.4483 43.482 42.3729 43.919 42.3729 44.3991C42.3729 44.8916 42.4499 45.3271 42.6038 45.7056C42.7607 46.0811 42.9915 46.3765 43.2962 46.592C43.604 46.8043 43.9856 46.9105 44.4411 46.9105ZM54.1524 42.4972L53.1737 42.7741C53.1122 42.611 53.0214 42.4525 52.9014 42.2987C52.7844 42.1417 52.6244 42.0124 52.4213 41.9109C52.2181 41.8093 51.9581 41.7585 51.6411 41.7585C51.2071 41.7585 50.8455 41.8585 50.5562 42.0586C50.27 42.2556 50.1269 42.5064 50.1269 42.8111C50.1269 43.0819 50.2253 43.2958 50.4223 43.4528C50.6193 43.6097 50.9271 43.7405 51.3456 43.8452L52.3982 44.1037C53.0322 44.2576 53.5046 44.493 53.8154 44.81C54.1263 45.1239 54.2817 45.5286 54.2817 46.0241C54.2817 46.4304 54.1647 46.7936 53.9308 47.1136C53.7 47.4337 53.3769 47.6861 52.9614 47.8707C52.5459 48.0554 52.0627 48.1477 51.5118 48.1477C50.7886 48.1477 50.19 47.9908 49.716 47.6768C49.242 47.3629 48.942 46.9044 48.8158 46.3011L49.8499 46.0426C49.9484 46.4242 50.1346 46.7105 50.4085 46.9013C50.6855 47.0921 51.0471 47.1875 51.4933 47.1875C52.0012 47.1875 52.4043 47.0798 52.7029 46.8643C53.0045 46.6458 53.1553 46.3842 53.1553 46.0795C53.1553 45.8333 53.0691 45.6271 52.8968 45.4609C52.7244 45.2917 52.4597 45.1655 52.1027 45.0824L50.9209 44.8054C50.2715 44.6515 49.7945 44.413 49.4898 44.0898C49.1882 43.7636 49.0374 43.3558 49.0374 42.8665C49.0374 42.4664 49.1497 42.1125 49.3744 41.8047C49.6021 41.4969 49.9114 41.2553 50.3023 41.0799C50.6962 40.9045 51.1425 40.8168 51.6411 40.8168C52.3428 40.8168 52.8937 40.9706 53.2938 41.2784C53.6969 41.5862 53.9832 41.9924 54.1524 42.4972Z" fill="#949191"/>
<path d="M30.3046 13.1142C29.384 13.0258 28.4578 13.2162 27.6528 13.6592C26.8478 14.1023 26.2034 14.7764 25.8078 15.5892C25.4121 16.402 25.2846 17.3138 25.4427 18.1998C25.6008 19.0857 26.0368 19.9026 26.6909 20.5384C27.345 21.1742 28.1853 21.598 29.0968 21.7516C30.0083 21.9053 30.9463 21.7814 31.7825 21.3968C32.6187 21.0123 33.3122 20.3859 33.768 19.6034C34.2238 18.8209 34.4197 17.9206 34.3287 17.0258C34.2251 16.0227 33.7678 15.0852 33.0344 14.3723C32.301 13.6594 31.3366 13.2149 30.3046 13.1142V13.1142ZM41.1081 17.4544C41.1053 17.9285 41.0694 18.4018 41.0009 18.8712L44.1704 21.2877C44.3084 21.3989 44.4014 21.554 44.4329 21.7256C44.4643 21.8971 44.4322 22.074 44.3422 22.2247L41.3437 27.2675C41.2526 27.4168 41.1103 27.53 40.9418 27.5872C40.7732 27.6444 40.5893 27.642 40.4225 27.5803L37.2747 26.3482C37.1011 26.281 36.913 26.2568 36.7274 26.2776C36.5418 26.2984 36.3644 26.3636 36.2111 26.4675C35.7307 26.789 35.2259 27.0747 34.701 27.322C34.536 27.4 34.3933 27.5162 34.2854 27.6605C34.1776 27.8048 34.1079 27.9727 34.0827 28.1493L33.6108 31.4129C33.5799 31.5852 33.4883 31.7418 33.3517 31.8557C33.2151 31.9697 33.0421 32.0341 32.8621 32.0378H26.8651C26.6881 32.0348 26.5175 31.9733 26.3812 31.8634C26.245 31.7535 26.1513 31.6018 26.1157 31.4333L25.6445 28.1745C25.6181 27.996 25.5466 27.8265 25.4366 27.6812C25.3265 27.5359 25.1812 27.4193 25.0136 27.3418C24.4893 27.0958 23.9862 26.8094 23.5091 26.4852C23.3563 26.3819 23.1795 26.3171 22.9946 26.2968C22.8096 26.2764 22.6224 26.3011 22.4498 26.3687L19.3026 27.6001C19.1359 27.6618 18.952 27.6643 18.7835 27.6072C18.615 27.5502 18.4726 27.4371 18.3814 27.288L15.3829 22.2451C15.2928 22.0945 15.2606 21.9176 15.292 21.746C15.3235 21.5744 15.4166 21.4192 15.5547 21.3081L18.2335 19.2637C18.3803 19.1505 18.4956 19.0034 18.5691 18.8358C18.6425 18.6683 18.6718 18.4855 18.6541 18.3042C18.6289 18.02 18.6135 17.7366 18.6135 17.4524C18.6135 17.1682 18.6282 16.8888 18.6541 16.6108C18.6698 16.4305 18.6392 16.2494 18.5649 16.0835C18.4906 15.9177 18.375 15.7724 18.2286 15.6608L15.5512 13.6164C15.4153 13.5047 15.3242 13.3501 15.2938 13.1797C15.2634 13.0092 15.2957 12.8338 15.385 12.6842L18.3835 7.64134C18.4746 7.49209 18.6169 7.37888 18.7854 7.32166C18.954 7.26444 19.1379 7.26688 19.3047 7.32855L22.4526 8.56064C22.6261 8.62782 22.8142 8.65209 22.9998 8.63128C23.1854 8.61047 23.3628 8.54522 23.5161 8.44138C23.9965 8.11981 24.5013 7.83414 25.0262 7.58683C25.1912 7.50887 25.3339 7.39261 25.4418 7.24833C25.5496 7.10404 25.6193 6.93617 25.6445 6.75953L26.1164 3.496C26.1474 3.32364 26.239 3.1671 26.3755 3.05312C26.5121 2.93914 26.6852 2.8748 26.8651 2.87109H32.8621C33.0391 2.87407 33.2098 2.93556 33.346 3.04544C33.4822 3.15531 33.5759 3.30701 33.6115 3.47555L34.0827 6.73431C34.1091 6.9129 34.1806 7.08237 34.2906 7.22765C34.4007 7.37293 34.546 7.48952 34.7136 7.56706C35.2379 7.81304 35.741 8.09949 36.2181 8.42366C36.3709 8.52698 36.5477 8.59173 36.7326 8.61207C36.9176 8.63242 37.1048 8.60771 37.2775 8.54019L40.4246 7.30879C40.5914 7.24706 40.7752 7.24451 40.9437 7.30161C41.1122 7.3587 41.2546 7.47177 41.3458 7.6209L44.3443 12.6637C44.4344 12.8144 44.4667 12.9913 44.4352 13.1629C44.4037 13.3345 44.3107 13.4896 44.1725 13.6007L41.4937 15.6451C41.3463 15.758 41.2303 15.9049 41.1562 16.0725C41.0821 16.2401 41.0524 16.423 41.0696 16.6046C41.0927 16.8868 41.1081 17.1703 41.1081 17.4544Z" stroke="#949191" stroke-width="3" stroke-linecap="round" stroke-linejoin="round"/>
</svg>
