<svg width="12" height="17" viewBox="0 0 12 16" fill="none" xmlns="http://www.w3.org/2000/svg">
<path d="M5.99837 3.74992C5.58587 3.74992 5.23287 3.59475 4.93937 3.28442C4.64537 2.97461 4.49837 2.602 4.49837 2.16659C4.49837 1.73117 4.64537 1.35829 4.93937 1.04796C5.23287 0.738155 5.58587 0.583252 5.99837 0.583252C6.41087 0.583252 6.76412 0.738155 7.05812 1.04796C7.35162 1.35829 7.49837 1.73117 7.49837 2.16659C7.49837 2.602 7.35162 2.97461 7.05812 3.28442C6.76412 3.59475 6.41087 3.74992 5.99837 3.74992ZM4.49837 16.4166C4.28587 16.4166 4.10787 16.3406 3.96437 16.1886C3.82037 16.0371 3.74837 15.8492 3.74837 15.6249V5.94679C2.74837 5.66971 1.92662 5.11897 1.28312 4.29459C0.639123 3.46967 0.235873 2.52943 0.0733731 1.47388C0.0358731 1.23638 0.095373 1.02843 0.251873 0.850044C0.407873 0.672182 0.610873 0.583252 0.860873 0.583252C1.03587 0.583252 1.18912 0.649224 1.32062 0.781169C1.45162 0.913113 1.52962 1.07145 1.55462 1.25617C1.69212 2.19297 2.07962 2.97461 2.71712 3.60108C3.35462 4.22808 4.13587 4.54159 5.06087 4.54159H6.93587C7.31087 4.54159 7.66087 4.61415 7.98587 4.75929C8.31087 4.90443 8.60462 5.11554 8.86712 5.39263L11.7359 8.42075C11.8734 8.56589 11.9421 8.75061 11.9421 8.97492C11.9421 9.19922 11.8734 9.38395 11.7359 9.52908C11.5984 9.67422 11.4234 9.74679 11.2109 9.74679C10.9984 9.74679 10.8234 9.67422 10.6859 9.52908L8.24837 6.95617V15.6249C8.24837 15.8492 8.17662 16.0371 8.03312 16.1886C7.88912 16.3406 7.71087 16.4166 7.49837 16.4166C7.28587 16.4166 7.10787 16.3406 6.96437 16.1886C6.82037 16.0371 6.74837 15.8492 6.74837 15.6249V11.6666H5.24837V15.6249C5.24837 15.8492 5.17662 16.0371 5.03312 16.1886C4.88912 16.3406 4.71087 16.4166 4.49837 16.4166Z" fill="white"/>
</svg>
